{
.appVersion = "1342";
classes = (
{
automatic = 1;

glyphs = (
{
glyphname = A;
lastChange = "2020-07-01 15:17:51 +0000";
layers = (
{
anchors = (
{
name = bottom;
position = "{564, 0}";
},
{
name = ogonek;
position = "{1157, 7}";
},
{
name = top;
position = "{650, 1327}";
}
);
layerId = "B5042207-EFBA-41B6-8DFD-104A953B46A6";
paths = (
{
closed = 1;
nodes = (
"430 57 OFFCURVE",
"451 178 OFFCURVE",
"477 291 CURVE",
"515 299 OFFCURVE",
"619 306 OFFCURVE",
"725 308 CURVE",
"725 190 OFFCURVE",
"726 80 OFFCURVE",
"732 -15 CURVE",
"859 -15 OFFCURVE",
"1077 -4 OFFCURVE",
"1157 7 CURVE",
"1096 783 OFFCURVE",
"1038 1089 OFFCURVE",
"986 1323 CURVE",
"904 1333 OFFCURVE",
"825 1338 OFFCURVE",
"743 1338 CURVE SMOOTH",
"615 1338 OFFCURVE",
"479 1327 OFFCURVE",
"308 1306 CURVE",
"203 940 OFFCURVE",
"44 271 OFFCURVE",
"-3 -2 CURVE",
"103 -7 OFFCURVE",
"347 -15 OFFCURVE",
"422 -15 CURVE"
);
},
{
closed = 1;
nodes = (
"533 691 OFFCURVE",
"571 911 OFFCURVE",
"588 995 CURVE",
"605 997 OFFCURVE",
"682 1002 OFFCURVE",
"707 1002 CURVE",
"707 976 OFFCURVE",
"715 692 OFFCURVE",
"717 651 CURVE",
"678 651 OFFCURVE",
"554 643 OFFCURVE",
"527 639 CURVE"
);
}
);
width = 1212;
},
{
anchors = (
{
name = bottom;
position = "{553, 0}";
},
{
name = ogonek;
position = "{898, -5}";
},
{
name = top;
position = "{566, 1323}";
}
);
layerId = "B5195C1E-69AB-4BC6-9855-DF55601A0735";
paths = (
{
closed = 1;
nodes = (
"201 91 OFFCURVE",
"243 318 OFFCURVE",
"286 525 CURVE",
"324 533 OFFCURVE",
"667 562 OFFCURVE",
"773 562 CURVE",
"784 467 OFFCURVE",
"806 80 OFFCURVE",
"811 -15 CURVE",
"840 -15 OFFCURVE",
"871 -12 OFFCURVE",
"898 -5 CURVE",
"857 621 OFFCURVE",
"811 1089 OFFCURVE",
"760 1323 CURVE",
"728 1327 OFFCURVE",
"683 1329 OFFCURVE",
"648 1329 CURVE SMOOTH",
"532 1329 OFFCURVE",
"414 1311 OFFCURVE",
"386 1304 CURVE",
"306 996 OFFCURVE",
"130 165 OFFCURVE",
"100 -7 CURVE",
"117 -12 OFFCURVE",
"148 -15 OFFCURVE",
"185 -15 CURVE"
);
},
{
closed = 1;
nodes = (
"371 941 OFFCURVE",
"431 1173 OFFCURVE",
"447 1231 CURVE",
"489 1237 OFFCURVE",
"641 1250 OFFCURVE",
"700 1250 CURVE",
"729 1096 OFFCURVE",
"760 745 OFFCURVE",
"768 638 CURVE",
"620 632 OFFCURVE",
"399 612 OFFCURVE",
"300 591 CURVE"
);
}
);
width = 998;
}
);
leftKerningGroup = A;
rightKerningGroup = A;
unicode = 0041;
},
{
glyphname = Aogonek;
lastChange = "2020-07-03 19:57:18 +0000";
layers = (
{
components = (
{
name = A;
}
);
layerId = "B5195C1E-69AB-4BC6-9855-DF55601A0735";
paths = (
{
closed = 1;
nodes = (
"946 -408 OFFCURVE",
"897 -428 OFFCURVE",
"803 -428 CURVE SMOOTH",
"713 -428 OFFCURVE",
"656 -397 OFFCURVE",
"656 -295 CURVE SMOOTH",
"656 -182 OFFCURVE",
"786 -48 OFFCURVE",
"898 -5 CURVE",
"833 40 LINE",
"694 -19 OFFCURVE",
"570 -159 OFFCURVE",
"570 -302 CURVE SMOOTH",
"570 -431 OFFCURVE",
"650 -508 OFFCURVE",
"787 -508 CURVE SMOOTH",
"891 -508 OFFCURVE",
"963 -486 OFFCURVE",
"1019 -462 CURVE",
"1019 -375 LINE"
);
}
);
width = 998;
},
{
components = (
{
name = A;
}
);
layerId = "B5042207-EFBA-41B6-8DFD-104A953B46A6";
paths = (
{
closed = 1;
nodes = (
"1232 -275 OFFCURVE",
"1187 -284 OFFCURVE",
"1144 -284 CURVE SMOOTH",
"1091 -284 OFFCURVE",
"1037 -260 OFFCURVE",
"1037 -188 CURVE SMOOTH",
"1037 -108 OFFCURVE",
"1112 -24 OFFCURVE",
"1157 7 CURVE",
"1021 65 LINE",
"956 46 OFFCURVE",
"774 -105 OFFCURVE",
"774 -277 CURVE SMOOTH",
"774 -444 OFFCURVE",
"918 -529 OFFCURVE",
"1076 -529 CURVE SMOOTH",
"1180 -529 OFFCURVE",
"1242 -516 OFFCURVE",
"1271 -504 CURVE",
"1271 -247 LINE"
);
}
);
width = 1212;
}
);
unicode = 0104;
},
{
glyphname = AE;
lastChange = "2020-07-16 19:49:22 +0000";
layers = (
{
anchors = (
{
name = bottom;
position = "{876, 0}";
},
{
name = top;
position = "{987, 1291}";
}
);
layerId = "B5042207-EFBA-41B6-8DFD-104A953B46A6";
paths = (
{
closed = 1;
nodes = (
"1632 -10 OFFCURVE",
"1659 235 OFFCURVE",
"1659 368 CURVE",
"1610 372 OFFCURVE",
"1530 378 OFFCURVE",
"1448 378 CURVE SMOOTH",
"1368 378 OFFCURVE",
"1289 378 OFFCURVE",
"1209 378 CURVE",
"1209 400 OFFCURVE",
"1212 478 OFFCURVE",
"1214 505 CURVE",
"1249 505 OFFCURVE",
"1540 491 OFFCURVE",
"1584 488 CURVE",
"1591 828 LINE",
"1504 826 OFFCURVE",
"1302 823 OFFCURVE",
"1223 823 CURVE",
"1223 842 OFFCURVE",
"1223 929 OFFCURVE",
"1226 946 CURVE",
"1649 977 LINE",
"1659 1091 OFFCURVE",
"1667 1194 OFFCURVE",
"1667 1298 CURVE",
"1596 1298 OFFCURVE",
"723 1232 OFFCURVE",
"577 1216 CURVE",
"389 874 OFFCURVE",
"76 251 OFFCURVE",
"-33 -4 CURVE",
"69 -9 OFFCURVE",
"316 -16 OFFCURVE",
"389 -16 CURVE",
"414 51 OFFCURVE",
"463 164 OFFCURVE",
"515 269 CURVE",
"554 277 OFFCURVE",
"757 283 OFFCURVE",
"861 285 CURVE",
"861 175 OFFCURVE",
"858 73 OFFCURVE",
"852 -16 CURVE",
"1038 -16 OFFCURVE",
"1410 -33 OFFCURVE",
"1620 -47 CURVE"
);
},
{
closed = 1;
nodes = (
"663 642 OFFCURVE",
"742 847 OFFCURVE",
"778 926 CURVE",
"795 928 OFFCURVE",
"852 932 OFFCURVE",
"877 932 CURVE",
"871 908 OFFCURVE",
"855 654 OFFCURVE",
"855 605 CURVE",
"816 605 OFFCURVE",
"673 598 OFFCURVE",
"645 594 CURVE"
);
}
);
width = 1762;
},
{
anchors = (
{
name = bottom;
position = "{775, 0}";
},
{
name = top;
position = "{870, 1291}";
}
);
layerId = "B5195C1E-69AB-4BC6-9855-DF55601A0735";
paths = (
{
closed = 1;
nodes = (
"1483 -5 OFFCURVE",
"1489 25 OFFCURVE",
"1491 53 CURVE",
"1415 59 OFFCURVE",
"1229 66 OFFCURVE",
"1070 66 CURVE SMOOTH",
"1017 66 OFFCURVE",
"930 65 OFFCURVE",
"890 63 CURVE",
"890 267 OFFCURVE",
"890 472 OFFCURVE",
"890 676 CURVE",
"976 679 OFFCURVE",
"1395 680 OFFCURVE",
"1445 680 CURVE",
"1437 758 LINE",
"1345 758 OFFCURVE",
"965 746 OFFCURVE",
"892 743 CURVE",
"892 828 OFFCURVE",
"895 1095 OFFCURVE",
"900 1183 CURVE",
"1491 1230 LINE",
"1494 1257 OFFCURVE",
"1495 1270 OFFCURVE",
"1495 1304 CURVE",
"1469 1304 OFFCURVE",
"524 1218 OFFCURVE",
"505 1214 CURVE",
"390 927 OFFCURVE",
"120 152 OFFCURVE",
"70 -9 CURVE",
"86 -13 OFFCURVE",
"116 -16 OFFCURVE",
"152 -16 CURVE",
"180 83 OFFCURVE",
"248 295 OFFCURVE",
"315 488 CURVE",
"353 495 OFFCURVE",
"698 522 OFFCURVE",
"804 522 CURVE",
"804 352 OFFCURVE",
"808 167 OFFCURVE",
"814 -12 CURVE",
"1017 -12 OFFCURVE",
"1341 -18 OFFCURVE",
"1478 -23 CURVE"
);
},
{
closed = 1;
nodes = (
"447 875 OFFCURVE",
"533 1092 OFFCURVE",
"556 1146 CURVE",
"598 1151 OFFCURVE",
"748 1164 OFFCURVE",
"806 1164 CURVE",
"806 867 OFFCURVE",
"806 738 OFFCURVE",
"800 593 CURVE",
"654 587 OFFCURVE",
"436 569 OFFCURVE",
"336 549 CURVE"
);
}
);
width = 1614;
}
);
leftKerningGroup = A;
leftMetricsKey = "=A-30";
rightKerningGroup = E;
rightMetricsKey = E;
unicode = 00C6;
},
{
glyphname = B;
lastChange = "2020-06-10 19:16:00 +0000";
layers = (
{
anchors = (
{
name = bottom;
position = "{587, 0}";
},
{
name = top;
position = "{587, 1291}";
}
);
layerId = "B5042207-EFBA-41B6-8DFD-104A953B46A6";
paths = (
{
closed = 1;
nodes = (
"146 10 OFFCURVE",
"257 2 OFFCURVE",
"372 2 CURVE SMOOTH",
"822 2 OFFCURVE",
"1106 77 OFFCURVE",
"1106 444 CURVE SMOOTH",
"1106 608 OFFCURVE",
"994 721 OFFCURVE",
"812 736 CURVE SMOOTH",
"800 737 OFFCURVE",
"793 737 OFFCURVE",
"786 737 CURVE",
"877 752 OFFCURVE",
"1020 834 OFFCURVE",
"1020 1000 CURVE SMOOTH",
"1020 1222 OFFCURVE",
"848 1306 OFFCURVE",
"602 1306 CURVE SMOOTH",
"441 1306 OFFCURVE",
"233 1293 OFFCURVE",
"106 1285 CURVE",
"106 1256 OFFCURVE",
"75 209 OFFCURVE",
"75 27 CURVE"
);
},
{
closed = 1;
nodes = (
"475 543 LINE",
"520 548 OFFCURVE",
"552 550 OFFCURVE",
"586 550 CURVE SMOOTH",
"725 550 OFFCURVE",
"737 507 OFFCURVE",
"737 466 CURVE SMOOTH",
"737 400 OFFCURVE",
"621 372 OFFCURVE",
"537 372 CURVE SMOOTH",
"516 372 OFFCURVE",
"497 372 OFFCURVE",
"484 373 CURVE"
);
},
{
closed = 1;
nodes = (
"463 1012 LINE",
"504 1017 OFFCURVE",
"557 1023 OFFCURVE",
"590 1023 CURVE SMOOTH",
"644 1023 OFFCURVE",
"689 990 OFFCURVE",
"689 945 CURVE SMOOTH",
"689 881 OFFCURVE",
"604 857 OFFCURVE",
"525 857 CURVE SMOOTH",
"508 857 OFFCURVE",
"490 857 OFFCURVE",
"470 857 CURVE"
);
}
);
width = 1174;
},
{
anchors = (
{
name = bottom;
position = "{587, 0}";
},
{
name = top;
position = "{587, 1291}";
}
);
layerId = "B5195C1E-69AB-4BC6-9855-DF55601A0735";
paths = (
{
closed = 1;
nodes = (
"244 6 OFFCURVE",
"296 4 OFFCURVE",
"350 4 CURVE SMOOTH",
"702 4 OFFCURVE",
"1031 64 OFFCURVE",
"1031 386 CURVE SMOOTH",
"1031 556 OFFCURVE",
"876 666 OFFCURVE",
"710 666 CURVE SMOOTH",
"702 666 OFFCURVE",
"695 666 OFFCURVE",
"689 665 CURVE",
"805 695 OFFCURVE",
"902 871 OFFCURVE",
"902 1010 CURVE SMOOTH",
"902 1217 OFFCURVE",
"750 1306 OFFCURVE",
"550 1306 CURVE SMOOTH",
"390 1306 OFFCURVE",
"269 1293 OFFCURVE",
"207 1285 CURVE",
"207 1256 OFFCURVE",
"198 193 OFFCURVE",
"198 12 CURVE"
);
},
{
closed = 1;
nodes = (
"294 610 LINE",
"338 615 OFFCURVE",
"501 617 OFFCURVE",
"535 617 CURVE SMOOTH",
"735 617 OFFCURVE",
"954 579 OFFCURVE",
"954 383 CURVE SMOOTH",
"954 117 OFFCURVE",
"657 80 OFFCURVE",
"331 80 CURVE SMOOTH",
"310 80 OFFCURVE",
"294 80 OFFCURVE",
"287 80 CURVE"
);
},
{
closed = 1;
nodes = (
"291 1221 LINE",
"336 1228 OFFCURVE",
"435 1241 OFFCURVE",
"532 1241 CURVE SMOOTH",
"711 1241 OFFCURVE",
"820 1185 OFFCURVE",
"820 1003 CURVE SMOOTH",
"820 895 OFFCURVE",
"768 783 OFFCURVE",
"691 737 CURVE SMOOTH",
"617 692 OFFCURVE",
"515 682 OFFCURVE",
"292 680 CURVE"
);
}
);
width = 1174;
}
);
leftKerningGroup = H;
rightKerningGroup = B;
unicode = 0042;
},
{
glyphname = C;
lastChange = "2020-07-03 19:50:48 +0000";
layers = (
{
anchors = (
{
name = bottom;
position = "{569, 0}";
},
{
name = top;
position = "{569, 1291}";
}
);
layerId = "B5042207-EFBA-41B6-8DFD-104A953B46A6";
paths = (
{
closed = 1;
nodes = (
"1063 308 OFFCURVE",
"930 434 OFFCURVE",
"839 499 CURVE",
"768 426 OFFCURVE",
"689 390 OFFCURVE",
"620 390 CURVE SMOOTH",
"483 390 OFFCURVE",
"454 534 OFFCURVE",
"454 695 CURVE SMOOTH",
"454 836 OFFCURVE",
"501 982 OFFCURVE",
"628 982 CURVE SMOOTH",
"733 982 OFFCURVE",
"797 855 OFFCURVE",
"803 834 CURVE",
"885 885 OFFCURVE",
"1032 995 OFFCURVE",
"1101 1070 CURVE",
"997 1246 OFFCURVE",
"814 1326 OFFCURVE",
"612 1326 CURVE SMOOTH",
"238 1326 OFFCURVE",
"25 1049 OFFCURVE",
"25 659 CURVE SMOOTH",
"25 256 OFFCURVE",
"233 -14 OFFCURVE",
"627 -14 CURVE SMOOTH",
"841 -14 OFFCURVE",
"1017 103 OFFCURVE",
"1118 215 CURVE"
);
}
);
width = 1137;
},
{
anchors = (
{
name = bottom;
position = "{569, 0}";
},
{
name = top;
position = "{539, 1301}";
}
);
layerId = "B5195C1E-69AB-4BC6-9855-DF55601A0735";
paths = (
{
closed = 1;
nodes = (
"1026 299 OFFCURVE",
"986 332 OFFCURVE",
"973 338 CURVE",
"906 241 OFFCURVE",
"778 72 OFFCURVE",
"552 72 CURVE SMOOTH",
"359 72 OFFCURVE",
"158 323 OFFCURVE",
"158 662 CURVE SMOOTH",
"158 1103 OFFCURVE",
"375 1241 OFFCURVE",
"547 1241 CURVE SMOOTH",
"824 1241 OFFCURVE",
"900 1090 OFFCURVE",
"926 1038 CURVE",
"943 1049 OFFCURVE",
"983 1079 OFFCURVE",
"993 1093 CURVE",
"922 1230 OFFCURVE",
"750 1326 OFFCURVE",
"566 1326 CURVE SMOOTH",
"237 1326 OFFCURVE",
"65 1034 OFFCURVE",
"65 676 CURVE SMOOTH",
"65 313 OFFCURVE",
"253 -7 OFFCURVE",
"554 -7 CURVE SMOOTH",
"781 -7 OFFCURVE",
"933 127 OFFCURVE",
"1034 289 CURVE"
);
}
);
width = 1137;
}
);
leftKerningGroup = O;
rightKerningGroup = C;
unicode = 0043;
},
{
glyphname = Ccedilla;
lastChange = "2020-07-08 20:01:06 +0000";
layers = (
{
components = (
{
name = C;
}
);
layerId = "B5195C1E-69AB-4BC6-9855-DF55601A0735";
paths = (
{
closed = 1;
nodes = (
"785 -462 OFFCURVE",
"898 -396 OFFCURVE",
"898 -255 CURVE SMOOTH",
"898 -144 OFFCURVE",
"823 -87 OFFCURVE",
"718 -87 CURVE SMOOTH",
"670 -87 OFFCURVE",
"607 -106 OFFCURVE",
"590 -119 CURVE",
"611 39 LINE",
"539 43 LINE",
"503 -212 LINE",
"544 -194 OFFCURVE",
"642 -159 OFFCURVE",
"700 -159 CURVE SMOOTH",
"782 -159 OFFCURVE",
"809 -198 OFFCURVE",
"809 -267 CURVE SMOOTH",
"809 -359 OFFCURVE",
"718 -392 OFFCURVE",
"570 -392 CURVE SMOOTH",
"519 -392 OFFCURVE",
"443 -374 OFFCURVE",
"404 -364 CURVE",
"386 -437 LINE",
"406 -444 OFFCURVE",
"471 -462 OFFCURVE",
"575 -462 CURVE SMOOTH"
);
}
);
width = 1137;
},
{
components = (
{
name = C;
}
);
layerId = "B5042207-EFBA-41B6-8DFD-104A953B46A6";
paths = (
{
closed = 1;
nodes = (
"770 -527 OFFCURVE",
"988 -443 OFFCURVE",
"988 -258 CURVE SMOOTH",
"988 -125 OFFCURVE",
"913 -67 OFFCURVE",
"807 -67 CURVE SMOOTH",
"737 -67 OFFCURVE",
"681 -95 OFFCURVE",
"657 -129 CURVE",
"681 19 LINE",
"462 7 LINE",
"406 -247 LINE",
"441 -234 OFFCURVE",
"524 -219 OFFCURVE",
"601 -219 CURVE SMOOTH",
"668 -219 OFFCURVE",
"722 -230 OFFCURVE",
"722 -266 CURVE SMOOTH",
"722 -306 OFFCURVE",
"657 -327 OFFCURVE",
"539 -327 CURVE SMOOTH",
"506 -327 OFFCURVE",
"422 -315 OFFCURVE",
"393 -302 CURVE",
"329 -505 LINE",
"349 -510 OFFCURVE",
"431 -527 OFFCURVE",
"536 -527 CURVE SMOOTH"
);
}
);
width = 1137;
}
);
unicode = 00C7;
},
{
glyphname = D;
lastChange = "2020-07-16 20:03:15 +0000";
layers = (
{
anchors = (
{
name = bottom;
position = "{599, 0}";
},
{
name = center;
position = "{304, 646}";
},
{
name = top;
position = "{533, 1291}";
}
);
layerId = "B5042207-EFBA-41B6-8DFD-104A953B46A6";
paths = (
{
closed = 1;
nodes = (
"832 -34 OFFCURVE",
"1147 56 OFFCURVE",
"1147 636 CURVE SMOOTH",
"1147 1143 OFFCURVE",
"956 1325 OFFCURVE",
"451 1325 CURVE SMOOTH",
"304 1325 OFFCURVE",
"127 1309 OFFCURVE",
"32 1299 CURVE",
"42 1152 OFFCURVE",
"111 178 OFFCURVE",
"137 -34 CURVE"
);
},
{
closed = 1;
nodes = (
"502 554 OFFCURVE",
"485 813 OFFCURVE",
"474 978 CURVE",
"487 979 OFFCURVE",
"513 979 OFFCURVE",
"533 979 CURVE SMOOTH",
"684 979 OFFCURVE",
"739 774 OFFCURVE",
"739 602 CURVE SMOOTH",
"739 463 OFFCURVE",
"690 381 OFFCURVE",
"512 381 CURVE"
);
}
);
width = 1198;
},
{
anchors = (
{
name = bottom;
position = "{599, 0}";
},
{
name = center;
position = "{360, 646}";
},
{
name = top;
position = "{502, 1291}";
}
);
layerId = "B5195C1E-69AB-4BC6-9855-DF55601A0735";
paths = (
{
closed = 1;
nodes = (
"775 -8 OFFCURVE",
"971 192 OFFCURVE",
"971 642 CURVE SMOOTH",
"971 1017 OFFCURVE",
"850 1325 OFFCURVE",
"393 1325 CURVE SMOOTH",
"319 1325 OFFCURVE",
"173 1308 OFFCURVE",
"137 1299 CURVE",
"138 1268 OFFCURVE",
"231 219 OFFCURVE",
"258 -27 CURVE"
);
},
{
closed = 1;
nodes = (
"288 427 OFFCURVE",
"255 867 OFFCURVE",
"229 1251 CURVE",
"273 1254 OFFCURVE",
"315 1256 OFFCURVE",
"354 1256 CURVE SMOOTH",
"767 1256 OFFCURVE",
"897 1039 OFFCURVE",
"897 658 CURVE SMOOTH",
"897 268 OFFCURVE",
"747 86 OFFCURVE",
"329 53 CURVE"
);
}
);
width = 1198;
}
);
leftKerningGroup = H;
rightKerningGroup = O;
unicode = 0044;
},
{
glyphname = Eth;
lastChange = "2020-06-18 20:02:25 +0000";
layers = (
{
components = (
{
name = D;
}
);
layerId = "B5042207-EFBA-41B6-8DFD-104A953B46A6";
paths = (
{
closed = 1;
nodes = (
"610 644 OFFCURVE",
"602 736 OFFCURVE",
"599 768 CURVE",
"479 768 OFFCURVE",
"139 740 OFFCURVE",
"3 710 CURVE",
"3 648 OFFCURVE",
"8 589 OFFCURVE",
"16 525 CURVE",
"198 543 OFFCURVE",
"506 553 OFFCURVE",
"610 553 CURVE"
);
}
);
width = 1198;
},
{
components = (
{
name = D;
}
);
layerId = "B5195C1E-69AB-4BC6-9855-DF55601A0735";
paths = (
{
closed = 1;
nodes = (
"579 663 OFFCURVE",
"577 698 OFFCURVE",
"576 707 CURVE",
"457 707 OFFCURVE",
"122 670 OFFCURVE",
"66 655 CURVE",
"62 644 OFFCURVE",
"60 610 OFFCURVE",
"60 592 CURVE",
"203 611 OFFCURVE",
"437 632 OFFCURVE",
"579 632 CURVE"
);
}
);
width = 1198;
}
);
leftKerningGroup = H;
rightKerningGroup = O;
unicode = 00D0;
},
{
glyphname = E;
lastChange = "2020-06-18 18:46:13 +0000";
layers = (
{
anchors = (
{
name = bottom;
position = "{499, 0}";
},
{
name = ogonek;
position = "{693, 0}";
},
{
name = top;
position = "{499, 1321}";
},
{
name = topleft;
position = "{40, 1291}";
}
);
layerId = "B5042207-EFBA-41B6-8DFD-104A953B46A6";
paths = (
{
closed = 1;
nodes = (
"827 22 OFFCURVE",
"854 267 OFFCURVE",
"854 400 CURVE",
"805 404 OFFCURVE",
"725 410 OFFCURVE",
"643 410 CURVE SMOOTH",
"555 410 OFFCURVE",
"464 410 OFFCURVE",
"454 410 CURVE",
"454 432 OFFCURVE",
"457 510 OFFCURVE",
"459 537 CURVE",
"494 537 OFFCURVE",
"735 523 OFFCURVE",
"779 520 CURVE",
"786 860 LINE",
"699 858 OFFCURVE",
"547 855 OFFCURVE",
"468 855 CURVE",
"468 874 OFFCURVE",
"468 961 OFFCURVE",
"471 978 CURVE",
"844 1009 LINE",
"854 1123 OFFCURVE",
"862 1226 OFFCURVE",
"862 1330 CURVE",
"807 1330 OFFCURVE",
"471 1328 OFFCURVE",
"82 1251 CURVE",
"77 1153 OFFCURVE",
"69 945 OFFCURVE",
"69 670 CURVE SMOOTH",
"69 483 OFFCURVE",
"73 266 OFFCURVE",
"82 31 CURVE",
"204 23 OFFCURVE",
"327 15 OFFCURVE",
"449 8 CURVE SMOOTH",
"571 1 OFFCURVE",
"693 -7 OFFCURVE",
"815 -15 CURVE"
);
}
);
width = 957;
},
{
anchors = (
{
name = bottom;
position = "{479, 0}";
},
{
name = ogonek;
position = "{688, 1}";
},
{
name = top;
position = "{479, 1311}";
},
{
name = topleft;
position = "{20, 1291}";
}
);
layerId = "B5195C1E-69AB-4BC6-9855-DF55601A0735";
paths = (
{
closed = 1;
nodes = (
"826 9 OFFCURVE",
"832 39 OFFCURVE",
"834 67 CURVE",
"758 73 OFFCURVE",
"572 80 OFFCURVE",
"413 80 CURVE SMOOTH",
"360 80 OFFCURVE",
"273 79 OFFCURVE",
"233 77 CURVE",
"233 223 OFFCURVE",
"233 636 OFFCURVE",
"233 690 CURVE",
"319 693 OFFCURVE",
"738 694 OFFCURVE",
"788 694 CURVE",
"780 772 LINE",
"688 772 OFFCURVE",
"308 760 OFFCURVE",
"235 757 CURVE",
"235 842 OFFCURVE",
"238 1109 OFFCURVE",
"243 1197 CURVE",
"834 1244 LINE",
"837 1271 OFFCURVE",
"838 1284 OFFCURVE",
"838 1318 CURVE",
"783 1318 OFFCURVE",
"496 1299 OFFCURVE",
"157 1251 CURVE",
"151 1179 OFFCURVE",
"147 946 OFFCURVE",
"147 580 CURVE SMOOTH",
"147 398 OFFCURVE",
"150 197 OFFCURVE",
"157 2 CURVE",
"220 4 OFFCURVE",
"302 5 OFFCURVE",
"365 5 CURVE SMOOTH",
"525 5 OFFCURVE",
"664 0 OFFCURVE",
"821 -9 CURVE"
);
}
);
width = 957;
}
);
leftKerningGroup = H;
rightKerningGroup = E;
unicode = 0045;
},
{
glyphname = Ecedillabreve;
lastChange = "2020-07-08 20:01:16 +0000";
layers = (
{
components = (
{
name = E;
},
{
name = brevecomb.case;
transform = "{1, 0, 0, 1, 71, 20}";
}
);
layerId = "B5195C1E-69AB-4BC6-9855-DF55601A0735";
paths = (
{
closed = 1;
nodes = (
"695 -462 OFFCURVE",
"808 -396 OFFCURVE",
"808 -255 CURVE SMOOTH",
"808 -144 OFFCURVE",
"733 -87 OFFCURVE",
"628 -87 CURVE SMOOTH",
"580 -87 OFFCURVE",
"517 -106 OFFCURVE",
"500 -119 CURVE",
"521 39 LINE",
"449 43 LINE",
"413 -212 LINE",
"454 -194 OFFCURVE",
"552 -159 OFFCURVE",
"610 -159 CURVE SMOOTH",
"692 -159 OFFCURVE",
"719 -198 OFFCURVE",
"719 -267 CURVE SMOOTH",
"719 -359 OFFCURVE",
"628 -392 OFFCURVE",
"480 -392 CURVE SMOOTH",
"429 -392 OFFCURVE",
"353 -374 OFFCURVE",
"314 -364 CURVE",
"296 -437 LINE",
"316 -444 OFFCURVE",
"381 -462 OFFCURVE",
"485 -462 CURVE SMOOTH"
);
}
);
width = 957;
},
{
components = (
{
name = E;
},
{
name = brevecomb.case;
transform = "{1, 0, 0, 1, 87, 30}";
}
);
layerId = "B5042207-EFBA-41B6-8DFD-104A953B46A6";
paths = (
{
closed = 1;
nodes = (
"700 -517 OFFCURVE",
"918 -433 OFFCURVE",
"918 -248 CURVE SMOOTH",
"918 -115 OFFCURVE",
"843 -57 OFFCURVE",
"737 -57 CURVE SMOOTH",
"667 -57 OFFCURVE",
"611 -85 OFFCURVE",
"587 -119 CURVE",
"621 49 LINE",
"402 37 LINE",
"336 -237 LINE",
"371 -224 OFFCURVE",
"454 -209 OFFCURVE",
"531 -209 CURVE SMOOTH",
"598 -209 OFFCURVE",
"652 -220 OFFCURVE",
"652 -256 CURVE SMOOTH",
"652 -296 OFFCURVE",
"587 -317 OFFCURVE",
"469 -317 CURVE SMOOTH",
"436 -317 OFFCURVE",
"352 -305 OFFCURVE",
"323 -292 CURVE",
"259 -495 LINE",
"279 -500 OFFCURVE",
"361 -517 OFFCURVE",
"466 -517 CURVE SMOOTH"
);
}
);
width = 957;
}
);
unicode = 1E1C;
},
{
glyphname = Eogonek;
lastChange = "2020-07-16 20:00:25 +0000";
layers = (
{
components = (
{
name = E;
}
);
layerId = "B5195C1E-69AB-4BC6-9855-DF55601A0735";
paths = (
{
closed = 1;
nodes = (
"869 -412 OFFCURVE",
"820 -432 OFFCURVE",
"726 -432 CURVE SMOOTH",
"636 -432 OFFCURVE",
"579 -401 OFFCURVE",
"579 -299 CURVE SMOOTH",
"579 -186 OFFCURVE",
"709 -52 OFFCURVE",
"821 -9 CURVE",
"756 36 LINE",
"617 -23 OFFCURVE",
"493 -163 OFFCURVE",
"493 -306 CURVE SMOOTH",
"493 -435 OFFCURVE",
"573 -512 OFFCURVE",
"710 -512 CURVE SMOOTH",
"814 -512 OFFCURVE",
"886 -490 OFFCURVE",
"942 -466 CURVE",
"942 -379 LINE"
);
}
);
width = 957;
},
{
components = (
{
name = E;
}
);
layerId = "B5042207-EFBA-41B6-8DFD-104A953B46A6";
paths = (
{
closed = 1;
nodes = (
"890 -297 OFFCURVE",
"845 -306 OFFCURVE",
"802 -306 CURVE SMOOTH",
"749 -306 OFFCURVE",
"695 -282 OFFCURVE",
"695 -210 CURVE SMOOTH",
"695 -130 OFFCURVE",
"770 -46 OFFCURVE",
"815 -15 CURVE",
"679 43 LINE",
"614 24 OFFCURVE",
"432 -127 OFFCURVE",
"432 -299 CURVE SMOOTH",
"432 -466 OFFCURVE",
"576 -551 OFFCURVE",
"734 -551 CURVE SMOOTH",
"838 -551 OFFCURVE",
"900 -538 OFFCURVE",
"929 -526 CURVE",
"929 -269 LINE"
);
}
);
width = 957;
}
);
unicode = 0118;
},
{
glyphname = F;
lastChange = "2020-06-10 19:18:57 +0000";
layers = (
{
anchors = (
{
name = bottom;
position = "{475, 0}";
},
{
name = top;
position = "{475, 1291}";
}
);
layerId = "B5042207-EFBA-41B6-8DFD-104A953B46A6";
paths = (
{
closed = 1;
nodes = (
"525 161 OFFCURVE",
"509 355 OFFCURVE",
"491 517 CURVE",
"593 517 OFFCURVE",
"714 506 OFFCURVE",
"785 498 CURVE",
"794 619 OFFCURVE",
"794 722 OFFCURVE",
"794 819 CURVE",
"729 831 OFFCURVE",
"551 848 OFFCURVE",
"461 848 CURVE",
"458 885 OFFCURVE",
"453 932 OFFCURVE",
"449 962 CURVE",
"607 962 OFFCURVE",
"815 945 OFFCURVE",
"893 942 CURVE",
"893 1030 OFFCURVE",
"887 1162 OFFCURVE",
"878 1280 CURVE",
"796 1299 OFFCURVE",
"660 1314 OFFCURVE",
"497 1314 CURVE SMOOTH",
"362 1314 OFFCURVE",
"212 1312 OFFCURVE",
"68 1301 CURVE",
"85 875 OFFCURVE",
"99 448 OFFCURVE",
"109 17 CURVE",
"535 0 LINE"
);
}
);
width = 949;
},
{
anchors = (
{
name = bottom;
position = "{475, 0}";
},
{
name = top;
position = "{475, 1291}";
}
);
layerId = "B5195C1E-69AB-4BC6-9855-DF55601A0735";
paths = (
{
closed = 1;
nodes = (
"294 200 OFFCURVE",
"282 482 OFFCURVE",
"271 658 CURVE",
"403 658 OFFCURVE",
"624 648 OFFCURVE",
"756 634 CURVE",
"757 645 OFFCURVE",
"760 679 OFFCURVE",
"760 701 CURVE",
"743 703 OFFCURVE",
"551 725 OFFCURVE",
"270 725 CURVE",
"264 880 OFFCURVE",
"254 1116 OFFCURVE",
"244 1221 CURVE",
"555 1221 OFFCURVE",
"727 1205 OFFCURVE",
"802 1195 CURVE",
"802 1215 OFFCURVE",
"801 1257 OFFCURVE",
"797 1280 CURVE",
"687 1292 OFFCURVE",
"607 1299 OFFCURVE",
"490 1303 CURVE SMOOTH",
"405 1306 OFFCURVE",
"301 1307 OFFCURVE",
"152 1307 CURVE",
"174 922 OFFCURVE",
"202 421 OFFCURVE",
"202 -12 CURVE",
"294 -26 LINE"
);
}
);
width = 949;
}
);
leftKerningGroup = H;
rightKerningGroup = F;
unicode = 0046;
},
{
glyphname = G;
lastChange = "2020-06-10 19:34:16 +0000";
layers = (
{
anchors = (
{
name = bottom;
position = "{638, 0}";
},
{
name = top;
position = "{638, 1291}";
}
);
layerId = "B5042207-EFBA-41B6-8DFD-104A953B46A6";
paths = (
{
closed = 1;
nodes = (
"1018 -48 OFFCURVE",
"1192 209 OFFCURVE",
"1192 488 CURVE SMOOTH",
"1192 537 OFFCURVE",
"1187 608 OFFCURVE",
"1172 652 CURVE",
"1036 691 OFFCURVE",
"774 726 OFFCURVE",
"639 726 CURVE",
"630 662 OFFCURVE",
"624 514 OFFCURVE",
"624 447 CURVE",
"668 447 OFFCURVE",
"781 434 OFFCURVE",
"817 423 CURVE",
"819 415 OFFCURVE",
"820 408 OFFCURVE",
"820 394 CURVE SMOOTH",
"820 341 OFFCURVE",
"748 299 OFFCURVE",
"682 299 CURVE SMOOTH",
"530 299 OFFCURVE",
"458 440 OFFCURVE",
"458 613 CURVE SMOOTH",
"458 773 OFFCURVE",
"507 954 OFFCURVE",
"647 954 CURVE SMOOTH",
"746 954 OFFCURVE",
"802 884 OFFCURVE",
"824 855 CURVE",
"942 927 OFFCURVE",
"1095 1063 OFFCURVE",
"1140 1115 CURVE",
"1029 1270 OFFCURVE",
"821 1338 OFFCURVE",
"639 1338 CURVE SMOOTH",
"270 1338 OFFCURVE",
"62 1051 OFFCURVE",
"62 646 CURVE SMOOTH",
"62 210 OFFCURVE",
"298 -48 OFFCURVE",
"677 -48 CURVE SMOOTH"
);
}
);
width = 1275;
},
{
anchors = (
{
name = bottom;
position = "{678, 0}";
},
{
name = top;
position = "{678, 1291}";
}
);
layerId = "B5195C1E-69AB-4BC6-9855-DF55601A0735";
paths = (
{
closed = 1;
nodes = (
"1050 -48 OFFCURVE",
"1179 158 OFFCURVE",
"1179 483 CURVE SMOOTH",
"1179 540 OFFCURVE",
"1175 599 OFFCURVE",
"1168 662 CURVE",
"985 698 OFFCURVE",
"701 723 OFFCURVE",
"543 733 CURVE",
"543 710 OFFCURVE",
"546 672 OFFCURVE",
"548 654 CURVE",
"684 646 OFFCURVE",
"1022 601 OFFCURVE",
"1096 588 CURVE",
"1098 559 OFFCURVE",
"1099 520 OFFCURVE",
"1099 491 CURVE SMOOTH",
"1099 255 OFFCURVE",
"1023 36 OFFCURVE",
"715 36 CURVE SMOOTH",
"346 36 OFFCURVE",
"174 266 OFFCURVE",
"174 673 CURVE SMOOTH",
"174 1111 OFFCURVE",
"448 1258 OFFCURVE",
"627 1258 CURVE SMOOTH",
"790 1258 OFFCURVE",
"897 1236 OFFCURVE",
"1014 1050 CURVE",
"1031 1062 OFFCURVE",
"1059 1094 OFFCURVE",
"1068 1110 CURVE",
"1025 1194 OFFCURVE",
"903 1338 OFFCURVE",
"645 1338 CURVE SMOOTH",
"281 1338 OFFCURVE",
"84 1051 OFFCURVE",
"84 646 CURVE SMOOTH",
"84 214 OFFCURVE",
"286 -48 OFFCURVE",
"717 -48 CURVE SMOOTH"
);
}
);
width = 1275;
}
);
leftKerningGroup = O;
rightKerningGroup = G;
unicode = 0047;
},
{
glyphname = H;
lastChange = "2020-06-10 19:22:11 +0000";
layers = (
{
anchors = (
{
name = bottom;
position = "{547, 0}";
},
{
name = center;
position = "{526, 1063}";
},
{
name = top;
position = "{547, 1291}";
},
{
name = topleft;
position = "{20, 1291}";
}
);
layerId = "B5042207-EFBA-41B6-8DFD-104A953B46A6";
paths = (
{
closed = 1;
nodes = (
"169 5 OFFCURVE",
"403 12 OFFCURVE",
"482 22 CURVE",
"481 88 OFFCURVE",
"472 358 OFFCURVE",
"468 468 CURVE",
"526 468 OFFCURVE",
"559 468 OFFCURVE",
"627 470 CURVE",
"627 311 OFFCURVE",
"627 195 OFFCURVE",
"627 2 CURVE",
"770 2 OFFCURVE",
"933 7 OFFCURVE",
"986 12 CURVE",
"988 129 OFFCURVE",
"994 386 OFFCURVE",
"1004 640 CURVE SMOOTH",
"1016 939 OFFCURVE",
"1033 1234 OFFCURVE",
"1043 1299 CURVE",
"996 1304 OFFCURVE",
"898 1307 OFFCURVE",
"795 1307 CURVE SMOOTH",
"742 1307 OFFCURVE",
"681 1306 OFFCURVE",
"641 1304 CURVE",
"636 1172 OFFCURVE",
"632 875 OFFCURVE",
"629 812 CURVE",
"577 812 OFFCURVE",
"526 810 OFFCURVE",
"453 802 CURVE",
"450 852 OFFCURVE",
"446 973 OFFCURVE",
"446 1060 CURVE SMOOTH",
"446 1133 OFFCURVE",
"445 1229 OFFCURVE",
"445 1297 CURVE",
"347 1297 OFFCURVE",
"82 1285 OFFCURVE",
"56 1282 CURVE",
"52 1228 OFFCURVE",
"50 1148 OFFCURVE",
"50 1052 CURVE SMOOTH",
"50 700 OFFCURVE",
"73 147 OFFCURVE",
"91 5 CURVE"
);
}
);
width = 1094;
},
{
anchors = (
{
name = bottom;
position = "{547, 0}";
},
{
name = center;
position = "{517, 1063}";
},
{
name = top;
position = "{547, 1291}";
},
{
name = topleft;
position = "{20, 1291}";
}
);
layerId = "B5195C1E-69AB-4BC6-9855-DF55601A0735";
paths = (
{
closed = 1;
nodes = (
"227 -2 OFFCURVE",
"275 2 OFFCURVE",
"287 4 CURVE",
"285 25 OFFCURVE",
"260 395 OFFCURVE",
"248 641 CURVE",
"321 641 OFFCURVE",
"700 651 OFFCURVE",
"770 653 CURVE",
"770 535 OFFCURVE",
"773 154 OFFCURVE",
"773 -2 CURVE",
"793 -2 OFFCURVE",
"832 -1 OFFCURVE",
"855 2 CURVE",
"851 53 OFFCURVE",
"850 134 OFFCURVE",
"850 232 CURVE SMOOTH",
"850 572 OFFCURVE",
"870 1116 OFFCURVE",
"896 1299 CURVE",
"880 1303 OFFCURVE",
"844 1305 OFFCURVE",
"820 1305 CURVE SMOOTH",
"811 1305 OFFCURVE",
"804 1305 OFFCURVE",
"800 1304 CURVE",
"786 1142 OFFCURVE",
"777 889 OFFCURVE",
"772 745 CURVE",
"687 742 OFFCURVE",
"318 726 OFFCURVE",
"244 718 CURVE",
"243 740 OFFCURVE",
"240 870 OFFCURVE",
"240 1013 CURVE SMOOTH",
"240 1109 OFFCURVE",
"243 1211 OFFCURVE",
"251 1289 CURVE",
"226 1289 OFFCURVE",
"180 1285 OFFCURVE",
"156 1282 CURVE",
"152 1239 OFFCURVE",
"151 1171 OFFCURVE",
"151 1088 CURVE SMOOTH",
"151 747 OFFCURVE",
"176 149 OFFCURVE",
"190 -2 CURVE"
);
}
);
width = 1094;
}
);
leftKerningGroup = H;
rightKerningGroup = H;
unicode = 0048;
},
{
glyphname = Hbar;
lastChange = "2020-07-16 19:48:45 +0000";
layers = (
{
components = (
{
name = H;
}
);
layerId = "B5042207-EFBA-41B6-8DFD-104A953B46A6";
paths = (
{
closed = 1;
nodes = (
"1095 1023 OFFCURVE",
"1083 1144 OFFCURVE",
"1078 1178 CURVE",
"885 1178 OFFCURVE",
"144 1169 OFFCURVE",
"-23 1126 CURVE",
"-23 1062 OFFCURVE",
"-14 984 OFFCURVE",
"-2 909 CURVE",
"299 923 OFFCURVE",
"929 929 OFFCURVE",
"1095 929 CURVE"
);
}
);
width = 1094;
},
{
components = (
{
name = H;
}
);
layerId = "B5195C1E-69AB-4BC6-9855-DF55601A0735";
paths = (
{
closed = 1;
nodes = (
"1007 1023 OFFCURVE",
"1006 1051 OFFCURVE",
"1003 1058 CURVE",
"810 1058 OFFCURVE",
"109 1045 OFFCURVE",
"17 1037 CURVE",
"10 1028 OFFCURVE",
"6 1001 OFFCURVE",
"6 987 CURVE",
"238 992 OFFCURVE",
"777 999 OFFCURVE",
"1007 999 CURVE"
);
}
);
width = 1094;
}
);
leftKerningGroup = H;
rightKerningGroup = H;
unicode = 0126;
},
{
glyphname = I;
lastChange = "2020-06-18 18:46:33 +0000";
layers = (
{
anchors = (
{
name = bottom;
position = "{302, 0}";
},
{
name = ogonek;
position = "{315, 0}";
},
{
name = top;
position = "{302, 1291}";
},
{
name = topleft;
position = "{78, 1291}";
}
);
layerId = "B5195C1E-69AB-4BC6-9855-DF55601A0735";
paths = (
{
closed = 1;
nodes = (
"315 46 OFFCURVE",
"315 472 OFFCURVE",
"315 583 CURVE SMOOTH",
"315 755 OFFCURVE",
"309 1043 OFFCURVE",
"303 1320 CURVE",
"280 1320 OFFCURVE",
"242 1319 OFFCURVE",
"229 1317 CURVE",
"227 1049 OFFCURVE",
"227 815 OFFCURVE",
"227 649 CURVE SMOOTH",
"227 463 OFFCURVE",
"230 165 OFFCURVE",
"235 4 CURVE",
"247 2 OFFCURVE",
"303 0 OFFCURVE",
"315 0 CURVE"
);
}
);
width = 550;
},
{
anchors = (
{
name = bottom;
position = "{296, 0}";
},
{
name = ogonek;
position = "{471, -24}";
},
{
name = top;
position = "{296, 1291}";
},
{
name = topleft;
position = "{41, 1291}";
}
);
layerId = "B5042207-EFBA-41B6-8DFD-104A953B46A6";
paths = (
{
closed = 1;
nodes = (
"492 94 OFFCURVE",
"498 312 OFFCURVE",
"498 548 CURVE SMOOTH",
"498 823 OFFCURVE",
"489 1128 OFFCURVE",
"478 1323 CURVE",
"380 1323 OFFCURVE",
"156 1317 OFFCURVE",
"101 1315 CURVE",
"94 1057 OFFCURVE",
"90 808 OFFCURVE",
"90 580 CURVE SMOOTH",
"90 363 OFFCURVE",
"95 111 OFFCURVE",
"99 -8 CURVE",
"210 -23 OFFCURVE",
"370 -24 OFFCURVE",
"471 -24 CURVE"
);
}
);
width = 588;
}
);
unicode = 0049;
},
{
glyphname = I.ss01;
lastChange = "2020-07-16 19:56:45 +0000";
layers = (
{
anchors = (
{
name = bottom;
position = "{420, 0}";
},
{
name = ogonek;
position = "{479, 10}";
},
{
name = top;
position = "{418, 1321}";
},
{
name = topleft;
position = "{20, 1291}";
}
);
layerId = "B5042207-EFBA-41B6-8DFD-104A953B46A6";
paths = (
{
closed = 1;
nodes = (
"568 -17 OFFCURVE",
"694 -16 OFFCURVE",
"744 -14 CURVE",
"757 57 OFFCURVE",
"760 143 OFFCURVE",
"760 207 CURVE SMOOTH",
"760 256 OFFCURVE",
"758 293 OFFCURVE",
"757 303 CURVE",
"715 303 OFFCURVE",
"664 302 OFFCURVE",
"605 299 CURVE",
"612 357 OFFCURVE",
"624 557 OFFCURVE",
"624 706 CURVE SMOOTH",
"624 796 OFFCURVE",
"624 993 OFFCURVE",
"624 1014 CURVE",
"655 1012 OFFCURVE",
"713 1010 OFFCURVE",
"752 1010 CURVE",
"772 1093 OFFCURVE",
"773 1214 OFFCURVE",
"773 1277 CURVE",
"654 1291 OFFCURVE",
"487 1308 OFFCURVE",
"349 1308 CURVE SMOOTH",
"277 1308 OFFCURVE",
"144 1306 OFFCURVE",
"67 1304 CURVE",
"68 1296 OFFCURVE",
"68 1276 OFFCURVE",
"68 1247 CURVE SMOOTH",
"68 1190 OFFCURVE",
"68 1101 OFFCURVE",
"68 1015 CURVE",
"148 1015 OFFCURVE",
"175 1015 OFFCURVE",
"215 1017 CURVE",
"215 798 OFFCURVE",
"218 480 OFFCURVE",
"223 297 CURVE",
"165 297 OFFCURVE",
"137 299 OFFCURVE",
"91 304 CURVE",
"85 243 OFFCURVE",
"83 191 OFFCURVE",
"83 123 CURVE SMOOTH",
"83 78 OFFCURVE",
"84 36 OFFCURVE",
"86 2 CURVE",
"274 -14 OFFCURVE",
"369 -17 OFFCURVE",
"465 -17 CURVE SMOOTH"
);
}
);
width = 839;
},
{
anchors = (
{
name = bottom;
position = "{420, 0}";
},
{
name = ogonek;
position = "{440, 6}";
},
{
name = top;
position = "{420, 1301}";
},
{
name = topleft;
position = "{20, 1291}";
}
);
layerId = "B5195C1E-69AB-4BC6-9855-DF55601A0735";
paths = (
{
closed = 1;
nodes = (
"554 -10 OFFCURVE",
"646 -9 OFFCURVE",
"696 -7 CURVE",
"697 -3 OFFCURVE",
"700 13 OFFCURVE",
"703 29 CURVE SMOOTH",
"706 45 OFFCURVE",
"708 61 OFFCURVE",
"708 67 CURVE",
"607 67 OFFCURVE",
"528 67 OFFCURVE",
"444 65 CURVE",
"446 114 OFFCURVE",
"446 197 OFFCURVE",
"446 296 CURVE SMOOTH",
"446 505 OFFCURVE",
"440 1050 OFFCURVE",
"438 1226 CURVE",
"501 1224 OFFCURVE",
"674 1217 OFFCURVE",
"730 1209 CURVE",
"730 1227 OFFCURVE",
"725 1265 OFFCURVE",
"721 1279 CURVE",
"655 1289 OFFCURVE",
"456 1301 OFFCURVE",
"275 1301 CURVE SMOOTH",
"203 1301 OFFCURVE",
"137 1301 OFFCURVE",
"60 1299 CURVE",
"58 1295 OFFCURVE",
"56 1284 OFFCURVE",
"56 1269 CURVE SMOOTH",
"56 1256 OFFCURVE",
"58 1239 OFFCURVE",
"62 1221 CURVE",
"89 1224 OFFCURVE",
"256 1224 OFFCURVE",
"356 1224 CURVE",
"362 993 OFFCURVE",
"368 282 OFFCURVE",
"368 67 CURVE",
"303 68 OFFCURVE",
"138 71 OFFCURVE",
"92 74 CURVE",
"92 67 OFFCURVE",
"92 55 OFFCURVE",
"92 42 CURVE SMOOTH",
"92 27 OFFCURVE",
"92 9 OFFCURVE",
"92 5 CURVE",
"280 -8 OFFCURVE",
"356 -10 OFFCURVE",
"451 -10 CURVE SMOOTH"
);
}
);
width = 839;
}
);
leftKerningGroup = H;
rightKerningGroup = H;
},
{
glyphname = Iogonek;
lastChange = "2020-07-16 20:03:47 +0000";
layers = (
{
components = (
{
name = I;
}
);
layerId = "B5195C1E-69AB-4BC6-9855-DF55601A0735";
paths = (
{
closed = 1;
nodes = (
"363 -403 OFFCURVE",
"314 -423 OFFCURVE",
"220 -423 CURVE SMOOTH",
"130 -423 OFFCURVE",
"73 -392 OFFCURVE",
"73 -290 CURVE SMOOTH",
"73 -177 OFFCURVE",
"203 -43 OFFCURVE",
"315 0 CURVE",
"250 45 LINE",
"111 -14 OFFCURVE",
"-13 -154 OFFCURVE",
"-13 -297 CURVE SMOOTH",
"-13 -426 OFFCURVE",
"67 -503 OFFCURVE",
"204 -503 CURVE SMOOTH",
"308 -503 OFFCURVE",
"380 -481 OFFCURVE",
"436 -457 CURVE",
"436 -370 LINE"
);
}
);
width = 550;
},
{
components = (
{
name = I;
}
);
layerId = "B5042207-EFBA-41B6-8DFD-104A953B46A6";
paths = (
{
closed = 1;
nodes = (
"546 -306 OFFCURVE",
"501 -315 OFFCURVE",
"458 -315 CURVE SMOOTH",
"405 -315 OFFCURVE",
"351 -291 OFFCURVE",
"351 -219 CURVE SMOOTH",
"351 -139 OFFCURVE",
"426 -55 OFFCURVE",
"471 -24 CURVE",
"335 34 LINE",
"270 15 OFFCURVE",
"88 -136 OFFCURVE",
"88 -308 CURVE SMOOTH",
"88 -475 OFFCURVE",
"232 -560 OFFCURVE",
"390 -560 CURVE SMOOTH",
"494 -560 OFFCURVE",
"556 -547 OFFCURVE",
"585 -535 CURVE",
"585 -278 LINE"
);
}
);
width = 588;
}
);
unicode = 012E;
},
{
glyphname = Iogonek.ss01;
lastChange = "2020-07-16 19:55:23 +0000";
layers = (
{
components = (
{
name = I.ss01;
}
);
layerId = "B5195C1E-69AB-4BC6-9855-DF55601A0735";
paths = (
{
closed = 1;
nodes = (
"705 -397 OFFCURVE",
"656 -417 OFFCURVE",
"562 -417 CURVE SMOOTH",
"472 -417 OFFCURVE",
"415 -386 OFFCURVE",
"415 -284 CURVE SMOOTH",
"415 -171 OFFCURVE",
"545 -37 OFFCURVE",
"657 6 CURVE",
"592 51 LINE",
"453 -8 OFFCURVE",
"329 -148 OFFCURVE",
"329 -291 CURVE SMOOTH",
"329 -420 OFFCURVE",
"409 -497 OFFCURVE",
"546 -497 CURVE SMOOTH",
"650 -497 OFFCURVE",
"722 -475 OFFCURVE",
"778 -451 CURVE",
"778 -364 LINE"
);
}
);
width = 839;
},
{
components = (
{
name = I.ss01;
}
);
layerId = "B5042207-EFBA-41B6-8DFD-104A953B46A6";
paths = (
{
closed = 1;
nodes = (
"792 -272 OFFCURVE",
"747 -281 OFFCURVE",
"704 -281 CURVE SMOOTH",
"651 -281 OFFCURVE",
"597 -257 OFFCURVE",
"597 -185 CURVE SMOOTH",
"597 -105 OFFCURVE",
"672 -21 OFFCURVE",
"717 10 CURVE",
"581 68 LINE",
"516 49 OFFCURVE",
"334 -102 OFFCURVE",
"334 -274 CURVE SMOOTH",
"334 -441 OFFCURVE",
"478 -526 OFFCURVE",
"636 -526 CURVE SMOOTH",
"740 -526 OFFCURVE",
"802 -513 OFFCURVE",
"831 -501 CURVE",
"831 -244 LINE"
);
}
);
width = 839;
}
);
},
{
glyphname = J;
lastChange = "2020-06-10 19:36:08 +0000";
layers = (
{
anchors = (
{
name = bottom;
position = "{589, 0}";
},
{
name = top;
position = "{798, 1291}";
}
);
layerId = "B5042207-EFBA-41B6-8DFD-104A953B46A6";
paths = (
{
closed = 1;
nodes = (
"254 -19 OFFCURVE",
"537 -19 CURVE SMOOTH",
"855 -19 OFFCURVE",
"1068 114 OFFCURVE",
"1068 614 CURVE SMOOTH",
"1068 779 OFFCURVE",
"1053 1100 OFFCURVE",
"1038 1277 CURVE",
"977 1285 OFFCURVE",
"922 1287 OFFCURVE",
"848 1287 CURVE SMOOTH",
"779 1287 OFFCURVE",
"691 1278 OFFCURVE",
"626 1265 CURVE",
"629 1243 OFFCURVE",
"660 860 OFFCURVE",
"660 653 CURVE SMOOTH",
"660 443 OFFCURVE",
"638 364 OFFCURVE",
"559 364 CURVE SMOOTH",
"492 364 OFFCURVE",
"405 450 OFFCURVE",
"371 581 CURVE",
"282 548 OFFCURVE",
"58 443 OFFCURVE",
"2 400 CURVE",
"45 128 OFFCURVE"
);
}
);
width = 1178;
},
{
anchors = (
{
name = bottom;
position = "{589, 0}";
},
{
name = top;
position = "{828, 1318}";
}
);
layerId = "B5195C1E-69AB-4BC6-9855-DF55601A0735";
paths = (
{
closed = 1;
nodes = (
"262 -19 OFFCURVE",
"520 -19 CURVE SMOOTH",
"817 -19 OFFCURVE",
"942 247 OFFCURVE",
"942 585 CURVE SMOOTH",
"942 790 OFFCURVE",
"910 1140 OFFCURVE",
"894 1315 CURVE",
"886 1316 OFFCURVE",
"865 1318 OFFCURVE",
"847 1318 CURVE SMOOTH",
"828 1318 OFFCURVE",
"809 1316 OFFCURVE",
"798 1313 CURVE",
"802 1291 OFFCURVE",
"856 762 OFFCURVE",
"856 556 CURVE SMOOTH",
"856 277 OFFCURVE",
"759 63 OFFCURVE",
"528 63 CURVE SMOOTH",
"296 63 OFFCURVE",
"183 253 OFFCURVE",
"135 448 CURVE",
"106 436 OFFCURVE",
"71 419 OFFCURVE",
"48 405 CURVE",
"125 176 OFFCURVE"
);
}
);
width = 1178;
}
);
leftKerningGroup = J;
rightKerningGroup = J;
unicode = 004A;
},
{
glyphname = K;
lastChange = "2020-06-18 14:23:57 +0000";
layers = (
{
anchors = (
{
name = bottom;
position = "{558, 0}";
},
{
name = top;
position = "{558, 1291}";
}
);
layerId = "B5042207-EFBA-41B6-8DFD-104A953B46A6";
paths = (
{
closed = 1;
nodes = (
"247 -12 OFFCURVE",
"447 8 OFFCURVE",
"491 10 CURVE",
"491 56 OFFCURVE",
"474 272 OFFCURVE",
"463 409 CURVE",
"482 419 OFFCURVE",
"494 426 OFFCURVE",
"516 443 CURVE",
"571 355 OFFCURVE",
"706 102 OFFCURVE",
"750 -5 CURVE",
"863 31 OFFCURVE",
"1039 121 OFFCURVE",
"1101 162 CURVE",
"1072 236 OFFCURVE",
"911 497 OFFCURVE",
"757 684 CURVE",
"874 797 OFFCURVE",
"1035 1043 OFFCURVE",
"1060 1118 CURVE",
"1006 1146 OFFCURVE",
"863 1225 OFFCURVE",
"730 1326 CURVE",
"621 1097 OFFCURVE",
"520 892 OFFCURVE",
"438 809 CURVE",
"430 962 OFFCURVE",
"425 1226 OFFCURVE",
"424 1297 CURVE",
"385 1304 OFFCURVE",
"311 1311 OFFCURVE",
"231 1311 CURVE SMOOTH",
"167 1311 OFFCURVE",
"84 1306 OFFCURVE",
"26 1296 CURVE",
"46 937 OFFCURVE",
"76 240 OFFCURVE",
"76 -32 CURVE"
);
}
);
width = 1115;
},
{
anchors = (
{
name = bottom;
position = "{558, 0}";
},
{
name = top;
position = "{558, 1291}";
}
);
layerId = "B5195C1E-69AB-4BC6-9855-DF55601A0735";
paths = (
{
closed = 1;
nodes = (
"248 -32 OFFCURVE",
"289 -27 OFFCURVE",
"308 -24 CURVE",
"308 -3 OFFCURVE",
"294 381 OFFCURVE",
"280 621 CURVE",
"299 631 OFFCURVE",
"344 663 OFFCURVE",
"366 680 CURVE",
"618 426 OFFCURVE",
"850 19 OFFCURVE",
"858 2 CURVE",
"877 10 OFFCURVE",
"919 32 OFFCURVE",
"938 48 CURVE",
"899 121 OFFCURVE",
"630 537 OFFCURVE",
"432 723 CURVE",
"724 937 OFFCURVE",
"905 1150 OFFCURVE",
"961 1224 CURVE",
"946 1231 OFFCURVE",
"915 1257 OFFCURVE",
"899 1272 CURVE",
"753 1047 OFFCURVE",
"444 823 OFFCURVE",
"274 708 CURVE",
"260 952 OFFCURVE",
"239 1239 OFFCURVE",
"232 1297 CURVE",
"225 1299 OFFCURVE",
"211 1300 OFFCURVE",
"197 1300 CURVE SMOOTH",
"180 1300 OFFCURVE",
"162 1299 OFFCURVE",
"154 1296 CURVE",
"180 897 OFFCURVE",
"219 69 OFFCURVE",
"219 -32 CURVE"
);
}
);
width = 1061;
}
);
leftKerningGroup = H;
rightKerningGroup = K;
unicode = 004B;
},
{
glyphname = L;
lastChange = "2020-07-01 15:22:46 +0000";
layers = (
{
anchors = (
{
name = bottom;
position = "{511, 0}";
},
{
name = center;
position = "{511, 646}";
},
{
name = top;
position = "{285, 1302}";
},
{
name = topright;
position = "{563, 1063}";
}
);
layerId = "B5042207-EFBA-41B6-8DFD-104A953B46A6";
paths = (
{
closed = 1;
nodes = (
"146 20 OFFCURVE",
"269 13 OFFCURVE",
"396 13 CURVE SMOOTH",
"559 13 OFFCURVE",
"747 24 OFFCURVE",
"914 48 CURVE",
"914 166 OFFCURVE",
"905 379 OFFCURVE",
"893 439 CURVE",
"746 439 OFFCURVE",
"630 436 OFFCURVE",
"461 426 CURVE",
"467 480 OFFCURVE",
"474 553 OFFCURVE",
"478 617 CURVE SMOOTH",
"497 921 OFFCURVE",
"509 1189 OFFCURVE",
"509 1292 CURVE",
"483 1297 OFFCURVE",
"399 1300 OFFCURVE",
"348 1300 CURVE SMOOTH",
"232 1300 OFFCURVE",
"112 1289 OFFCURVE",
"63 1282 CURVE",
"70 1140 OFFCURVE",
"79 882 OFFCURVE",
"79 633 CURVE SMOOTH",
"79 383 OFFCURVE",
"70 141 OFFCURVE",
"63 31 CURVE"
);
}
);
width = 961;
},
{
anchors = (
{
name = bottom;
position = "{491, 0}";
},
{
name = center;
position = "{491, 646}";
},
{
name = top;
position = "{248, 1296}";
},
{
name = topright;
position = "{584, 1063}";
}
);
layerId = "B5195C1E-69AB-4BC6-9855-DF55601A0735";
paths = (
{
closed = 1;
nodes = (
"313 2 OFFCURVE",
"407 4 OFFCURVE",
"512 9 CURVE SMOOTH",
"610 14 OFFCURVE",
"717 20 OFFCURVE",
"856 31 CURVE",
"860 51 OFFCURVE",
"863 79 OFFCURVE",
"865 106 CURVE",
"677 106 OFFCURVE",
"417 92 OFFCURVE",
"297 85 CURVE",
"299 130 OFFCURVE",
"300 225 OFFCURVE",
"300 347 CURVE SMOOTH",
"300 628 OFFCURVE",
"294 1049 OFFCURVE",
"278 1292 CURVE",
"271 1293 OFFCURVE",
"248 1296 OFFCURVE",
"228 1296 CURVE SMOOTH",
"220 1296 OFFCURVE",
"208 1295 OFFCURVE",
"201 1294 CURVE",
"206 1152 OFFCURVE",
"208 884 OFFCURVE",
"208 624 CURVE SMOOTH",
"208 364 OFFCURVE",
"206 112 OFFCURVE",
"201 2 CURVE"
);
}
);
width = 961;
}
);
leftKerningGroup = H;
rightKerningGroup = L;
unicode = 004C;
},
{
glyphname = Lslash;
lastChange = "2020-07-16 19:53:23 +0000";
layers = (
{
components = (
{
alignment = -1;
name = L;
transform = "{1, 0, 0, 1, 161, 0}";
}
);
layerId = "B5042207-EFBA-41B6-8DFD-104A953B46A6";
paths = (
{
closed = 1;
nodes = (
"266 460 OFFCURVE",
"539 568 OFFCURVE",
"933 828 CURVE",
"925 875 OFFCURVE",
"870 1044 OFFCURVE",
"839 1116 CURVE",
"660 1023 OFFCURVE",
"196 782 OFFCURVE",
"-17 688 CURVE",
"-9 619 OFFCURVE",
"26 456 OFFCURVE",
"41 409 CURVE"
);
}
);
width = 1121;
},
{
components = (
{
alignment = -1;
name = L;
transform = "{1, 0, 0, 1, 161, 0}";
}
);
layerId = "B5195C1E-69AB-4BC6-9855-DF55601A0735";
paths = (
{
closed = 1;
nodes = (
"374 485 OFFCURVE",
"622 702 OFFCURVE",
"819 880 CURVE",
"816 897 OFFCURVE",
"777 937 OFFCURVE",
"763 951 CURVE",
"617 800 OFFCURVE",
"373 583 OFFCURVE",
"134 437 CURVE",
"139 426 OFFCURVE",
"175 386 OFFCURVE",
"187 374 CURVE"
);
}
);
width = 1121;
}
);
leftKerningGroup = H;
rightKerningGroup = L;
unicode = 0141;
},
{
glyphname = M;
lastChange = "2020-06-18 14:30:13 +0000";
layers = (
{
anchors = (
{
name = bottom;
position = "{747, 0}";
},
{
name = top;
position = "{747, 1291}";
}
);
layerId = "B5042207-EFBA-41B6-8DFD-104A953B46A6";
paths = (
{
closed = 1;
nodes = (
"211 7 OFFCURVE",
"381 9 OFFCURVE",
"470 12 CURVE",
"470 32 OFFCURVE",
"467 399 OFFCURVE",
"464 707 CURVE",
"502 552 OFFCURVE",
"592 111 OFFCURVE",
"607 34 CURVE",
"663 28 OFFCURVE",
"704 24 OFFCURVE",
"746 24 CURVE SMOOTH",
"768 24 OFFCURVE",
"825 25 OFFCURVE",
"848 26 CURVE",
"882 106 OFFCURVE",
"1011 475 OFFCURVE",
"1048 606 CURVE",
"1044 555 OFFCURVE",
"1038 443 OFFCURVE",
"1033 329 CURVE SMOOTH",
"1028 205 OFFCURVE",
"1021 80 OFFCURVE",
"1017 24 CURVE",
"1089 19 OFFCURVE",
"1260 9 OFFCURVE",
"1382 9 CURVE",
"1396 178 OFFCURVE",
"1412 466 OFFCURVE",
"1412 725 CURVE SMOOTH",
"1412 926 OFFCURVE",
"1402 1114 OFFCURVE",
"1375 1231 CURVE",
"1262 1250 OFFCURVE",
"1045 1255 OFFCURVE",
"942 1255 CURVE",
"916 1131 OFFCURVE",
"776 610 OFFCURVE",
"741 516 CURVE",
"786 522 LINE",
"768 610 OFFCURVE",
"608 1242 OFFCURVE",
"600 1262 CURVE",
"587 1262 OFFCURVE",
"267 1260 OFFCURVE",
"108 1244 CURVE",
"85 811 OFFCURVE",
"82 222 OFFCURVE",
"82 7 CURVE"
);
}
);
width = 1492;
},
{
anchors = (
{
name = bottom;
position = "{721, 0}";
},
{
name = top;
position = "{721, 1291}";
}
);
layerId = "B5195C1E-69AB-4BC6-9855-DF55601A0735";
paths = (
{
closed = 1;
nodes = (
"204 -22 OFFCURVE",
"246 -19 OFFCURVE",
"267 -17 CURVE",
"267 87 OFFCURVE",
"270 807 OFFCURVE",
"272 1156 CURVE",
"340 954 OFFCURVE",
"629 5 OFFCURVE",
"634 -12 CURVE",
"650 -15 OFFCURVE",
"670 -16 OFFCURVE",
"689 -16 CURVE SMOOTH",
"704 -16 OFFCURVE",
"718 -15 OFFCURVE",
"728 -14 CURVE",
"776 67 OFFCURVE",
"1060 916 OFFCURVE",
"1118 1145 CURVE",
"1121 1049 OFFCURVE",
"1126 786 OFFCURVE",
"1126 593 CURVE SMOOTH",
"1126 384 OFFCURVE",
"1121 174 OFFCURVE",
"1104 -5 CURVE",
"1130 -8 OFFCURVE",
"1168 -10 OFFCURVE",
"1195 -10 CURVE",
"1205 109 OFFCURVE",
"1206 393 OFFCURVE",
"1206 640 CURVE SMOOTH",
"1206 887 OFFCURVE",
"1199 1129 OFFCURVE",
"1173 1260 CURVE",
"1156 1262 OFFCURVE",
"1096 1267 OFFCURVE",
"1068 1267 CURVE",
"1021 1059 OFFCURVE",
"734 194 OFFCURVE",
"677 33 CURVE",
"688 33 LINE",
"678 169 OFFCURVE",
"326 1244 OFFCURVE",
"320 1262 CURVE",
"306 1262 OFFCURVE",
"235 1261 OFFCURVE",
"198 1256 CURVE",
"193 1121 OFFCURVE",
"173 368 OFFCURVE",
"173 -22 CURVE"
);
}
);
width = 1379;
}
);
leftKerningGroup = M;
rightKerningGroup = M;
unicode = 004D;
},
{
glyphname = N;
lastChange = "2020-06-10 19:41:00 +0000";
layers = (
{
anchors = (
{
name = bottom;
position = "{641, 0}";
},
{
name = top;
position = "{641, 1291}";
}
);
layerId = "B5042207-EFBA-41B6-8DFD-104A953B46A6";
paths = (
{
closed = 1;
nodes = (
"513 121 OFFCURVE",
"502 513 OFFCURVE",
"488 617 CURVE",
"639 340 OFFCURVE",
"782 60 OFFCURVE",
"805 14 CURVE",
"855 5 OFFCURVE",
"936 2 OFFCURVE",
"1016 2 CURVE SMOOTH",
"1069 2 OFFCURVE",
"1121 3 OFFCURVE",
"1164 5 CURVE",
"1184 63 OFFCURVE",
"1203 418 OFFCURVE",
"1203 746 CURVE SMOOTH",
"1203 926 OFFCURVE",
"1197 1097 OFFCURVE",
"1183 1207 CURVE",
"1119 1226 OFFCURVE",
"896 1243 OFFCURVE",
"805 1243 CURVE",
"843 572 LINE",
"743 822 OFFCURVE",
"638 1016 OFFCURVE",
"481 1236 CURVE",
"370 1253 OFFCURVE",
"142 1264 OFFCURVE",
"80 1264 CURVE",
"91 1111 OFFCURVE",
"94 825 OFFCURVE",
"94 566 CURVE SMOOTH",
"94 287 OFFCURVE",
"91 39 OFFCURVE",
"89 21 CURVE",
"164 11 OFFCURVE",
"357 -7 OFFCURVE",
"513 -7 CURVE"
);
}
);
width = 1282;
},
{
anchors = (
{
name = bottom;
position = "{641, 0}";
},
{
name = top;
position = "{641, 1291}";
}
);
layerId = "B5195C1E-69AB-4BC6-9855-DF55601A0735";
paths = (
{
closed = 1;
nodes = (
"299 132 OFFCURVE",
"285 1029 OFFCURVE",
"279 1159 CURVE",
"376 1000 OFFCURVE",
"872 132 OFFCURVE",
"947 -2 CURVE",
"958 -3 OFFCURVE",
"968 -3 OFFCURVE",
"980 -3 CURVE SMOOTH",
"992 -3 OFFCURVE",
"1006 -3 OFFCURVE",
"1026 -2 CURVE",
"1029 20 OFFCURVE",
"1030 86 OFFCURVE",
"1030 178 CURVE SMOOTH",
"1030 466 OFFCURVE",
"1018 1010 OFFCURVE",
"1010 1246 CURVE",
"985 1256 OFFCURVE",
"952 1265 OFFCURVE",
"909 1265 CURVE",
"957 147 LINE",
"811 414 OFFCURVE",
"536 916 OFFCURVE",
"307 1265 CURVE",
"291 1269 OFFCURVE",
"227 1274 OFFCURVE",
"198 1274 CURVE",
"197 1246 OFFCURVE",
"197 1179 OFFCURVE",
"197 1091 CURVE SMOOTH",
"197 748 OFFCURVE",
"203 74 OFFCURVE",
"207 -9 CURVE",
"232 -9 OFFCURVE",
"282 -7 OFFCURVE",
"299 -5 CURVE"
);
}
);
width = 1282;
}
);
leftKerningGroup = H;
rightKerningGroup = H;
unicode = 004E;
},
{
glyphname = Eng;
lastChange = "2020-06-18 19:01:55 +0000";
layers = (
{
components = (
{
alignment = -1;
name = N;
}
);
layerId = "B5042207-EFBA-41B6-8DFD-104A953B46A6";
paths = (
{
closed = 1;
nodes = (
"1068 -419 OFFCURVE",
"1160 -210 OFFCURVE",
"1177 91 CURVE",
"773 79 LINE",
"786 52 OFFCURVE",
"799 16 OFFCURVE",
"799 -15 CURVE SMOOTH",
"799 -57 OFFCURVE",
"772 -83 OFFCURVE",
"733 -83 CURVE SMOOTH",
"696 -83 OFFCURVE",
"664 -51 OFFCURVE",
"632 0 CURVE",
"499 -74 OFFCURVE",
"318 -181 OFFCURVE",
"304 -191 CURVE",
"386 -341 OFFCURVE",
"525 -419 OFFCURVE",
"750 -419 CURVE SMOOTH"
);
}
);
width = 1282;
},
{
components = (
{
alignment = -1;
name = N;
}
);
layerId = "B5195C1E-69AB-4BC6-9855-DF55601A0735";
paths = (
{
closed = 1;
nodes = (
"872 -349 OFFCURVE",
"1027 -214 OFFCURVE",
"1027 15 CURVE",
"906 75 LINE",
"922 49 OFFCURVE",
"930 13 OFFCURVE",
"930 -26 CURVE SMOOTH",
"930 -140 OFFCURVE",
"861 -279 OFFCURVE",
"730 -279 CURVE SMOOTH",
"614 -279 OFFCURVE",
"545 -212 OFFCURVE",
"511 -152 CURVE",
"491 -162 OFFCURVE",
"468 -179 OFFCURVE",
"455 -190 CURVE",
"520 -320 OFFCURVE",
"626 -349 OFFCURVE",
"730 -349 CURVE SMOOTH"
);
}
);
width = 1282;
}
);
leftKerningGroup = Eng;
rightKerningGroup = Eng;
unicode = 014A;
},
{
glyphname = O;
lastChange = "2020-06-18 18:46:52 +0000";
layers = (
{
anchors = (
{
name = bottom;
position = "{677, 0}";
},
{
name = center;
position = "{610, 646}";
},
{
name = ogonek;
position = "{917, 0}";
},
{
name = top;
position = "{677, 1291}";
},
{
name = topleft;
position = "{20, 1291}";
},
{
name = topright;
position = "{1001, 1190}";
}
);
layerId = "B5042207-EFBA-41B6-8DFD-104A953B46A6";
paths = (
{
closed = 1;
nodes = (
"1111 -51 OFFCURVE",
"1295 285 OFFCURVE",
"1295 645 CURVE SMOOTH",
"1295 1034 OFFCURVE",
"1102 1320 OFFCURVE",
"668 1320 CURVE SMOOTH",
"277 1320 OFFCURVE",
"41 1032 OFFCURVE",
"41 639 CURVE SMOOTH",
"41 243 OFFCURVE",
"228 -51 OFFCURVE",
"668 -51 CURVE SMOOTH"
);
},
{
closed = 1;
nodes = (
"491 350 OFFCURVE",
"437 474 OFFCURVE",
"437 650 CURVE SMOOTH",
"437 838 OFFCURVE",
"553 995 OFFCURVE",
"692 995 CURVE SMOOTH",
"872 995 OFFCURVE",
"935 856 OFFCURVE",
"935 690 CURVE SMOOTH",
"935 516 OFFCURVE",
"837 350 OFFCURVE",
"675 350 CURVE SMOOTH"
);
}
);
width = 1354;
},
{
anchors = (
{
name = bottom;
position = "{677, 0}";
},
{
name = center;
position = "{620, 646}";
},
{
name = ogonek;
position = "{869, 0}";
},
{
name = top;
position = "{677, 1291}";
},
{
name = topleft;
position = "{20, 1291}";
},
{
name = topright;
position = "{993, 1173}";
}
);
layerId = "B5195C1E-69AB-4BC6-9855-DF55601A0735";
paths = (
{
closed = 1;
nodes = (
"1012 -51 OFFCURVE",
"1172 242 OFFCURVE",
"1172 601 CURVE SMOOTH",
"1172 964 OFFCURVE",
"1042 1320 OFFCURVE",
"653 1320 CURVE SMOOTH",
"296 1320 OFFCURVE",
"137 1032 OFFCURVE",
"137 613 CURVE SMOOTH",
"137 248 OFFCURVE",
"301 -51 OFFCURVE",
"653 -51 CURVE SMOOTH"
);
},
{
closed = 1;
nodes = (
"369 27 OFFCURVE",
"225 294 OFFCURVE",
"225 602 CURVE SMOOTH",
"225 969 OFFCURVE",
"332 1239 OFFCURVE",
"660 1239 CURVE SMOOTH",
"993 1239 OFFCURVE",
"1090 908 OFFCURVE",
"1090 589 CURVE SMOOTH",
"1090 284 OFFCURVE",
"972 27 OFFCURVE",
"644 27 CURVE SMOOTH"
);
}
);
width = 1354;
}
);
leftKerningGroup = O;
rightKerningGroup = O;
unicode = 004F;
},
{
glyphname = Ohorn;
lastChange = "2020-07-16 19:46:58 +0000";
layers = (
{
anchors = (
{
name = bottom;
position = "{677, 0}";
},
{
name = top;
position = "{677, 1291}";
}
);
layerId = "B5195C1E-69AB-4BC6-9855-DF55601A0735";
paths = (
{
closed = 1;
nodes = (
"1012 -51 OFFCURVE",
"1172 242 OFFCURVE",
"1172 601 CURVE SMOOTH",
"1172 964 OFFCURVE",
"1042 1320 OFFCURVE",
"653 1320 CURVE SMOOTH",
"296 1320 OFFCURVE",
"137 1032 OFFCURVE",
"137 613 CURVE SMOOTH",
"137 248 OFFCURVE",
"301 -51 OFFCURVE",
"653 -51 CURVE SMOOTH"
);
},
{
closed = 1;
nodes = (
"369 27 OFFCURVE",
"225 294 OFFCURVE",
"225 602 CURVE SMOOTH",
"225 969 OFFCURVE",
"332 1239 OFFCURVE",
"660 1239 CURVE SMOOTH",
"993 1239 OFFCURVE",
"1090 908 OFFCURVE",
"1090 589 CURVE SMOOTH",
"1090 284 OFFCURVE",
"972 27 OFFCURVE",
"644 27 CURVE SMOOTH"
);
},
{
closed = 1;
nodes = (
"1172 1142 OFFCURVE",
"1254 1256 OFFCURVE",
"1254 1439 CURVE",
"1237 1448 OFFCURVE",
"1191 1455 OFFCURVE",
"1160 1455 CURVE",
"1160 1332 OFFCURVE",
"1135 1206 OFFCURVE",
"953 1204 CURVE",
"962 1142 LINE"
);
}
);
width = 1354;
},
{
anchors = (
{
name = bottom;
position = "{677, 0}";
},
{
name = top;
position = "{677, 1291}";
}
);
layerId = "B5042207-EFBA-41B6-8DFD-104A953B46A6";
paths = (
{
closed = 1;
nodes = (
"1111 -51 OFFCURVE",
"1295 285 OFFCURVE",
"1295 645 CURVE SMOOTH",
"1295 1034 OFFCURVE",
"1102 1320 OFFCURVE",
"668 1320 CURVE SMOOTH",
"277 1320 OFFCURVE",
"41 1032 OFFCURVE",
"41 639 CURVE SMOOTH",
"41 243 OFFCURVE",
"228 -51 OFFCURVE",
"668 -51 CURVE SMOOTH"
);
},
{
closed = 1;
nodes = (
"491 350 OFFCURVE",
"437 474 OFFCURVE",
"437 650 CURVE SMOOTH",
"437 838 OFFCURVE",
"553 995 OFFCURVE",
"692 995 CURVE SMOOTH",
"872 995 OFFCURVE",
"935 856 OFFCURVE",
"935 690 CURVE SMOOTH",
"935 516 OFFCURVE",
"837 350 OFFCURVE",
"675 350 CURVE SMOOTH"
);
},
{
closed = 1;
nodes = (
"1265 1043 OFFCURVE",
"1438 1163 OFFCURVE",
"1438 1412 CURVE",
"1413 1440 OFFCURVE",
"1260 1470 OFFCURVE",
"1141 1470 CURVE",
"1141 1312 OFFCURVE",
"1030 1220 OFFCURVE",
"889 1220 CURVE",
"1083 1043 LINE"
);
}
);
width = 1354;
}
);
leftKerningGroup = O;
rightKerningGroup = O;
unicode = 01A0;
},
{
glyphname = Oogonek;
lastChange = "2020-07-08 16:43:04 +0000";
layers = (
{
components = (
{
name = O;
}
);
layerId = "B5195C1E-69AB-4BC6-9855-DF55601A0735";
paths = (
{
closed = 1;
nodes = (
"1004 -358 OFFCURVE",
"955 -378 OFFCURVE",
"861 -378 CURVE SMOOTH",
"771 -378 OFFCURVE",
"714 -347 OFFCURVE",
"714 -245 CURVE SMOOTH",
"714 -132 OFFCURVE",
"854 -8 OFFCURVE",
"956 45 CURVE",
"891 90 LINE",
"762 21 OFFCURVE",
"628 -109 OFFCURVE",
"628 -252 CURVE SMOOTH",
"628 -381 OFFCURVE",
"708 -458 OFFCURVE",
"845 -458 CURVE SMOOTH",
"949 -458 OFFCURVE",
"1021 -436 OFFCURVE",
"1077 -412 CURVE",
"1077 -325 LINE"
);
}
);
width = 1354;
},
{
components = (
{
name = O;
}
);
layerId = "B5042207-EFBA-41B6-8DFD-104A953B46A6";
paths = (
{
closed = 1;
nodes = (
"1135 -207 OFFCURVE",
"1090 -216 OFFCURVE",
"1047 -216 CURVE SMOOTH",
"994 -216 OFFCURVE",
"940 -192 OFFCURVE",
"940 -120 CURVE SMOOTH",
"940 -40 OFFCURVE",
"1015 44 OFFCURVE",
"1060 75 CURVE",
"924 133 LINE",
"859 114 OFFCURVE",
"677 -37 OFFCURVE",
"677 -209 CURVE SMOOTH",
"677 -376 OFFCURVE",
"821 -461 OFFCURVE",
"979 -461 CURVE SMOOTH",
"1083 -461 OFFCURVE",
"1145 -448 OFFCURVE",
"1174 -436 CURVE",
"1174 -179 LINE"
);
}
);
width = 1354;
}
);
unicode = 01EA;
},
{
glyphname = Oslash;
lastChange = "2020-07-03 19:52:39 +0000";
layers = (
{
anchors = (
{
name = bottom;
position = "{677, 0}";
},
{
name = top;
position = "{608, 1349}";
}
);
components = (
{
name = O;
}
);
layerId = "B5042207-EFBA-41B6-8DFD-104A953B46A6";
paths = (
{
closed = 1;
nodes = (
"888 1419 CURVE",
"755 869 OFFCURVE",
"374 328 OFFCURVE",
"93 10 CURVE",
"157 -54 OFFCURVE",
"232 -97 OFFCURVE",
"343 -122 CURVE",
"576 143 OFFCURVE",
"960 631 OFFCURVE",
"1151 1301 CURVE",
"1106 1354 OFFCURVE",
"1013 1408 OFFCURVE"
);
}
);
width = 1354;
},
{
anchors = (
{
name = bottom;
position = "{677, 0}";
},
{
name = top;
position = "{653, 1320}";
}
);
components = (
{
name = O;
}
);
layerId = "B5195C1E-69AB-4BC6-9855-DF55601A0735";
paths = (
{
closed = 1;
nodes = (
"1004 1327 CURVE",
"795 788 OFFCURVE",
"410 268 OFFCURVE",
"153 -51 CURVE",
"168 -59 OFFCURVE",
"208 -75 OFFCURVE",
"228 -81 CURVE",
"430 148 OFFCURVE",
"821 672 OFFCURVE",
"1089 1291 CURVE",
"1072 1306 OFFCURVE",
"1035 1320 OFFCURVE"
);
}
);
width = 1354;
}
);
leftKerningGroup = O;
rightKerningGroup = O;
unicode = 00D8;
},
{
glyphname = OE;
lastChange = "2020-07-03 19:51:27 +0000";
layers = (
{
anchors = (
{
name = bottom;
position = "{943, 0}";
},
{
name = top;
position = "{985, 1291}";
}
);
layerId = "B5042207-EFBA-41B6-8DFD-104A953B46A6";
paths = (
{
closed = 1;
nodes = (
"790 -51 OFFCURVE",
"975 13 OFFCURVE",
"1015 71 CURVE",
"986 80 LINE",
"986 59 OFFCURVE",
"988 28 OFFCURVE",
"990 7 CURVE",
"1047 7 OFFCURVE",
"1215 4 OFFCURVE",
"1316 -2 CURVE SMOOTH",
"1438 -9 OFFCURVE",
"1560 -17 OFFCURVE",
"1682 -25 CURVE",
"1694 12 OFFCURVE",
"1721 257 OFFCURVE",
"1721 390 CURVE",
"1672 394 OFFCURVE",
"1592 400 OFFCURVE",
"1510 400 CURVE SMOOTH",
"1447 400 OFFCURVE",
"1384 400 OFFCURVE",
"1321 400 CURVE",
"1321 422 OFFCURVE",
"1324 500 OFFCURVE",
"1326 527 CURVE",
"1361 527 OFFCURVE",
"1602 513 OFFCURVE",
"1646 510 CURVE",
"1653 850 LINE",
"1566 848 OFFCURVE",
"1414 845 OFFCURVE",
"1335 845 CURVE",
"1335 864 OFFCURVE",
"1335 951 OFFCURVE",
"1338 968 CURVE",
"1711 999 LINE",
"1721 1113 OFFCURVE",
"1729 1216 OFFCURVE",
"1729 1320 CURVE",
"1676 1320 OFFCURVE",
"1362 1318 OFFCURVE",
"992 1249 CURVE",
"988 1230 OFFCURVE",
"985 1192 OFFCURVE",
"984 1163 CURVE",
"998 1163 LINE",
"989 1235 OFFCURVE",
"863 1320 OFFCURVE",
"668 1320 CURVE SMOOTH",
"277 1320 OFFCURVE",
"41 1032 OFFCURVE",
"41 639 CURVE SMOOTH",
"41 243 OFFCURVE",
"228 -51 OFFCURVE",
"668 -51 CURVE SMOOTH"
);
},
{
closed = 1;
nodes = (
"491 350 OFFCURVE",
"437 474 OFFCURVE",
"437 650 CURVE SMOOTH",
"437 838 OFFCURVE",
"553 995 OFFCURVE",
"692 995 CURVE SMOOTH",
"872 995 OFFCURVE",
"935 856 OFFCURVE",
"935 690 CURVE SMOOTH",
"935 516 OFFCURVE",
"837 350 OFFCURVE",
"675 350 CURVE SMOOTH"
);
}
);
width = 1824;
},
{
anchors = (
{
name = bottom;
position = "{1028, 0}";
},
{
name = top;
position = "{1028, 1291}";
}
);
layerId = "B5195C1E-69AB-4BC6-9855-DF55601A0735";
paths = (
{
closed = 1;
nodes = (
"884 -51 OFFCURVE",
"1032 70 OFFCURVE",
"1108 251 CURVE",
"1098 253 LINE",
"1098 166 OFFCURVE",
"1101 79 OFFCURVE",
"1104 -8 CURVE",
"1167 -6 OFFCURVE",
"1249 -5 OFFCURVE",
"1312 -5 CURVE SMOOTH",
"1472 -5 OFFCURVE",
"1611 -10 OFFCURVE",
"1768 -19 CURVE",
"1773 -1 OFFCURVE",
"1779 29 OFFCURVE",
"1781 57 CURVE",
"1705 63 OFFCURVE",
"1519 70 OFFCURVE",
"1360 70 CURVE SMOOTH",
"1307 70 OFFCURVE",
"1220 69 OFFCURVE",
"1180 67 CURVE",
"1180 271 OFFCURVE",
"1180 476 OFFCURVE",
"1180 680 CURVE",
"1266 683 OFFCURVE",
"1685 684 OFFCURVE",
"1735 684 CURVE",
"1727 762 LINE",
"1635 762 OFFCURVE",
"1255 750 OFFCURVE",
"1182 747 CURVE",
"1182 832 OFFCURVE",
"1185 1099 OFFCURVE",
"1190 1187 CURVE",
"1781 1234 LINE",
"1784 1261 OFFCURVE",
"1785 1274 OFFCURVE",
"1785 1308 CURVE",
"1730 1308 OFFCURVE",
"1443 1289 OFFCURVE",
"1104 1241 CURVE",
"1101 1202 OFFCURVE",
"1097 1102 OFFCURVE",
"1097 980 CURVE",
"1102 999 LINE",
"1070 1169 OFFCURVE",
"893 1320 OFFCURVE",
"653 1320 CURVE SMOOTH",
"296 1320 OFFCURVE",
"137 1032 OFFCURVE",
"137 613 CURVE SMOOTH",
"137 248 OFFCURVE",
"301 -51 OFFCURVE",
"653 -51 CURVE SMOOTH"
);
},
{
closed = 1;
nodes = (
"369 27 OFFCURVE",
"225 294 OFFCURVE",
"225 602 CURVE SMOOTH",
"225 969 OFFCURVE",
"332 1239 OFFCURVE",
"660 1239 CURVE SMOOTH",
"993 1239 OFFCURVE",
"1090 908 OFFCURVE",
"1090 589 CURVE SMOOTH",
"1090 284 OFFCURVE",
"972 27 OFFCURVE",
"644 27 CURVE SMOOTH"
);
}
);
width = 1904;
}
);
leftKerningGroup = O;
leftMetricsKey = O;
rightKerningGroup = E;
rightMetricsKey = E;
unicode = 0152;
},
{
glyphname = P;
lastChange = "2020-06-17 14:59:22 +0000";
layers = (
{
anchors = (
{
name = bottom;
position = "{505, 0}";
},
{
name = top;
position = "{505, 1291}";
}
);
layerId = "B5042207-EFBA-41B6-8DFD-104A953B46A6";
paths = (
{
closed = 1;
nodes = (
"139 -10 OFFCURVE",
"377 -14 OFFCURVE",
"453 -14 CURVE",
"456 75 OFFCURVE",
"465 421 OFFCURVE",
"465 491 CURVE",
"480 482 OFFCURVE",
"538 474 OFFCURVE",
"568 474 CURVE SMOOTH",
"850 474 OFFCURVE",
"978 656 OFFCURVE",
"978 911 CURVE SMOOTH",
"978 1179 OFFCURVE",
"785 1292 OFFCURVE",
"511 1292 CURVE SMOOTH",
"368 1292 OFFCURVE",
"226 1283 OFFCURVE",
"94 1256 CURVE",
"70 1087 OFFCURVE",
"51 25 OFFCURVE",
"51 -4 CURVE"
);
},
{
closed = 1;
nodes = (
"456 849 OFFCURVE",
"452 986 OFFCURVE",
"451 1003 CURVE",
"477 1006 OFFCURVE",
"505 1009 OFFCURVE",
"532 1009 CURVE SMOOTH",
"604 1009 OFFCURVE",
"649 990 OFFCURVE",
"649 915 CURVE SMOOTH",
"649 849 OFFCURVE",
"595 804 OFFCURVE",
"521 804 CURVE SMOOTH",
"501 804 OFFCURVE",
"473 807 OFFCURVE",
"456 811 CURVE"
);
}
);
width = 1010;
},
{
anchors = (
{
name = bottom;
position = "{505, 0}";
},
{
name = top;
position = "{505, 1291}";
}
);
layerId = "B5195C1E-69AB-4BC6-9855-DF55601A0735";
paths = (
{
closed = 1;
nodes = (
"150 -27 OFFCURVE",
"191 -28 OFFCURVE",
"219 -28 CURVE",
"219 282 OFFCURVE",
"230 579 OFFCURVE",
"235 668 CURVE",
"303 660 OFFCURVE",
"371 657 OFFCURVE",
"432 657 CURVE SMOOTH",
"703 657 OFFCURVE",
"865 743 OFFCURVE",
"865 1000 CURVE SMOOTH",
"865 1196 OFFCURVE",
"732 1284 OFFCURVE",
"497 1284 CURVE SMOOTH",
"350 1284 OFFCURVE",
"253 1265 OFFCURVE",
"171 1248 CURVE",
"156 925 OFFCURVE",
"130 360 OFFCURVE",
"130 -26 CURVE"
);
},
{
closed = 1;
nodes = (
"241 785 OFFCURVE",
"253 1168 OFFCURVE",
"253 1193 CURVE",
"358 1207 OFFCURVE",
"440 1213 OFFCURVE",
"506 1213 CURVE SMOOTH",
"674 1213 OFFCURVE",
"788 1157 OFFCURVE",
"788 988 CURVE SMOOTH",
"788 778 OFFCURVE",
"616 730 OFFCURVE",
"451 730 CURVE SMOOTH",
"374 730 OFFCURVE",
"299 738 OFFCURVE",
"239 747 CURVE"
);
}
);
width = 1010;
}
);
leftKerningGroup = H;
rightKerningGroup = P;
unicode = 0050;
},
{
glyphname = Thorn;
lastChange = "2020-06-17 20:11:47 +0000";
layers = (
{
layerId = "B5042207-EFBA-41B6-8DFD-104A953B46A6";
paths = (
{
closed = 1;
nodes = (
"217 1282 OFFCURVE",
"68 1265 OFFCURVE",
"48 1262 CURVE",
"66 1017 OFFCURVE",
"79 191 OFFCURVE",
"79 -22 CURVE",
"206 -22 OFFCURVE",
"405 -12 OFFCURVE",
"506 7 CURVE",
"506 234 OFFCURVE",
"444 1046 OFFCURVE",
"409 1282 CURVE"
);
},
{
closed = 1;
nodes = (
"456 755 OFFCURVE",
"556 791 OFFCURVE",
"684 791 CURVE SMOOTH",
"797 791 OFFCURVE",
"878 763 OFFCURVE",
"878 672 CURVE SMOOTH",
"878 571 OFFCURVE",
"772 547 OFFCURVE",
"631 547 CURVE SMOOTH",
"549 547 OFFCURVE",
"468 555 OFFCURVE",
"419 561 CURVE",
"405 209 LINE",
"479 199 OFFCURVE",
"556 194 OFFCURVE",
"633 194 CURVE SMOOTH",
"945 194 OFFCURVE",
"1253 299 OFFCURVE",
"1253 632 CURVE SMOOTH",
"1253 983 OFFCURVE",
"971 1129 OFFCURVE",
"652 1129 CURVE SMOOTH",
"535 1129 OFFCURVE",
"416 1103 OFFCURVE",
"351 1083 CURVE",
"393 727 LINE"
);
}
);
width = 1316;
},
{
layerId = "B5195C1E-69AB-4BC6-9855-DF55601A0735";
paths = (
{
closed = 1;
nodes = (
"225 1282 OFFCURVE",
"195 1280 OFFCURVE",
"174 1277 CURVE",
"195 990 OFFCURVE",
"205 154 OFFCURVE",
"205 -22 CURVE",
"221 -22 OFFCURVE",
"282 -22 OFFCURVE",
"311 -21 CURVE",
"311 232 OFFCURVE",
"273 990 OFFCURVE",
"248 1282 CURVE"
);
},
{
closed = 1;
nodes = (
"350 931 OFFCURVE",
"468 945 OFFCURVE",
"585 945 CURVE SMOOTH",
"862 945 OFFCURVE",
"1026 867 OFFCURVE",
"1026 674 CURVE SMOOTH",
"1026 454 OFFCURVE",
"896 361 OFFCURVE",
"562 361 CURVE SMOOTH",
"462 361 OFFCURVE",
"354 370 OFFCURVE",
"241 385 CURVE",
"227 299 LINE",
"332 286 OFFCURVE",
"444 278 OFFCURVE",
"553 278 CURVE SMOOTH",
"906 278 OFFCURVE",
"1118 366 OFFCURVE",
"1118 670 CURVE SMOOTH",
"1118 946 OFFCURVE",
"896 1029 OFFCURVE",
"638 1029 CURVE SMOOTH",
"509 1029 OFFCURVE",
"376 1015 OFFCURVE",
"254 995 CURVE",
"254 906 LINE"
);
}
);
width = 1316;
}
);
leftKerningGroup = H;
rightKerningGroup = Thorn;
unicode = 00DE;
},
{
glyphname = Q;
lastChange = "2020-06-10 19:29:54 +0000";
layers = (
{
anchors = (
{
name = bottom;
position = "{646, 0}";
},
{
name = top;
position = "{646, 1291}";
}
);
layerId = "B5042207-EFBA-41B6-8DFD-104A953B46A6";
paths = (
{
closed = 1;
nodes = (
"1146 -137 OFFCURVE",
"1234 -58 OFFCURVE",
"1283 14 CURVE",
"1213 50 OFFCURVE",
"1125 107 OFFCURVE",
"1074 174 CURVE",
"1222 284 OFFCURVE",
"1244 475 OFFCURVE",
"1244 685 CURVE SMOOTH",
"1244 1043 OFFCURVE",
"1063 1299 OFFCURVE",
"651 1299 CURVE SMOOTH",
"273 1299 OFFCURVE",
"21 1020 OFFCURVE",
"21 612 CURVE SMOOTH",
"21 252 OFFCURVE",
"265 -21 OFFCURVE",
"613 -21 CURVE SMOOTH",
"703 -21 OFFCURVE",
"788 8 OFFCURVE",
"821 29 CURVE",
"850 -18 OFFCURVE",
"1009 -158 OFFCURVE",
"1074 -187 CURVE"
);
},
{
closed = 1;
nodes = (
"649 326 OFFCURVE",
"638 323 OFFCURVE",
"610 323 CURVE SMOOTH",
"460 323 OFFCURVE",
"394 523 OFFCURVE",
"394 680 CURVE SMOOTH",
"394 866 OFFCURVE",
"493 986 OFFCURVE",
"667 986 CURVE SMOOTH",
"835 986 OFFCURVE",
"905 859 OFFCURVE",
"905 644 CURVE SMOOTH",
"905 517 OFFCURVE",
"896 454 OFFCURVE",
"883 433 CURVE",
"854 475 OFFCURVE",
"825 548 OFFCURVE",
"808 598 CURVE",
"738 558 OFFCURVE",
"629 489 OFFCURVE",
"585 454 CURVE",
"595 419 OFFCURVE",
"640 342 OFFCURVE",
"653 328 CURVE"
);
}
);
width = 1291;
},
{
anchors = (
{
name = bottom;
position = "{646, 0}";
},
{
name = top;
position = "{646, 1291}";
}
);
layerId = "B5195C1E-69AB-4BC6-9855-DF55601A0735";
paths = (
{
closed = 1;
nodes = (
"1134 -5 OFFCURVE",
"1146 37 OFFCURVE",
"1153 63 CURVE",
"1072 83 OFFCURVE",
"991 122 OFFCURVE",
"936 169 CURVE",
"1018 269 OFFCURVE",
"1074 430 OFFCURVE",
"1074 608 CURVE SMOOTH",
"1074 1012 OFFCURVE",
"921 1299 OFFCURVE",
"574 1299 CURVE SMOOTH",
"262 1299 OFFCURVE",
"130 986 OFFCURVE",
"130 654 CURVE SMOOTH",
"130 320 OFFCURVE",
"260 8 OFFCURVE",
"585 8 CURVE SMOOTH",
"770 8 OFFCURVE",
"851 84 OFFCURVE",
"876 113 CURVE",
"914 82 OFFCURVE",
"1064 -11 OFFCURVE",
"1121 -31 CURVE"
);
},
{
closed = 1;
nodes = (
"796 135 OFFCURVE",
"731 80 OFFCURVE",
"603 80 CURVE SMOOTH",
"315 80 OFFCURVE",
"220 332 OFFCURVE",
"220 647 CURVE SMOOTH",
"220 961 OFFCURVE",
"335 1226 OFFCURVE",
"576 1226 CURVE SMOOTH",
"868 1226 OFFCURVE",
"991 951 OFFCURVE",
"991 617 CURVE SMOOTH",
"991 454 OFFCURVE",
"944 311 OFFCURVE",
"872 208 CURVE",
"779 292 OFFCURVE",
"700 430 OFFCURVE",
"656 518 CURVE",
"643 509 OFFCURVE",
"607 477 OFFCURVE",
"596 465 CURVE",
"649 363 OFFCURVE",
"740 227 OFFCURVE",
"818 160 CURVE"
);
}
);
width = 1291;
}
);
leftKerningGroup = O;
rightKerningGroup = O;
unicode = 0051;
},
{
glyphname = Q.ss01;
lastChange = "2020-06-17 20:14:50 +0000";
layers = (
{
anchors = (
{
name = bottom;
position = "{646, 0}";
},
{
name = top;
position = "{646, 1291}";
}
);
layerId = "B5042207-EFBA-41B6-8DFD-104A953B46A6";
paths = (
{
closed = 1;
nodes = (
"1243 -202 OFFCURVE",
"1308 -16 OFFCURVE",
"1311 11 CURVE",
"1284 13 OFFCURVE",
"1169 74 OFFCURVE",
"1109 173 CURVE",
"1207 251 OFFCURVE",
"1240 436 OFFCURVE",
"1240 623 CURVE SMOOTH",
"1240 1041 OFFCURVE",
"1047 1282 OFFCURVE",
"619 1282 CURVE SMOOTH",
"228 1282 OFFCURVE",
"24 1018 OFFCURVE",
"24 607 CURVE SMOOTH",
"24 190 OFFCURVE",
"254 -26 OFFCURVE",
"682 -26 CURVE SMOOTH",
"732 -26 OFFCURVE",
"770 -18 OFFCURVE",
"801 -7 CURVE",
"819 -101 OFFCURVE",
"949 -279 OFFCURVE",
"1130 -335 CURVE"
);
},
{
closed = 1;
nodes = (
"459 338 OFFCURVE",
"380 448 OFFCURVE",
"380 616 CURVE SMOOTH",
"380 825 OFFCURVE",
"455 969 OFFCURVE",
"668 969 CURVE SMOOTH",
"853 969 OFFCURVE",
"903 841 OFFCURVE",
"903 652 CURVE SMOOTH",
"903 441 OFFCURVE",
"832 338 OFFCURVE",
"615 338 CURVE SMOOTH"
);
}
);
width = 1291;
},
{
anchors = (
{
name = bottom;
position = "{646, 0}";
},
{
name = top;
position = "{646, 1291}";
}
);
layerId = "B5195C1E-69AB-4BC6-9855-DF55601A0735";
paths = (
{
closed = 1;
nodes = (
"1095 -160 OFFCURVE",
"1145 -110 OFFCURVE",
"1161 -89 CURVE",
"1041 -38 OFFCURVE",
"926 120 OFFCURVE",
"913 144 CURVE",
"1007 240 OFFCURVE",
"1064 418 OFFCURVE",
"1064 634 CURVE SMOOTH",
"1064 1002 OFFCURVE",
"898 1299 OFFCURVE",
"574 1299 CURVE SMOOTH",
"270 1299 OFFCURVE",
"118 978 OFFCURVE",
"118 644 CURVE SMOOTH",
"118 313 OFFCURVE",
"276 -10 OFFCURVE",
"578 -10 CURVE SMOOTH",
"680 -10 OFFCURVE",
"783 16 OFFCURVE",
"855 90 CURVE",
"909 -20 OFFCURVE",
"1010 -118 OFFCURVE",
"1084 -169 CURVE"
);
},
{
closed = 1;
nodes = (
"348 74 OFFCURVE",
"206 346 OFFCURVE",
"206 625 CURVE SMOOTH",
"206 938 OFFCURVE",
"320 1210 OFFCURVE",
"576 1210 CURVE SMOOTH",
"908 1210 OFFCURVE",
"979 843 OFFCURVE",
"979 650 CURVE SMOOTH",
"979 369 OFFCURVE",
"851 74 OFFCURVE",
"603 74 CURVE SMOOTH"
);
}
);
width = 1291;
}
);
leftKerningGroup = Q.ss01;
rightKerningGroup = Q.ss01;
},
{
glyphname = R;
lastChange = "2020-06-17 15:01:48 +0000";
layers = (
{
anchors = (
{
name = bottom;
position = "{547, 0}";
},
{
name = top;
position = "{504, 1331}";
}
);
layerId = "B5042207-EFBA-41B6-8DFD-104A953B46A6";
paths = (
{
closed = 1;
nodes = (
"234 -24 OFFCURVE",
"410 -20 OFFCURVE",
"510 2 CURVE",
"510 130 OFFCURVE",
"485 469 OFFCURVE",
"472 561 CURVE",
"499 562 OFFCURVE",
"510 564 OFFCURVE",
"537 569 CURVE",
"568 478 OFFCURVE",
"675 77 OFFCURVE",
"696 -21 CURVE",
"716 -19 OFFCURVE",
"986 30 OFFCURVE",
"1084 89 CURVE",
"1049 194 OFFCURVE",
"927 504 OFFCURVE",
"850 653 CURVE",
"955 710 OFFCURVE",
"1038 846 OFFCURVE",
"1038 984 CURVE SMOOTH",
"1038 1271 OFFCURVE",
"784 1331 OFFCURVE",
"574 1331 CURVE SMOOTH",
"424 1331 OFFCURVE",
"145 1313 OFFCURVE",
"34 1303 CURVE",
"52 899 OFFCURVE",
"84 277 OFFCURVE",
"101 -24 CURVE"
);
},
{
closed = 1;
nodes = (
"433 903 OFFCURVE",
"425 981 OFFCURVE",
"418 1038 CURVE",
"440 1041 OFFCURVE",
"487 1047 OFFCURVE",
"530 1047 CURVE SMOOTH",
"634 1047 OFFCURVE",
"692 1043 OFFCURVE",
"692 972 CURVE SMOOTH",
"692 907 OFFCURVE",
"636 875 OFFCURVE",
"548 863 CURVE SMOOTH",
"497 856 OFFCURVE",
"466 855 OFFCURVE",
"436 855 CURVE"
);
}
);
width = 1094;
},
{
anchors = (
{
name = bottom;
position = "{547, 0}";
},
{
name = top;
position = "{489, 1317}";
}
);
layerId = "B5195C1E-69AB-4BC6-9855-DF55601A0735";
paths = (
{
closed = 1;
nodes = (
"251 -29 OFFCURVE",
"301 -27 OFFCURVE",
"321 -24 CURVE",
"306 149 OFFCURVE",
"279 586 OFFCURVE",
"277 622 CURVE",
"323 622 OFFCURVE",
"486 638 OFFCURVE",
"592 668 CURVE",
"645 567 OFFCURVE",
"793 228 OFFCURVE",
"835 -15 CURVE",
"855 -14 OFFCURVE",
"897 7 OFFCURVE",
"916 22 CURVE",
"884 176 OFFCURVE",
"738 582 OFFCURVE",
"661 695 CURVE",
"811 746 OFFCURVE",
"866 872 OFFCURVE",
"866 1009 CURVE SMOOTH",
"866 1264 OFFCURVE",
"693 1321 OFFCURVE",
"500 1321 CURVE SMOOTH",
"385 1321 OFFCURVE",
"238 1311 OFFCURVE",
"152 1303 CURVE",
"177 882 OFFCURVE",
"206 266 OFFCURVE",
"219 -29 CURVE"
);
},
{
closed = 1;
nodes = (
"270 748 OFFCURVE",
"236 1178 OFFCURVE",
"232 1236 CURVE",
"260 1239 OFFCURVE",
"446 1253 OFFCURVE",
"489 1253 CURVE SMOOTH",
"638 1253 OFFCURVE",
"785 1227 OFFCURVE",
"785 1008 CURVE SMOOTH",
"785 868 OFFCURVE",
"755 783 OFFCURVE",
"504 725 CURVE SMOOTH",
"417 705 OFFCURVE",
"349 700 OFFCURVE",
"274 700 CURVE"
);
}
);
width = 1094;
}
);
leftKerningGroup = H;
rightKerningGroup = R;
unicode = 0052;
},
{
glyphname = S;
lastChange = "2020-06-17 15:02:38 +0000";
layers = (
{
anchors = (
{
name = bottom;
position = "{576, 0}";
},
{
name = top;
position = "{530, 1339}";
}
);
layerId = "B5042207-EFBA-41B6-8DFD-104A953B46A6";
paths = (
{
closed = 1;
nodes = (
"846 -18 OFFCURVE",
"1075 150 OFFCURVE",
"1075 427 CURVE SMOOTH",
"1075 702 OFFCURVE",
"843 790 OFFCURVE",
"562 891 CURVE SMOOTH",
"477 921 OFFCURVE",
"452 954 OFFCURVE",
"452 990 CURVE SMOOTH",
"452 1039 OFFCURVE",
"505 1056 OFFCURVE",
"559 1056 CURVE SMOOTH",
"621 1056 OFFCURVE",
"725 1017 OFFCURVE",
"821 928 CURVE",
"884 984 OFFCURVE",
"1006 1108 OFFCURVE",
"1042 1161 CURVE",
"904 1313 OFFCURVE",
"724 1349 OFFCURVE",
"555 1349 CURVE SMOOTH",
"297 1349 OFFCURVE",
"62 1216 OFFCURVE",
"62 971 CURVE SMOOTH",
"62 743 OFFCURVE",
"269 650 OFFCURVE",
"511 547 CURVE SMOOTH",
"653 487 OFFCURVE",
"682 428 OFFCURVE",
"682 385 CURVE SMOOTH",
"682 334 OFFCURVE",
"658 287 OFFCURVE",
"583 287 CURVE SMOOTH",
"475 287 OFFCURVE",
"388 347 OFFCURVE",
"282 460 CURVE",
"212 426 OFFCURVE",
"36 271 OFFCURVE",
"19 240 CURVE",
"150 31 OFFCURVE",
"389 -18 OFFCURVE",
"556 -18 CURVE SMOOTH"
);
}
);
width = 1152;
},
{
anchors = (
{
name = bottom;
position = "{576, 0}";
},
{
name = top;
position = "{518, 1319}";
}
);
layerId = "B5195C1E-69AB-4BC6-9855-DF55601A0735";
paths = (
{
closed = 1;
nodes = (
"871 -9 OFFCURVE",
"1014 212 OFFCURVE",
"1014 393 CURVE SMOOTH",
"1014 649 OFFCURVE",
"758 720 OFFCURVE",
"504 788 CURVE SMOOTH",
"381 821 OFFCURVE",
"198 873 OFFCURVE",
"198 1034 CURVE SMOOTH",
"198 1177 OFFCURVE",
"304 1275 OFFCURVE",
"485 1275 CURVE SMOOTH",
"738 1275 OFFCURVE",
"874 1145 OFFCURVE",
"904 1103 CURVE",
"915 1113 OFFCURVE",
"938 1154 OFFCURVE",
"944 1171 CURVE",
"921 1215 OFFCURVE",
"738 1349 OFFCURVE",
"506 1349 CURVE SMOOTH",
"293 1349 OFFCURVE",
"116 1257 OFFCURVE",
"116 1060 CURVE SMOOTH",
"116 858 OFFCURVE",
"255 769 OFFCURVE",
"487 711 CURVE SMOOTH",
"698 658 OFFCURVE",
"930 581 OFFCURVE",
"930 392 CURVE SMOOTH",
"930 248 OFFCURVE",
"822 72 OFFCURVE",
"560 72 CURVE SMOOTH",
"300 72 OFFCURVE",
"136 311 OFFCURVE",
"108 376 CURVE",
"89 362 OFFCURVE",
"56 335 OFFCURVE",
"39 318 CURVE",
"79 227 OFFCURVE",
"274 -9 OFFCURVE",
"573 -9 CURVE SMOOTH"
);
}
);
width = 1152;
}
);
leftKerningGroup = S;
rightKerningGroup = S;
unicode = 0053;
},
{
glyphname = Scedilla;
lastChange = "2020-07-08 20:01:26 +0000";
layers = (
{
components = (
{
name = S;
}
);
layerId = "B5195C1E-69AB-4BC6-9855-DF55601A0735";
paths = (
{
closed = 1;
nodes = (
"792 -462 OFFCURVE",
"905 -396 OFFCURVE",
"905 -255 CURVE SMOOTH",
"905 -144 OFFCURVE",
"830 -87 OFFCURVE",
"725 -87 CURVE SMOOTH",
"677 -87 OFFCURVE",
"614 -106 OFFCURVE",
"597 -119 CURVE",
"618 39 LINE",
"546 43 LINE",
"510 -212 LINE",
"551 -194 OFFCURVE",
"649 -159 OFFCURVE",
"707 -159 CURVE SMOOTH",
"789 -159 OFFCURVE",
"816 -198 OFFCURVE",
"816 -267 CURVE SMOOTH",
"816 -359 OFFCURVE",
"725 -392 OFFCURVE",
"577 -392 CURVE SMOOTH",
"526 -392 OFFCURVE",
"450 -374 OFFCURVE",
"411 -364 CURVE",
"393 -437 LINE",
"413 -444 OFFCURVE",
"478 -462 OFFCURVE",
"582 -462 CURVE SMOOTH"
);
}
);
width = 1152;
},
{
components = (
{
name = S;
}
);
layerId = "B5042207-EFBA-41B6-8DFD-104A953B46A6";
paths = (
{
closed = 1;
nodes = (
"777 -527 OFFCURVE",
"995 -443 OFFCURVE",
"995 -258 CURVE SMOOTH",
"995 -125 OFFCURVE",
"920 -67 OFFCURVE",
"814 -67 CURVE SMOOTH",
"744 -67 OFFCURVE",
"688 -95 OFFCURVE",
"664 -129 CURVE",
"698 39 LINE",
"479 27 LINE",
"413 -247 LINE",
"448 -234 OFFCURVE",
"531 -219 OFFCURVE",
"608 -219 CURVE SMOOTH",
"675 -219 OFFCURVE",
"729 -230 OFFCURVE",
"729 -266 CURVE SMOOTH",
"729 -306 OFFCURVE",
"664 -327 OFFCURVE",
"546 -327 CURVE SMOOTH",
"513 -327 OFFCURVE",
"429 -315 OFFCURVE",
"400 -302 CURVE",
"336 -505 LINE",
"356 -510 OFFCURVE",
"438 -527 OFFCURVE",
"543 -527 CURVE SMOOTH"
);
}
);
width = 1152;
}
);
unicode = 015E;
},
{
glyphname = Germandbls;
lastChange = "2020-06-17 20:15:13 +0000";
layers = (
{
layerId = "B5195C1E-69AB-4BC6-9855-DF55601A0735";
paths = (
{
closed = 1;
nodes = (
"210 2 OFFCURVE",
"256 7 OFFCURVE",
"267 9 CURVE",
"260 103 OFFCURVE",
"250 672 OFFCURVE",
"250 933 CURVE SMOOTH",
"250 1138 OFFCURVE",
"253 1260 OFFCURVE",
"449 1260 CURVE SMOOTH",
"612 1260 OFFCURVE",
"896 1239 OFFCURVE",
"957 1229 CURVE",
"874 1165 OFFCURVE",
"583 937 OFFCURVE",
"474 817 CURVE",
"474 778 OFFCURVE",
"487 740 OFFCURVE",
"509 701 CURVE",
"572 714 OFFCURVE",
"628 721 OFFCURVE",
"677 721 CURVE SMOOTH",
"862 721 OFFCURVE",
"1003 611 OFFCURVE",
"1003 385 CURVE SMOOTH",
"1003 149 OFFCURVE",
"819 50 OFFCURVE",
"689 50 CURVE SMOOTH",
"593 50 OFFCURVE",
"509 85 OFFCURVE",
"453 145 CURVE",
"431 126 OFFCURVE",
"403 101 OFFCURVE",
"390 80 CURVE",
"436 27 OFFCURVE",
"578 -17 OFFCURVE",
"679 -17 CURVE SMOOTH",
"923 -17 OFFCURVE",
"1091 148 OFFCURVE",
"1091 403 CURVE SMOOTH",
"1091 627 OFFCURVE",
"938 797 OFFCURVE",
"711 797 CURVE SMOOTH",
"653 797 OFFCURVE",
"595 790 OFFCURVE",
"554 785 CURVE",
"612 851 OFFCURVE",
"1006 1185 OFFCURVE",
"1043 1215 CURVE",
"1043 1238 OFFCURVE",
"1040 1267 OFFCURVE",
"1031 1289 CURVE",
"926 1313 OFFCURVE",
"585 1332 OFFCURVE",
"463 1332 CURVE SMOOTH",
"323 1332 OFFCURVE",
"174 1308 OFFCURVE",
"174 1046 CURVE SMOOTH",
"174 792 OFFCURVE",
"175 208 OFFCURVE",
"190 2 CURVE"
);
}
);
width = 1197;
},
{
layerId = "B5042207-EFBA-41B6-8DFD-104A953B46A6";
paths = (
{
closed = 1;
nodes = (
"125 -9 OFFCURVE",
"309 1 OFFCURVE",
"386 9 CURVE",
"376 137 OFFCURVE",
"376 637 OFFCURVE",
"376 850 CURVE SMOOTH",
"376 1022 OFFCURVE",
"431 1075 OFFCURVE",
"540 1075 CURVE SMOOTH",
"602 1075 OFFCURVE",
"641 1070 OFFCURVE",
"685 1060 CURVE",
"603 1006 OFFCURVE",
"498 916 OFFCURVE",
"426 838 CURVE",
"426 798 OFFCURVE",
"504 563 OFFCURVE",
"526 524 CURVE",
"580 548 OFFCURVE",
"691 571 OFFCURVE",
"742 571 CURVE SMOOTH",
"812 571 OFFCURVE",
"858 549 OFFCURVE",
"858 434 CURVE SMOOTH",
"858 342 OFFCURVE",
"814 260 OFFCURVE",
"706 260 CURVE SMOOTH",
"610 260 OFFCURVE",
"576 292 OFFCURVE",
"538 335 CURVE",
"516 316 OFFCURVE",
"403 133 OFFCURVE",
"390 109 CURVE",
"463 19 OFFCURVE",
"595 -17 OFFCURVE",
"696 -17 CURVE SMOOTH",
"940 -17 OFFCURVE",
"1186 96 OFFCURVE",
"1186 424 CURVE SMOOTH",
"1186 697 OFFCURVE",
"1068 800 OFFCURVE",
"911 800 CURVE SMOOTH",
"853 800 OFFCURVE",
"783 789 OFFCURVE",
"742 762 CURVE",
"800 791 OFFCURVE",
"1138 1038 OFFCURVE",
"1150 1055 CURVE",
"1150 1077 OFFCURVE",
"1144 1267 OFFCURVE",
"1133 1289 CURVE",
"1080 1299 OFFCURVE",
"602 1332 OFFCURVE",
"480 1332 CURVE SMOOTH",
"36 1332 OFFCURVE",
"17 1061 OFFCURVE",
"17 610 CURVE SMOOTH",
"17 349 OFFCURVE",
"27 136 OFFCURVE",
"50 -9 CURVE"
);
}
);
width = 1197;
}
);
leftKerningGroup = H;
rightKerningGroup = B;
unicode = 1E9E;
},
{
glyphname = Schwa;
lastChange = "2020-06-17 20:23:41 +0000";
layers = (
{
layerId = "B5195C1E-69AB-4BC6-9855-DF55601A0735";
paths = (
{
closed = 1;
nodes = (
"147 987 OFFCURVE",
"202 950 OFFCURVE",
"211 944 CURVE",
"221 962 OFFCURVE",
"383 1241 OFFCURVE",
"709 1241 CURVE SMOOTH",
"935 1241 OFFCURVE",
"1102 1091 OFFCURVE",
"1156 881 CURVE SMOOTH",
"1169 830 OFFCURVE",
"1180 754 OFFCURVE",
"1180 712 CURVE",
"992 705 OFFCURVE",
"785 696 OFFCURVE",
"587 687 CURVE SMOOTH",
"404 679 OFFCURVE",
"204 673 OFFCURVE",
"180 673 CURVE",
"180 623 OFFCURVE",
"182 578 OFFCURVE",
"188 532 CURVE SMOOTH",
"231 204 OFFCURVE",
"385 -23 OFFCURVE",
"691 -23 CURVE SMOOTH",
"1036 -23 OFFCURVE",
"1274 238 OFFCURVE",
"1274 622 CURVE SMOOTH",
"1274 1033 OFFCURVE",
"1101 1316 OFFCURVE",
"716 1316 CURVE SMOOTH",
"373 1316 OFFCURVE",
"184 1076 OFFCURVE",
"137 999 CURVE"
);
},
{
closed = 1;
nodes = (
"1185 281 OFFCURVE",
"983 57 OFFCURVE",
"701 57 CURVE SMOOTH",
"449 57 OFFCURVE",
"334 248 OFFCURVE",
"296 444 CURVE SMOOTH",
"287 488 OFFCURVE",
"280 551 OFFCURVE",
"280 586 CURVE",
"320 590 OFFCURVE",
"410 596 OFFCURVE",
"552 603 CURVE SMOOTH",
"782 614 OFFCURVE",
"1029 623 OFFCURVE",
"1185 628 CURVE"
);
}
);
width = 1456;
},
{
layerId = "B5042207-EFBA-41B6-8DFD-104A953B46A6";
paths = (
{
closed = 1;
nodes = (
"101 1037 OFFCURVE",
"260 915 OFFCURVE",
"282 899 CURVE",
"394 991 OFFCURVE",
"544 1009 OFFCURVE",
"607 1009 CURVE SMOOTH",
"705 1009 OFFCURVE",
"800 969 OFFCURVE",
"844 897 CURVE SMOOTH",
"886 829 OFFCURVE",
"891 776 OFFCURVE",
"891 720 CURVE",
"829 714 OFFCURVE",
"626 700 OFFCURVE",
"497 692 CURVE SMOOTH",
"383 685 OFFCURVE",
"100 665 OFFCURVE",
"58 662 CURVE",
"46 599 OFFCURVE",
"41 544 OFFCURVE",
"41 477 CURVE SMOOTH",
"41 143 OFFCURVE",
"323 -26 OFFCURVE",
"601 -26 CURVE SMOOTH",
"991 -26 OFFCURVE",
"1250 276 OFFCURVE",
"1250 725 CURVE SMOOTH",
"1250 1121 OFFCURVE",
"928 1329 OFFCURVE",
"639 1329 CURVE SMOOTH",
"415 1329 OFFCURVE",
"161 1248 OFFCURVE",
"41 1120 CURVE"
);
},
{
closed = 1;
nodes = (
"886 355 OFFCURVE",
"742 278 OFFCURVE",
"618 278 CURVE SMOOTH",
"532 278 OFFCURVE",
"468 325 OFFCURVE",
"447 387 CURVE SMOOTH",
"443 399 OFFCURVE",
"440 412 OFFCURVE",
"440 424 CURVE",
"459 424 OFFCURVE",
"568 431 OFFCURVE",
"625 435 CURVE SMOOTH",
"728 443 OFFCURVE",
"839 456 OFFCURVE",
"886 462 CURVE"
);
}
);
width = 1309;
}
);
leftKerningGroup = O;
leftMetricsKey = O;
rightKerningGroup = O;
rightMetricsKey = O;
unicode = 018F;
},
{
glyphname = T;
lastChange = "2020-06-17 15:04:16 +0000";
layers = (
{
anchors = (
{
name = bottom;
position = "{548, 0}";
},
{
name = center;
position = "{520, 646}";
},
{
name = top;
position = "{520, 1291}";
}
);
layerId = "B5042207-EFBA-41B6-8DFD-104A953B46A6";
paths = (
{
closed = 1;
nodes = (
"157 968 OFFCURVE",
"248 971 OFFCURVE",
"332 978 CURVE",
"331 933 OFFCURVE",
"330 877 OFFCURVE",
"330 814 CURVE SMOOTH",
"330 554 OFFCURVE",
"339 179 OFFCURVE",
"349 -14 CURVE",
"448 -14 OFFCURVE",
"664 -2 OFFCURVE",
"766 14 CURVE",
"764 42 OFFCURVE",
"721 814 OFFCURVE",
"713 986 CURVE",
"780 983 OFFCURVE",
"912 983 OFFCURVE",
"959 983 CURVE",
"974 1039 OFFCURVE",
"986 1167 OFFCURVE",
"986 1308 CURVE",
"868 1325 OFFCURVE",
"721 1331 OFFCURVE",
"572 1331 CURVE SMOOTH",
"379 1331 OFFCURVE",
"182 1321 OFFCURVE",
"34 1309 CURVE",
"34 1272 OFFCURVE",
"43 1038 OFFCURVE",
"58 968 CURVE"
);
}
);
width = 1039;
},
{
anchors = (
{
name = bottom;
position = "{550, 0}";
},
{
name = center;
position = "{520, 646}";
},
{
name = top;
position = "{520, 1291}";
}
);
layerId = "B5195C1E-69AB-4BC6-9855-DF55601A0735";
paths = (
{
closed = 1;
nodes = (
"133 1248 OFFCURVE",
"366 1256 OFFCURVE",
"484 1258 CURVE",
"484 1223 OFFCURVE",
"484 1175 OFFCURVE",
"484 1118 CURVE SMOOTH",
"484 798 OFFCURVE",
"494 189 OFFCURVE",
"504 -14 CURVE",
"522 -14 OFFCURVE",
"578 -12 OFFCURVE",
"595 -9 CURVE",
"592 83 OFFCURVE",
"570 1084 OFFCURVE",
"568 1256 CURVE",
"702 1256 OFFCURVE",
"940 1252 OFFCURVE",
"1002 1249 CURVE",
"1002 1273 OFFCURVE",
"1002 1306 OFFCURVE",
"998 1325 CURVE",
"886 1338 OFFCURVE",
"748 1342 OFFCURVE",
"605 1342 CURVE SMOOTH",
"401 1342 OFFCURVE",
"188 1333 OFFCURVE",
"34 1326 CURVE",
"34 1299 OFFCURVE",
"37 1267 OFFCURVE",
"41 1243 CURVE"
);
}
);
width = 1039;
}
);
leftKerningGroup = T;
rightKerningGroup = T;
unicode = 0054;
},
{
glyphname = Tbar;
lastChange = "2020-07-16 19:59:50 +0000";
layers = (
{
components = (
{
name = T;
}
);
layerId = "B5042207-EFBA-41B6-8DFD-104A953B46A6";
paths = (
{
closed = 1;
nodes = (
"898 622 OFFCURVE",
"889 762 OFFCURVE",
"886 801 CURVE",
"753 801 OFFCURVE",
"257 791 OFFCURVE",
"141 741 CURVE",
"141 667 OFFCURVE",
"147 577 OFFCURVE",
"156 490 CURVE",
"363 507 OFFCURVE",
"783 514 OFFCURVE",
"898 514 CURVE"
);
}
);
width = 1039;
},
{
components = (
{
name = T;
}
);
layerId = "B5195C1E-69AB-4BC6-9855-DF55601A0735";
paths = (
{
closed = 1;
nodes = (
"894 656 OFFCURVE",
"893 692 OFFCURVE",
"891 701 CURVE",
"730 701 OFFCURVE",
"271 684 OFFCURVE",
"195 674 CURVE",
"189 662 OFFCURVE",
"186 628 OFFCURVE",
"186 610 CURVE",
"379 616 OFFCURVE",
"703 625 OFFCURVE",
"894 625 CURVE"
);
}
);
width = 1039;
}
);
leftKerningGroup = T;
rightKerningGroup = T;
unicode = 0166;
},
{
glyphname = Tcedilla;
lastChange = "2020-07-08 20:01:33 +0000";
layers = (
{
components = (
{
name = T;
}
);
layerId = "B5042207-EFBA-41B6-8DFD-104A953B46A6";
paths = (
{
closed = 1;
nodes = (
"743 -517 OFFCURVE",
"961 -433 OFFCURVE",
"961 -248 CURVE SMOOTH",
"961 -115 OFFCURVE",
"886 -57 OFFCURVE",
"780 -57 CURVE SMOOTH",
"710 -57 OFFCURVE",
"654 -85 OFFCURVE",
"630 -119 CURVE",
"664 40 LINE",
"445 28 LINE",
"379 -237 LINE",
"414 -224 OFFCURVE",
"497 -209 OFFCURVE",
"574 -209 CURVE SMOOTH",
"641 -209 OFFCURVE",
"695 -220 OFFCURVE",
"695 -256 CURVE SMOOTH",
"695 -296 OFFCURVE",
"630 -317 OFFCURVE",
"512 -317 CURVE SMOOTH",
"479 -317 OFFCURVE",
"395 -305 OFFCURVE",
"366 -292 CURVE",
"302 -495 LINE",
"322 -500 OFFCURVE",
"404 -517 OFFCURVE",
"509 -517 CURVE SMOOTH"
);
}
);
width = 1039;
},
{
components = (
{
name = T;
}
);
layerId = "B5195C1E-69AB-4BC6-9855-DF55601A0735";
paths = (
{
closed = 1;
nodes = (
"765 -462 OFFCURVE",
"878 -396 OFFCURVE",
"878 -255 CURVE SMOOTH",
"878 -144 OFFCURVE",
"803 -87 OFFCURVE",
"698 -87 CURVE SMOOTH",
"650 -87 OFFCURVE",
"587 -106 OFFCURVE",
"570 -119 CURVE",
"595 -9 LINE",
"504 -14 LINE",
"483 -212 LINE",
"524 -194 OFFCURVE",
"622 -159 OFFCURVE",
"680 -159 CURVE SMOOTH",
"762 -159 OFFCURVE",
"789 -198 OFFCURVE",
"789 -267 CURVE SMOOTH",
"789 -359 OFFCURVE",
"698 -392 OFFCURVE",
"550 -392 CURVE SMOOTH",
"499 -392 OFFCURVE",
"423 -374 OFFCURVE",
"384 -364 CURVE",
"366 -437 LINE",
"386 -444 OFFCURVE",
"451 -462 OFFCURVE",
"555 -462 CURVE SMOOTH"
);
}
);
width = 1039;
}
);
leftKerningGroup = T;
rightKerningGroup = T;
unicode = 0162;
},
{
glyphname = U;
lastChange = "2020-06-18 18:47:11 +0000";
layers = (
{
anchors = (
{
name = bottom;
position = "{606, 0}";
},
{
name = ogonek;
position = "{755, 0}";
},
{
name = top;
position = "{606, 1324}";
},
{
name = topright;
position = "{1101, 1174}";
}
);
layerId = "B5042207-EFBA-41B6-8DFD-104A953B46A6";
paths = (
{
closed = 1;
nodes = (
"1063 -27 OFFCURVE",
"1153 418 OFFCURVE",
"1153 957 CURVE SMOOTH",
"1153 1078 OFFCURVE",
"1145 1195 OFFCURVE",
"1130 1296 CURVE",
"1101 1304 OFFCURVE",
"846 1328 OFFCURVE",
"715 1328 CURVE",
"726 1245 OFFCURVE",
"736 833 OFFCURVE",
"736 710 CURVE SMOOTH",
"736 570 OFFCURVE",
"719 458 OFFCURVE",
"615 458 CURVE SMOOTH",
"564 458 OFFCURVE",
"534 491 OFFCURVE",
"517 563 CURVE SMOOTH",
"502 626 OFFCURVE",
"497 718 OFFCURVE",
"497 844 CURVE SMOOTH",
"497 1013 OFFCURVE",
"504 1193 OFFCURVE",
"516 1335 CURVE",
"449 1342 OFFCURVE",
"363 1347 OFFCURVE",
"282 1347 CURVE SMOOTH",
"219 1347 OFFCURVE",
"147 1342 OFFCURVE",
"78 1335 CURVE",
"75 1256 OFFCURVE",
"73 1183 OFFCURVE",
"73 1115 CURVE SMOOTH",
"73 744 OFFCURVE",
"79 455 OFFCURVE",
"151 260 CURVE SMOOTH",
"220 73 OFFCURVE",
"350 -27 OFFCURVE",
"593 -27 CURVE SMOOTH"
);
}
);
width = 1212;
},
{
anchors = (
{
name = bottom;
position = "{606, 0}";
},
{
name = ogonek;
position = "{784, 0}";
},
{
name = top;
position = "{606, 1330}";
},
{
name = topright;
position = "{976, 1174}";
}
);
layerId = "B5195C1E-69AB-4BC6-9855-DF55601A0735";
paths = (
{
closed = 1;
nodes = (
"955 -43 OFFCURVE",
"1021 304 OFFCURVE",
"1021 818 CURVE SMOOTH",
"1021 988 OFFCURVE",
"1009 1192 OFFCURVE",
"990 1316 CURVE",
"961 1325 OFFCURVE",
"925 1330 OFFCURVE",
"894 1330 CURVE",
"920 1144 OFFCURVE",
"930 892 OFFCURVE",
"930 728 CURVE SMOOTH",
"930 275 OFFCURVE",
"829 32 OFFCURVE",
"610 32 CURVE SMOOTH",
"442 32 OFFCURVE",
"335 136 OFFCURVE",
"283 358 CURVE SMOOTH",
"258 463 OFFCURVE",
"246 596 OFFCURVE",
"246 757 CURVE SMOOTH",
"246 932 OFFCURVE",
"256 1185 OFFCURVE",
"273 1362 CURVE",
"262 1365 OFFCURVE",
"239 1368 OFFCURVE",
"214 1368 CURVE SMOOTH",
"199 1368 OFFCURVE",
"184 1366 OFFCURVE",
"174 1364 CURVE",
"168 1243 OFFCURVE",
"156 963 OFFCURVE",
"156 780 CURVE SMOOTH",
"156 608 OFFCURVE",
"168 454 OFFCURVE",
"199 327 CURVE SMOOTH",
"255 98 OFFCURVE",
"374 -43 OFFCURVE",
"595 -43 CURVE SMOOTH"
);
}
);
width = 1212;
}
);
leftKerningGroup = U;
rightKerningGroup = U;
unicode = 0055;
},
{
glyphname = Uhorn;
lastChange = "2020-06-17 20:20:27 +0000";
layers = (
{
anchors = (
{
name = bottom;
position = "{606, 0}";
},
{
name = top;
position = "{606, 1331}";
}
);
layerId = "B5195C1E-69AB-4BC6-9855-DF55601A0735";
paths = (
{
closed = 1;
nodes = (
"955 -43 OFFCURVE",
"1021 304 OFFCURVE",
"1021 818 CURVE SMOOTH",
"1021 971 OFFCURVE",
"1011 1152 OFFCURVE",
"995 1277 CURVE",
"1129 1308 OFFCURVE",
"1190 1412 OFFCURVE",
"1196 1564 CURVE",
"1179 1573 OFFCURVE",
"1133 1580 OFFCURVE",
"1102 1580 CURVE",
"1102 1421 OFFCURVE",
"1043 1340 OFFCURVE",
"894 1330 CURVE",
"920 1144 OFFCURVE",
"930 892 OFFCURVE",
"930 728 CURVE SMOOTH",
"930 275 OFFCURVE",
"829 32 OFFCURVE",
"610 32 CURVE SMOOTH",
"442 32 OFFCURVE",
"335 136 OFFCURVE",
"283 358 CURVE SMOOTH",
"258 463 OFFCURVE",
"246 596 OFFCURVE",
"246 757 CURVE SMOOTH",
"246 932 OFFCURVE",
"256 1185 OFFCURVE",
"273 1362 CURVE",
"262 1365 OFFCURVE",
"239 1368 OFFCURVE",
"214 1368 CURVE SMOOTH",
"199 1368 OFFCURVE",
"184 1366 OFFCURVE",
"174 1364 CURVE",
"168 1243 OFFCURVE",
"156 963 OFFCURVE",
"156 780 CURVE SMOOTH",
"156 608 OFFCURVE",
"168 454 OFFCURVE",
"199 327 CURVE SMOOTH",
"255 98 OFFCURVE",
"374 -43 OFFCURVE",
"595 -43 CURVE SMOOTH"
);
}
);
width = 1307;
},
{
anchors = (
{
name = bottom;
position = "{703, 0}";
},
{
name = top;
position = "{646, 1345}";
}
);
layerId = "B5042207-EFBA-41B6-8DFD-104A953B46A6";
paths = (
{
closed = 1;
nodes = (
"1063 -27 OFFCURVE",
"1153 418 OFFCURVE",
"1153 957 CURVE SMOOTH",
"1153 1036 OFFCURVE",
"1150 1113 OFFCURVE",
"1143 1185 CURVE",
"1282 1234 OFFCURVE",
"1412 1345 OFFCURVE",
"1427 1522 CURVE",
"1402 1550 OFFCURVE",
"1212 1571 OFFCURVE",
"1093 1571 CURVE",
"1093 1384 OFFCURVE",
"983 1328 OFFCURVE",
"715 1328 CURVE",
"726 1245 OFFCURVE",
"736 833 OFFCURVE",
"736 710 CURVE SMOOTH",
"736 570 OFFCURVE",
"719 458 OFFCURVE",
"615 458 CURVE SMOOTH",
"564 458 OFFCURVE",
"534 491 OFFCURVE",
"517 563 CURVE SMOOTH",
"502 626 OFFCURVE",
"497 718 OFFCURVE",
"497 844 CURVE SMOOTH",
"497 1013 OFFCURVE",
"504 1193 OFFCURVE",
"516 1335 CURVE",
"449 1342 OFFCURVE",
"363 1347 OFFCURVE",
"282 1347 CURVE SMOOTH",
"219 1347 OFFCURVE",
"147 1342 OFFCURVE",
"78 1335 CURVE",
"75 1256 OFFCURVE",
"73 1183 OFFCURVE",
"73 1115 CURVE SMOOTH",
"73 744 OFFCURVE",
"79 455 OFFCURVE",
"151 260 CURVE SMOOTH",
"220 73 OFFCURVE",
"350 -27 OFFCURVE",
"593 -27 CURVE SMOOTH"
);
}
);
width = 1406;
}
);
leftKerningGroup = U;
leftMetricsKey = U;
rightKerningGroup = U;
rightMetricsKey = "=U-80";
unicode = 01AF;
},
{
glyphname = Uogonek;
lastChange = "2020-07-08 16:44:11 +0000";
layers = (
{
components = (
{
name = U;
}
);
layerId = "B5195C1E-69AB-4BC6-9855-DF55601A0735";
paths = (
{
closed = 1;
nodes = (
"893 -358 OFFCURVE",
"844 -378 OFFCURVE",
"750 -378 CURVE SMOOTH",
"660 -378 OFFCURVE",
"603 -347 OFFCURVE",
"603 -245 CURVE SMOOTH",
"603 -132 OFFCURVE",
"753 -8 OFFCURVE",
"845 45 CURVE",
"780 90 LINE",
"661 21 OFFCURVE",
"517 -109 OFFCURVE",
"517 -252 CURVE SMOOTH",
"517 -381 OFFCURVE",
"597 -458 OFFCURVE",
"734 -458 CURVE SMOOTH",
"838 -458 OFFCURVE",
"910 -436 OFFCURVE",
"966 -412 CURVE",
"966 -325 LINE"
);
}
);
width = 1212;
},
{
components = (
{
name = U;
}
);
layerId = "B5042207-EFBA-41B6-8DFD-104A953B46A6";
paths = (
{
closed = 1;
nodes = (
"983 -207 OFFCURVE",
"938 -216 OFFCURVE",
"895 -216 CURVE SMOOTH",
"842 -216 OFFCURVE",
"788 -192 OFFCURVE",
"788 -120 CURVE SMOOTH",
"788 -40 OFFCURVE",
"863 44 OFFCURVE",
"908 75 CURVE",
"772 133 LINE",
"707 114 OFFCURVE",
"525 -37 OFFCURVE",
"525 -209 CURVE SMOOTH",
"525 -376 OFFCURVE",
"669 -461 OFFCURVE",
"827 -461 CURVE SMOOTH",
"931 -461 OFFCURVE",
"993 -448 OFFCURVE",
"1022 -436 CURVE",
"1022 -179 LINE"
);
}
);
width = 1212;
}
);
unicode = 0172;
},
{
glyphname = V;
lastChange = "2020-06-18 14:25:25 +0000";
layers = (
{
anchors = (
{
name = bottom;
position = "{605, 0}";
},
{
name = top;
position = "{605, 1291}";
}
);
layerId = "B5042207-EFBA-41B6-8DFD-104A953B46A6";
paths = (
{
closed = 1;
nodes = (
"735 -22 OFFCURVE",
"819 -21 OFFCURVE",
"865 -16 CURVE",
"891 79 OFFCURVE",
"1095 836 OFFCURVE",
"1183 1301 CURVE",
"1051 1342 OFFCURVE",
"870 1366 OFFCURVE",
"738 1366 CURVE",
"731 1275 OFFCURVE",
"641 505 OFFCURVE",
"617 315 CURVE",
"647 322 LINE",
"577 799 OFFCURVE",
"461 1338 OFFCURVE",
"456 1359 CURVE",
"350 1359 OFFCURVE",
"125 1340 OFFCURVE",
"0 1301 CURVE",
"74 945 OFFCURVE",
"310 191 OFFCURVE",
"411 -10 CURVE",
"460 -16 OFFCURVE",
"556 -22 OFFCURVE",
"650 -22 CURVE SMOOTH"
);
}
);
width = 1183;
},
{
anchors = (
{
name = bottom;
position = "{583, 0}";
},
{
name = top;
position = "{583, 1291}";
}
);
layerId = "B5195C1E-69AB-4BC6-9855-DF55601A0735";
paths = (
{
closed = 1;
nodes = (
"605 -19 OFFCURVE",
"624 -18 OFFCURVE",
"639 -16 CURVE",
"648 4 OFFCURVE",
"821 410 OFFCURVE",
"1036 1326 CURVE",
"1016 1344 OFFCURVE",
"981 1354 OFFCURVE",
"949 1359 CURVE",
"945 1338 OFFCURVE",
"799 615 OFFCURVE",
"573 35 CURVE",
"585 37 LINE",
"440 314 OFFCURVE",
"222 1165 OFFCURVE",
"200 1361 CURVE",
"178 1361 OFFCURVE",
"123 1352 OFFCURVE",
"109 1347 CURVE",
"133 1191 OFFCURVE",
"299 448 OFFCURVE",
"508 -10 CURVE",
"524 -16 OFFCURVE",
"555 -19 OFFCURVE",
"579 -19 CURVE SMOOTH"
);
}
);
width = 1166;
}
);
leftKerningGroup = V;
rightKerningGroup = V;
unicode = 0056;
},
{
glyphname = W;
lastChange = "2020-06-17 15:11:48 +0000";
layers = (
{
anchors = (
{
name = bottom;
position = "{672, 0}";
},
{
name = top;
position = "{672, 1291}";
}
);
layerId = "B5042207-EFBA-41B6-8DFD-104A953B46A6";
paths = (
{
closed = 1;
nodes = (
"1156 24 LINE",
"1182 139 OFFCURVE",
"1330 832 OFFCURVE",
"1330 1391 CURVE",
"942 1350 LINE",
"942 1122 OFFCURVE",
"920 617 OFFCURVE",
"871 354 CURVE",
"926 356 LINE",
"885 452 OFFCURVE",
"821 995 OFFCURVE",
"817 1095 CURVE",
"534 1087 LINE",
"524 918 OFFCURVE",
"444 540 OFFCURVE",
"401 432 CURVE",
"423 460 LINE",
"429 565 OFFCURVE",
"456 1107 OFFCURVE",
"456 1340 CURVE",
"21 1356 LINE",
"21 807 OFFCURVE",
"69 173 OFFCURVE",
"91 21 CURVE",
"539 3 LINE",
"608 151 OFFCURVE",
"679 410 OFFCURVE",
"694 474 CURVE",
"645 466 LINE",
"663 340 OFFCURVE",
"714 141 OFFCURVE",
"768 -15 CURVE"
);
}
);
width = 1344;
},
{
anchors = (
{
name = bottom;
position = "{672, 0}";
},
{
name = top;
position = "{672, 1291}";
}
);
layerId = "B5195C1E-69AB-4BC6-9855-DF55601A0735";
paths = (
{
closed = 1;
nodes = (
"998 -11 LINE",
"1020 42 OFFCURVE",
"1128 713 OFFCURVE",
"1128 1352 CURVE",
"1035 1344 LINE",
"1035 989 OFFCURVE",
"999 391 OFFCURVE",
"939 79 CURVE",
"948 84 LINE",
"920 216 OFFCURVE",
"732 833 OFFCURVE",
"728 840 CURVE",
"634 844 LINE",
"618 819 OFFCURVE",
"341 277 OFFCURVE",
"297 110 CURVE",
"304 99 LINE",
"269 538 OFFCURVE",
"262 899 OFFCURVE",
"262 1340 CURVE",
"176 1344 LINE",
"176 923 OFFCURVE",
"186 598 OFFCURVE",
"239 -8 CURVE",
"312 -8 LINE",
"332 33 OFFCURVE",
"656 713 OFFCURVE",
"672 747 CURVE",
"667 749 LINE",
"689 697 OFFCURVE",
"846 185 OFFCURVE",
"903 -17 CURVE"
);
}
);
width = 1344;
}
);
leftKerningGroup = W;
rightKerningGroup = W;
unicode = 0057;
},
{
glyphname = X;
lastChange = "2020-06-18 14:25:59 +0000";
layers = (
{
anchors = (
{
name = bottom;
position = "{627, 0}";
},
{
name = top;
position = "{627, 1291}";
}
);
layerId = "B5042207-EFBA-41B6-8DFD-104A953B46A6";
paths = (
{
closed = 1;
nodes = (
"292 421 OFFCURVE",
"133 193 OFFCURVE",
"26 56 CURVE",
"198 10 OFFCURVE",
"303 -18 OFFCURVE",
"434 -31 CURVE",
"462 0 OFFCURVE",
"537 121 OFFCURVE",
"650 323 CURVE",
"752 157 OFFCURVE",
"793 48 OFFCURVE",
"825 -54 CURVE",
"929 -34 OFFCURVE",
"1108 18 OFFCURVE",
"1208 81 CURVE",
"1173 168 OFFCURVE",
"976 498 OFFCURVE",
"839 673 CURVE",
"954 827 OFFCURVE",
"1140 1077 OFFCURVE",
"1191 1193 CURVE",
"1132 1241 OFFCURVE",
"961 1301 OFFCURVE",
"778 1328 CURVE",
"742 1209 OFFCURVE",
"699 1074 OFFCURVE",
"641 961 CURVE",
"627 998 OFFCURVE",
"508 1258 OFFCURVE",
"442 1347 CURVE",
"334 1332 OFFCURVE",
"93 1255 OFFCURVE",
"-1 1207 CURVE",
"43 1161 OFFCURVE",
"286 874 OFFCURVE",
"415 639 CURVE"
);
}
);
width = 1253;
},
{
anchors = (
{
name = bottom;
position = "{575, 0}";
},
{
name = top;
position = "{575, 1291}";
}
);
layerId = "B5195C1E-69AB-4BC6-9855-DF55601A0735";
paths = (
{
closed = 1;
nodes = (
"517 590 OFFCURVE",
"298 293 OFFCURVE",
"100 39 CURVE",
"126 19 OFFCURVE",
"154 5 OFFCURVE",
"188 1 CURVE",
"199 16 OFFCURVE",
"581 557 OFFCURVE",
"593 583 CURVE",
"723 376 OFFCURVE",
"859 121 OFFCURVE",
"926 -15 CURVE",
"954 -14 OFFCURVE",
"984 -9 OFFCURVE",
"1013 10 CURVE",
"919 181 OFFCURVE",
"702 560 OFFCURVE",
"642 649 CURVE",
"675 695 OFFCURVE",
"902 1016 OFFCURVE",
"1008 1272 CURVE",
"987 1285 OFFCURVE",
"962 1299 OFFCURVE",
"931 1308 CURVE",
"910 1251 OFFCURVE",
"762 933 OFFCURVE",
"601 714 CURVE",
"413 1046 OFFCURVE",
"262 1253 OFFCURVE",
"206 1328 CURVE",
"178 1323 OFFCURVE",
"151 1312 OFFCURVE",
"117 1297 CURVE",
"171 1231 OFFCURVE",
"387 942 OFFCURVE",
"550 646 CURVE"
);
}
);
width = 1113;
}
);
leftKerningGroup = X;
rightKerningGroup = X;
unicode = 0058;
},
{
glyphname = Y;
lastChange = "2020-06-17 15:12:55 +0000";
layers = (
{
anchors = (
{
name = bottom;
position = "{583, 0}";
},
{
name = top;
position = "{583, 1291}";
},
{
name = topleft;
position = "{70, 1291}";
}
);
layerId = "B5042207-EFBA-41B6-8DFD-104A953B46A6";
paths = (
{
closed = 1;
nodes = (
"389 457 OFFCURVE",
"375 176 OFFCURVE",
"375 24 CURVE",
"425 14 OFFCURVE",
"513 7 OFFCURVE",
"594 7 CURVE SMOOTH",
"671 7 OFFCURVE",
"742 14 OFFCURVE",
"759 22 CURVE",
"761 40 OFFCURVE",
"762 147 OFFCURVE",
"762 236 CURVE SMOOTH",
"762 312 OFFCURVE",
"757 477 OFFCURVE",
"751 612 CURVE",
"864 836 OFFCURVE",
"1011 1074 OFFCURVE",
"1101 1192 CURVE",
"1016 1242 OFFCURVE",
"864 1304 OFFCURVE",
"730 1309 CURVE",
"680 1231 OFFCURVE",
"586 1037 OFFCURVE",
"558 972 CURVE",
"512 1063 OFFCURVE",
"429 1262 OFFCURVE",
"404 1325 CURVE",
"319 1325 OFFCURVE",
"168 1308 OFFCURVE",
"14 1250 CURVE",
"142 950 OFFCURVE",
"265 768 OFFCURVE",
"400 583 CURVE"
);
}
);
width = 1065;
},
{
anchors = (
{
name = bottom;
position = "{573, 0}";
},
{
name = top;
position = "{573, 1291}";
},
{
name = topleft;
position = "{60, 1291}";
}
);
layerId = "B5195C1E-69AB-4BC6-9855-DF55601A0735";
paths = (
{
closed = 1;
nodes = (
"493 319 OFFCURVE",
"484 69 OFFCURVE",
"484 -10 CURVE",
"507 -13 OFFCURVE",
"524 -14 OFFCURVE",
"540 -14 CURVE SMOOTH",
"553 -14 OFFCURVE",
"568 -13 OFFCURVE",
"583 -12 CURVE",
"580 20 OFFCURVE",
"580 165 OFFCURVE",
"580 254 CURVE SMOOTH",
"580 323 OFFCURVE",
"580 457 OFFCURVE",
"580 491 CURVE",
"775 882 OFFCURVE",
"903 1121 OFFCURVE",
"985 1241 CURVE",
"963 1260 OFFCURVE",
"934 1285 OFFCURVE",
"896 1303 CURVE",
"836 1183 OFFCURVE",
"589 692 OFFCURVE",
"537 591 CURVE",
"450 761 OFFCURVE",
"241 1248 OFFCURVE",
"221 1318 CURVE",
"185 1313 OFFCURVE",
"153 1303 OFFCURVE",
"124 1292 CURVE",
"141 1248 OFFCURVE",
"462 550 OFFCURVE",
"500 489 CURVE"
);
}
);
width = 1065;
}
);
leftKerningGroup = Y;
rightKerningGroup = Y;
unicode = 0059;
},
{
glyphname = Z;
lastChange = "2020-06-17 15:13:54 +0000";
layers = (
{
anchors = (
{
name = bottom;
position = "{522, 0}";
},
{
name = center;
position = "{522, 646}";
},
{
name = top;
position = "{522, 1291}";
}
);
layerId = "B5042207-EFBA-41B6-8DFD-104A953B46A6";
paths = (
{
closed = 1;
nodes = (
"938 18 OFFCURVE",
"948 113 OFFCURVE",
"948 202 CURVE SMOOTH",
"948 277 OFFCURVE",
"944 356 OFFCURVE",
"940 397 CURVE",
"835 392 OFFCURVE",
"728 387 OFFCURVE",
"642 387 CURVE SMOOTH",
"561 387 OFFCURVE",
"499 389 OFFCURVE",
"474 393 CURVE",
"571 509 OFFCURVE",
"879 897 OFFCURVE",
"962 1005 CURVE",
"966 1025 OFFCURVE",
"970 1093 OFFCURVE",
"970 1166 CURVE SMOOTH",
"970 1225 OFFCURVE",
"967 1288 OFFCURVE",
"959 1330 CURVE",
"927 1334 OFFCURVE",
"830 1336 OFFCURVE",
"778 1336 CURVE SMOOTH",
"565 1336 OFFCURVE",
"205 1306 OFFCURVE",
"94 1294 CURVE",
"90 1256 OFFCURVE",
"87 1198 OFFCURVE",
"87 1135 CURVE SMOOTH",
"87 1080 OFFCURVE",
"91 1011 OFFCURVE",
"95 969 CURVE",
"228 977 OFFCURVE",
"486 991 OFFCURVE",
"550 991 CURVE",
"500 912 OFFCURVE",
"184 546 OFFCURVE",
"43 388 CURVE",
"43 297 OFFCURVE",
"48 99 OFFCURVE",
"53 22 CURVE",
"404 -3 OFFCURVE",
"694 -14 OFFCURVE",
"930 -14 CURVE"
);
}
);
width = 1044;
},
{
anchors = (
{
name = bottom;
position = "{522, 0}";
},
{
name = center;
position = "{522, 646}";
},
{
name = top;
position = "{522, 1291}";
}
);
layerId = "B5195C1E-69AB-4BC6-9855-DF55601A0735";
paths = (
{
closed = 1;
nodes = (
"881 -3 OFFCURVE",
"884 16 OFFCURVE",
"886 37 CURVE SMOOTH",
"888 54 OFFCURVE",
"889 71 OFFCURVE",
"889 85 CURVE",
"838 83 OFFCURVE",
"771 82 OFFCURVE",
"698 82 CURVE SMOOTH",
"500 82 OFFCURVE",
"253 89 OFFCURVE",
"140 98 CURVE",
"236 206 OFFCURVE",
"703 870 OFFCURVE",
"894 1262 CURVE",
"896 1275 OFFCURVE",
"898 1292 OFFCURVE",
"898 1310 CURVE SMOOTH",
"898 1316 OFFCURVE",
"898 1323 OFFCURVE",
"897 1330 CURVE",
"858 1330 OFFCURVE",
"721 1327 OFFCURVE",
"700 1326 CURVE SMOOTH",
"528 1320 OFFCURVE",
"309 1307 OFFCURVE",
"109 1294 CURVE",
"108 1286 OFFCURVE",
"108 1269 OFFCURVE",
"108 1251 CURVE SMOOTH",
"108 1234 OFFCURVE",
"108 1217 OFFCURVE",
"109 1209 CURVE",
"347 1229 OFFCURVE",
"735 1256 OFFCURVE",
"810 1256 CURVE",
"704 1058 OFFCURVE",
"241 325 OFFCURVE",
"44 96 CURVE",
"44 79 OFFCURVE",
"46 39 OFFCURVE",
"47 22 CURVE",
"367 -5 OFFCURVE",
"643 -14 OFFCURVE",
"879 -14 CURVE"
);
}
);
width = 1044;
}
);
leftKerningGroup = Z;
rightKerningGroup = Z;
unicode = 005A;
},
{
glyphname = a;
lastChange = "2020-06-18 18:47:30 +0000";
layers = (
{
anchors = (
{
name = bottom;
position = "{620, 0}";
},
{
name = ogonek;
position = "{1172, 7}";
},
{
name = top;
position = "{620, 1063}";
}
);
layerId = "B5195C1E-69AB-4BC6-9855-DF55601A0735";
paths = (
{
closed = 1;
nodes = (
"741 -24 OFFCURVE",
"921 75 OFFCURVE",
"970 145 CURVE",
"977 87 OFFCURVE",
"1023 0 OFFCURVE",
"1129 0 CURVE SMOOTH",
"1214 0 OFFCURVE",
"1305 73 OFFCURVE",
"1305 236 CURVE",
"1216 249 LINE",
"1216 149 OFFCURVE",
"1182 92 OFFCURVE",
"1132 92 CURVE SMOOTH",
"1095 92 OFFCURVE",
"1076 104 OFFCURVE",
"1067 177 CURVE SMOOTH",
"1059 238 OFFCURVE",
"1057 340 OFFCURVE",
"1057 513 CURVE SMOOTH",
"1057 657 OFFCURVE",
"1036 734 OFFCURVE",
"1001 810 CURVE SMOOTH",
"937 948 OFFCURVE",
"785 1055 OFFCURVE",
"572 1055 CURVE SMOOTH",
"356 1055 OFFCURVE",
"188 956 OFFCURVE",
"105 822 CURVE",
"184 767 LINE",
"247 881 OFFCURVE",
"372 975 OFFCURVE",
"566 975 CURVE SMOOTH",
"744 975 OFFCURVE",
"873 887 OFFCURVE",
"933 762 CURVE SMOOTH",
"954 719 OFFCURVE",
"963 666 OFFCURVE",
"970 611 CURVE",
"938 621 OFFCURVE",
"767 665 OFFCURVE",
"606 665 CURVE SMOOTH",
"306 665 OFFCURVE",
"102 540 OFFCURVE",
"102 312 CURVE SMOOTH",
"102 68 OFFCURVE",
"298 -24 OFFCURVE",
"550 -24 CURVE SMOOTH"
);
},
{
closed = 1;
nodes = (
"344 55 OFFCURVE",
"188 107 OFFCURVE",
"188 314 CURVE SMOOTH",
"188 477 OFFCURVE",
"357 586 OFFCURVE",
"593 586 CURVE SMOOTH",
"777 586 OFFCURVE",
"925 545 OFFCURVE",
"972 530 CURVE",
"967 451 OFFCURVE",
"963 372 OFFCURVE",
"963 250 CURVE",
"869 135 OFFCURVE",
"719 55 OFFCURVE",
"555 55 CURVE SMOOTH"
);
}
);
width = 1295;
},
{
anchors = (
{
name = bottom;
position = "{600, 0}";
},
{
name = ogonek;
position = "{1164, 0}";
},
{
name = top;
position = "{600, 1063}";
}
);
layerId = "B5042207-EFBA-41B6-8DFD-104A953B46A6";
paths = (
{
closed = 1;
nodes = (
"716 -15 OFFCURVE",
"843 60 OFFCURVE",
"870 139 CURVE",
"882 45 OFFCURVE",
"1006 -11 OFFCURVE",
"1125 -11 CURVE SMOOTH",
"1236 -11 OFFCURVE",
"1301 27 OFFCURVE",
"1321 55 CURVE",
"1212 316 LINE",
"1201 305 OFFCURVE",
"1173 297 OFFCURVE",
"1142 297 CURVE SMOOTH",
"1106 297 OFFCURVE",
"1084 320 OFFCURVE",
"1084 431 CURVE SMOOTH",
"1084 504 OFFCURVE",
"1081 572 OFFCURVE",
"1074 633 CURVE SMOOTH",
"1063 724 OFFCURVE",
"1042 801 OFFCURVE",
"1009 864 CURVE SMOOTH",
"935 1004 OFFCURVE",
"796 1076 OFFCURVE",
"552 1076 CURVE SMOOTH",
"338 1076 OFFCURVE",
"133 992 OFFCURVE",
"41 869 CURVE",
"340 677 LINE",
"378 725 OFFCURVE",
"457 775 OFFCURVE",
"544 775 CURVE SMOOTH",
"634 775 OFFCURVE",
"678 749 OFFCURVE",
"711 718 CURVE SMOOTH",
"735 696 OFFCURVE",
"749 657 OFFCURVE",
"749 629 CURVE",
"717 652 OFFCURVE",
"637 675 OFFCURVE",
"554 675 CURVE SMOOTH",
"297 675 OFFCURVE",
"48 588 OFFCURVE",
"48 330 CURVE SMOOTH",
"48 77 OFFCURVE",
"251 -15 OFFCURVE",
"497 -15 CURVE SMOOTH"
);
},
{
closed = 1;
nodes = (
"491 272 OFFCURVE",
"439 296 OFFCURVE",
"439 350 CURVE SMOOTH",
"439 409 OFFCURVE",
"533 423 OFFCURVE",
"615 423 CURVE SMOOTH",
"673 423 OFFCURVE",
"748 413 OFFCURVE",
"772 402 CURVE",
"772 387 OFFCURVE",
"776 350 OFFCURVE",
"780 335 CURVE",
"754 313 OFFCURVE",
"656 272 OFFCURVE",
"584 272 CURVE SMOOTH"
);
}
);
width = 1295;
}
);
leftKerningGroup = a;
rightKerningGroup = a;
unicode = 0061;
},
{
glyphname = a.ss01;
lastChange = "2020-06-18 18:47:49 +0000";
layers = (
{
anchors = (
{
name = bottom;
position = "{600, 0}";
},
{
name = ogonek;
position = "{1126, 17}";
},
{
name = top;
position = "{600, 1063}";
}
);
layerId = "B5042207-EFBA-41B6-8DFD-104A953B46A6";
paths = (
{
closed = 1;
nodes = (
"634 -10 OFFCURVE",
"704 42 OFFCURVE",
"757 99 CURVE",
"759 77 OFFCURVE",
"765 19 OFFCURVE",
"768 -3 CURVE",
"884 -3 OFFCURVE",
"1057 10 OFFCURVE",
"1126 17 CURVE",
"1125 46 OFFCURVE",
"1094 906 OFFCURVE",
"1077 1036 CURVE",
"1019 1041 OFFCURVE",
"826 1044 OFFCURVE",
"759 1044 CURVE",
"756 1024 OFFCURVE",
"750 968 OFFCURVE",
"745 918 CURVE",
"738 934 OFFCURVE",
"653 1007 OFFCURVE",
"509 1007 CURVE SMOOTH",
"215 1007 OFFCURVE",
"48 822 OFFCURVE",
"48 516 CURVE SMOOTH",
"48 229 OFFCURVE",
"192 -10 OFFCURVE",
"493 -10 CURVE SMOOTH"
);
},
{
closed = 1;
nodes = (
"464 359 OFFCURVE",
"400 405 OFFCURVE",
"400 517 CURVE SMOOTH",
"400 616 OFFCURVE",
"455 673 OFFCURVE",
"561 673 CURVE SMOOTH",
"618 673 OFFCURVE",
"691 652 OFFCURVE",
"720 622 CURVE",
"720 563 OFFCURVE",
"724 493 OFFCURVE",
"728 436 CURVE",
"676 366 OFFCURVE",
"603 359 OFFCURVE",
"539 359 CURVE SMOOTH"
);
}
);
width = 1200;
},
{
anchors = (
{
name = bottom;
position = "{600, 0}";
},
{
name = ogonek;
position = "{1048, 19}";
},
{
name = top;
position = "{600, 1063}";
}
);
layerId = "B5195C1E-69AB-4BC6-9855-DF55601A0735";
paths = (
{
closed = 1;
nodes = (
"803 -9 OFFCURVE",
"933 144 OFFCURVE",
"942 173 CURVE",
"944 157 OFFCURVE",
"950 48 OFFCURVE",
"952 9 CURVE",
"986 9 OFFCURVE",
"1021 14 OFFCURVE",
"1048 19 CURVE",
"1040 83 OFFCURVE",
"1007 712 OFFCURVE",
"1007 1021 CURVE",
"990 1025 OFFCURVE",
"957 1029 OFFCURVE",
"926 1029 CURVE",
"926 993 OFFCURVE",
"926 949 OFFCURVE",
"926 935 CURVE",
"878 960 OFFCURVE",
"715 1035 OFFCURVE",
"552 1035 CURVE SMOOTH",
"262 1035 OFFCURVE",
"92 866 OFFCURVE",
"92 513 CURVE SMOOTH",
"92 219 OFFCURVE",
"249 -9 OFFCURVE",
"533 -9 CURVE SMOOTH"
);
},
{
closed = 1;
nodes = (
"311 69 OFFCURVE",
"185 247 OFFCURVE",
"185 488 CURVE SMOOTH",
"185 811 OFFCURVE",
"295 956 OFFCURVE",
"572 956 CURVE SMOOTH",
"740 956 OFFCURVE",
"876 878 OFFCURVE",
"926 849 CURVE",
"926 780 OFFCURVE",
"936 369 OFFCURVE",
"941 299 CURVE",
"924 266 OFFCURVE",
"822 69 OFFCURVE",
"553 69 CURVE SMOOTH"
);
}
);
width = 1200;
}
);
leftKerningGroup = a;
rightKerningGroup = n;
},
{
glyphname = aogonek;
lastChange = "2020-07-03 19:58:07 +0000";
layers = (
{
components = (
{
name = a;
}
);
layerId = "B5195C1E-69AB-4BC6-9855-DF55601A0735";
paths = (
{
closed = 1;
nodes = (
"1220 -396 OFFCURVE",
"1171 -416 OFFCURVE",
"1077 -416 CURVE SMOOTH",
"987 -416 OFFCURVE",
"930 -385 OFFCURVE",
"930 -283 CURVE SMOOTH",
"930 -170 OFFCURVE",
"1060 -36 OFFCURVE",
"1172 7 CURVE",
"1107 52 LINE",
"968 -7 OFFCURVE",
"844 -147 OFFCURVE",
"844 -290 CURVE SMOOTH",
"844 -419 OFFCURVE",
"924 -496 OFFCURVE",
"1061 -496 CURVE SMOOTH",
"1165 -496 OFFCURVE",
"1237 -474 OFFCURVE",
"1293 -450 CURVE",
"1293 -363 LINE"
);
}
);
width = 1295;
},
{
components = (
{
name = a;
}
);
layerId = "B5042207-EFBA-41B6-8DFD-104A953B46A6";
paths = (
{
closed = 1;
nodes = (
"1239 -282 OFFCURVE",
"1194 -291 OFFCURVE",
"1151 -291 CURVE SMOOTH",
"1098 -291 OFFCURVE",
"1044 -267 OFFCURVE",
"1044 -195 CURVE SMOOTH",
"1044 -115 OFFCURVE",
"1119 -31 OFFCURVE",
"1164 0 CURVE",
"1028 58 LINE",
"963 39 OFFCURVE",
"781 -112 OFFCURVE",
"781 -284 CURVE SMOOTH",
"781 -451 OFFCURVE",
"925 -536 OFFCURVE",
"1083 -536 CURVE SMOOTH",
"1187 -536 OFFCURVE",
"1249 -523 OFFCURVE",
"1278 -511 CURVE",
"1278 -254 LINE"
);
}
);
width = 1295;
}
);
unicode = 0105;
},
{
glyphname = aogonek.ss01;
lastChange = "2020-07-03 19:58:49 +0000";
layers = (
{
components = (
{
name = a.ss01;
}
);
layerId = "B5195C1E-69AB-4BC6-9855-DF55601A0735";
paths = (
{
closed = 1;
nodes = (
"1096 -384 OFFCURVE",
"1047 -404 OFFCURVE",
"953 -404 CURVE SMOOTH",
"863 -404 OFFCURVE",
"806 -373 OFFCURVE",
"806 -271 CURVE SMOOTH",
"806 -158 OFFCURVE",
"936 -24 OFFCURVE",
"1048 19 CURVE",
"983 64 LINE",
"844 5 OFFCURVE",
"720 -135 OFFCURVE",
"720 -278 CURVE SMOOTH",
"720 -407 OFFCURVE",
"800 -484 OFFCURVE",
"937 -484 CURVE SMOOTH",
"1041 -484 OFFCURVE",
"1113 -462 OFFCURVE",
"1169 -438 CURVE",
"1169 -351 LINE"
);
}
);
width = 1200;
},
{
components = (
{
name = a.ss01;
}
);
layerId = "B5042207-EFBA-41B6-8DFD-104A953B46A6";
paths = (
{
closed = 1;
nodes = (
"1201 -265 OFFCURVE",
"1156 -274 OFFCURVE",
"1113 -274 CURVE SMOOTH",
"1060 -274 OFFCURVE",
"1006 -250 OFFCURVE",
"1006 -178 CURVE SMOOTH",
"1006 -98 OFFCURVE",
"1081 -14 OFFCURVE",
"1126 17 CURVE",
"990 75 LINE",
"925 56 OFFCURVE",
"743 -95 OFFCURVE",
"743 -267 CURVE SMOOTH",
"743 -434 OFFCURVE",
"887 -519 OFFCURVE",
"1045 -519 CURVE SMOOTH",
"1149 -519 OFFCURVE",
"1211 -506 OFFCURVE",
"1240 -494 CURVE",
"1240 -237 LINE"
);
}
);
width = 1200;
}
);
},
{
glyphname = ae;
lastChange = "2020-06-29 16:07:46 +0000";
layers = (
{
anchors = (
{
name = bottom;
position = "{939, 0}";
},
{
name = top;
position = "{939, 1063}";
}
);
components = (
{
alignment = -1;
name = e;
transform = "{1, 0, 0, 1, 725, 0}";
}
);
layerId = "B5042207-EFBA-41B6-8DFD-104A953B46A6";
paths = (
{
closed = 1;
nodes = (
"835 -18 OFFCURVE",
"1083 190 OFFCURVE",
"1083 462 CURVE SMOOTH",
"1083 632 OFFCURVE",
"1052 806 OFFCURVE",
"922 957 CURVE SMOOTH",
"821 1074 OFFCURVE",
"674 1115 OFFCURVE",
"538 1115 CURVE SMOOTH",
"374 1115 OFFCURVE",
"162 1039 OFFCURVE",
"69 952 CURVE",
"303 727 LINE",
"350 768 OFFCURVE",
"462 798 OFFCURVE",
"541 798 CURVE SMOOTH",
"620 798 OFFCURVE",
"667 772 OFFCURVE",
"693 734 CURVE SMOOTH",
"709 711 OFFCURVE",
"715 682 OFFCURVE",
"715 653 CURVE",
"684 677 OFFCURVE",
"585 684 OFFCURVE",
"532 684 CURVE SMOOTH",
"296 684 OFFCURVE",
"40 604 OFFCURVE",
"40 364 CURVE SMOOTH",
"40 111 OFFCURVE",
"276 -18 OFFCURVE",
"538 -18 CURVE SMOOTH"
);
},
{
closed = 1;
nodes = (
"464 272 OFFCURVE",
"404 275 OFFCURVE",
"404 338 CURVE SMOOTH",
"404 406 OFFCURVE",
"532 428 OFFCURVE",
"622 428 CURVE SMOOTH",
"661 428 OFFCURVE",
"699 422 OFFCURVE",
"730 408 CURVE",
"733 391 OFFCURVE",
"734 368 OFFCURVE",
"734 343 CURVE SMOOTH",
"734 313 OFFCURVE",
"655 272 OFFCURVE",
"523 272 CURVE SMOOTH"
);
}
);
width = 1762;
},
{
anchors = (
{
name = bottom;
position = "{857, 0}";
},
{
name = top;
position = "{857, 1063}";
}
);
components = (
{
alignment = -1;
name = e;
transform = "{1, 0, 0, 1, 744, 0}";
}
);
layerId = "B5195C1E-69AB-4BC6-9855-DF55601A0735";
paths = (
{
closed = 1;
nodes = (
"659 22 OFFCURVE",
"922 172 OFFCURVE",
"922 368 CURVE SMOOTH",
"922 694 OFFCURVE",
"885 850 OFFCURVE",
"799 950 CURVE SMOOTH",
"713 1050 OFFCURVE",
"622 1105 OFFCURVE",
"482 1105 CURVE SMOOTH",
"250 1105 OFFCURVE",
"109 978 OFFCURVE",
"49 865 CURVE",
"120 806 LINE",
"169 928 OFFCURVE",
"289 1027 OFFCURVE",
"470 1027 CURVE SMOOTH",
"604 1027 OFFCURVE",
"693 972 OFFCURVE",
"749 877 CURVE SMOOTH",
"785 815 OFFCURVE",
"807 738 OFFCURVE",
"819 648 CURVE",
"788 658 OFFCURVE",
"561 692 OFFCURVE",
"463 692 CURVE SMOOTH",
"245 692 OFFCURVE",
"66 571 OFFCURVE",
"66 342 CURVE SMOOTH",
"66 95 OFFCURVE",
"267 22 OFFCURVE",
"470 22 CURVE SMOOTH"
);
},
{
closed = 1;
nodes = (
"312 94 OFFCURVE",
"155 162 OFFCURVE",
"155 347 CURVE SMOOTH",
"155 508 OFFCURVE",
"291 617 OFFCURVE",
"448 617 CURVE SMOOTH",
"590 617 OFFCURVE",
"782 587 OFFCURVE",
"828 575 CURVE",
"835 518 OFFCURVE",
"844 434 OFFCURVE",
"844 383 CURVE SMOOTH",
"844 262 OFFCURVE",
"690 94 OFFCURVE",
"462 94 CURVE SMOOTH"
);
}
);
width = 1762;
}
);
leftKerningGroup = a;
rightKerningGroup = e;
unicode = 00E6;
},
{
glyphname = b;
lastChange = "2020-06-17 15:15:09 +0000";
layers = (
{
anchors = (
{
name = bottom;
position = "{620, 0}";
},
{
name = top;
position = "{620, 1470}";
}
);
layerId = "B5042207-EFBA-41B6-8DFD-104A953B46A6";
paths = (
{
closed = 1;
nodes = (
"196 -15 OFFCURVE",
"335 -20 OFFCURVE",
"483 -19 CURVE",
"482 -9 OFFCURVE",
"477 75 OFFCURVE",
"475 114 CURVE",
"503 73 OFFCURVE",
"606 0 OFFCURVE",
"743 0 CURVE SMOOTH",
"981 0 OFFCURVE",
"1139 173 OFFCURVE",
"1139 447 CURVE SMOOTH",
"1139 772 OFFCURVE",
"974 918 OFFCURVE",
"748 918 CURVE SMOOTH",
"628 918 OFFCURVE",
"510 861 OFFCURVE",
"439 786 CURVE",
"423 1052 OFFCURVE",
"422 1335 OFFCURVE",
"422 1450 CURVE",
"217 1418 OFFCURVE",
"70 1389 OFFCURVE",
"52 1385 CURVE",
"52 1173 OFFCURVE",
"80 162 OFFCURVE",
"92 -2 CURVE"
);
},
{
closed = 1;
nodes = (
"462 400 OFFCURVE",
"458 479 OFFCURVE",
"458 501 CURVE",
"486 539 OFFCURVE",
"551 603 OFFCURVE",
"669 603 CURVE SMOOTH",
"754 603 OFFCURVE",
"786 547 OFFCURVE",
"786 479 CURVE SMOOTH",
"786 386 OFFCURVE",
"738 342 OFFCURVE",
"624 342 CURVE SMOOTH",
"566 342 OFFCURVE",
"495 361 OFFCURVE",
"464 378 CURVE"
);
}
);
width = 1200;
},
{
anchors = (
{
name = bottom;
position = "{600, 0}";
},
{
name = top;
position = "{600, 1470}";
}
);
layerId = "B5195C1E-69AB-4BC6-9855-DF55601A0735";
paths = (
{
closed = 1;
nodes = (
"239 -22 OFFCURVE",
"303 -20 OFFCURVE",
"318 -19 CURVE",
"318 12 OFFCURVE",
"316 74 OFFCURVE",
"313 113 CURVE",
"357 76 OFFCURVE",
"449 6 OFFCURVE",
"615 6 CURVE SMOOTH",
"876 6 OFFCURVE",
"1018 163 OFFCURVE",
"1018 427 CURVE SMOOTH",
"1018 698 OFFCURVE",
"892 923 OFFCURVE",
"634 923 CURVE SMOOTH",
"444 923 OFFCURVE",
"297 764 OFFCURVE",
"279 744 CURVE",
"268 980 OFFCURVE",
"256 1274 OFFCURVE",
"256 1438 CURVE",
"234 1438 OFFCURVE",
"191 1436 OFFCURVE",
"173 1433 CURVE",
"173 1221 OFFCURVE",
"205 142 OFFCURVE",
"217 -22 CURVE"
);
},
{
closed = 1;
nodes = (
"309 258 OFFCURVE",
"287 583 OFFCURVE",
"284 626 CURVE",
"352 709 OFFCURVE",
"466 844 OFFCURVE",
"629 844 CURVE SMOOTH",
"836 844 OFFCURVE",
"934 648 OFFCURVE",
"934 419 CURVE SMOOTH",
"934 219 OFFCURVE",
"838 88 OFFCURVE",
"629 88 CURVE SMOOTH",
"454 88 OFFCURVE",
"342 183 OFFCURVE",
"311 219 CURVE"
);
}
);
width = 1200;
}
);
leftKerningGroup = h;
rightKerningGroup = o;
unicode = 0062;
},
{
glyphname = c;
lastChange = "2020-01-13 21:19:07 +0000";
layers = (
{
anchors = (
{
name = bottom;
position = "{513, 0}";
},
{
name = top;
position = "{513, 1063}";
}
);
layerId = "B5042207-EFBA-41B6-8DFD-104A953B46A6";
paths = (
{
closed = 1;
nodes = (
"730 501 LINE",
"716 479 OFFCURVE",
"634 393 OFFCURVE",
"532 393 CURVE SMOOTH",
"408 393 OFFCURVE",
"380 517 OFFCURVE",
"380 598 CURVE SMOOTH",
"380 718 OFFCURVE",
"440 786 OFFCURVE",
"558 786 CURVE SMOOTH",
"650 786 OFFCURVE",
"684 727 OFFCURVE",
"691 711 CURVE",
"961 855 LINE",
"871 1011 OFFCURVE",
"725 1096 OFFCURVE",
"537 1096 CURVE SMOOTH",
"225 1096 OFFCURVE",
"12 852 OFFCURVE",
"12 543 CURVE SMOOTH",
"12 240 OFFCURVE",
"212 -12 OFFCURVE",
"522 -12 CURVE SMOOTH",
"766 -12 OFFCURVE",
"925 105 OFFCURVE",
"993 215 CURVE"
);
}
);
width = 1026;
},
{
anchors = (
{
name = bottom;
position = "{513, 0}";
},
{
name = top;
position = "{513, 1063}";
}
);
layerId = "B5195C1E-69AB-4BC6-9855-DF55601A0735";
paths = (
{
closed = 1;
nodes = (
"863 246 LINE",
"851 226 OFFCURVE",
"756 73 OFFCURVE",
"550 73 CURVE SMOOTH",
"292 73 OFFCURVE",
"181 301 OFFCURVE",
"181 572 CURVE SMOOTH",
"181 833 OFFCURVE",
"311 1023 OFFCURVE",
"539 1023 CURVE SMOOTH",
"767 1023 OFFCURVE",
"833 861 OFFCURVE",
"848 821 CURVE",
"908 880 LINE",
"864 980 OFFCURVE",
"735 1094 OFFCURVE",
"551 1094 CURVE SMOOTH",
"239 1094 OFFCURVE",
"92 871 OFFCURVE",
"92 538 CURVE SMOOTH",
"92 245 OFFCURVE",
"257 -4 OFFCURVE",
"542 -4 CURVE SMOOTH",
"743 -4 OFFCURVE",
"888 113 OFFCURVE",
"926 203 CURVE"
);
}
);
width = 1026;
}
);
leftKerningGroup = o;
rightKerningGroup = c;
unicode = 0063;
},
{
glyphname = ccedilla;
lastChange = "2020-07-03 19:53:33 +0000";
layers = (
{
components = (
{
name = c;
}
);
layerId = "B5042207-EFBA-41B6-8DFD-104A953B46A6";
paths = (
{
closed = 1;
nodes = (
"708 -497 OFFCURVE",
"926 -413 OFFCURVE",
"926 -228 CURVE SMOOTH",
"926 -95 OFFCURVE",
"851 -37 OFFCURVE",
"745 -37 CURVE SMOOTH",
"675 -37 OFFCURVE",
"619 -65 OFFCURVE",
"595 -99 CURVE",
"619 19 LINE",
"400 7 LINE",
"344 -217 LINE",
"379 -204 OFFCURVE",
"462 -189 OFFCURVE",
"539 -189 CURVE SMOOTH",
"606 -189 OFFCURVE",
"660 -200 OFFCURVE",
"660 -236 CURVE SMOOTH",
"660 -276 OFFCURVE",
"595 -297 OFFCURVE",
"477 -297 CURVE SMOOTH",
"444 -297 OFFCURVE",
"360 -285 OFFCURVE",
"331 -272 CURVE",
"267 -475 LINE",
"287 -480 OFFCURVE",
"369 -497 OFFCURVE",
"474 -497 CURVE SMOOTH"
);
}
);
width = 1026;
},
{
components = (
{
name = c;
}
);
layerId = "B5195C1E-69AB-4BC6-9855-DF55601A0735";
paths = (
{
closed = 1;
nodes = (
"728 -462 OFFCURVE",
"841 -396 OFFCURVE",
"841 -255 CURVE SMOOTH",
"841 -144 OFFCURVE",
"766 -87 OFFCURVE",
"661 -87 CURVE SMOOTH",
"613 -87 OFFCURVE",
"550 -106 OFFCURVE",
"533 -119 CURVE",
"554 39 LINE",
"482 43 LINE",
"446 -212 LINE",
"487 -194 OFFCURVE",
"585 -159 OFFCURVE",
"643 -159 CURVE SMOOTH",
"725 -159 OFFCURVE",
"752 -198 OFFCURVE",
"752 -267 CURVE SMOOTH",
"752 -359 OFFCURVE",
"661 -392 OFFCURVE",
"513 -392 CURVE SMOOTH",
"462 -392 OFFCURVE",
"386 -374 OFFCURVE",
"347 -364 CURVE",
"329 -437 LINE",
"349 -444 OFFCURVE",
"414 -462 OFFCURVE",
"518 -462 CURVE SMOOTH"
);
}
);
width = 1026;
}
);
leftKerningGroup = o;
rightKerningGroup = c;
unicode = 00E7;
},
{
glyphname = d;
lastChange = "2020-06-17 15:18:02 +0000";
layers = (
{
anchors = (
{
name = bottom;
position = "{598, 0}";
},
{
name = center;
position = "{841, 1191}";
},
{
name = top;
position = "{598, 1470}";
},
{
name = topright;
position = "{1175, 1063}";
}
);
layerId = "B5042207-EFBA-41B6-8DFD-104A953B46A6";
paths = (
{
closed = 1;
nodes = (
"825 -5 OFFCURVE",
"1019 -8 OFFCURVE",
"1075 -8 CURVE",
"1075 536 OFFCURVE",
"1088 969 OFFCURVE",
"1121 1424 CURVE",
"1028 1449 OFFCURVE",
"897 1460 OFFCURVE",
"804 1460 CURVE",
"798 1416 OFFCURVE",
"760 1060 OFFCURVE",
"750 851 CURVE",
"715 908 OFFCURVE",
"606 959 OFFCURVE",
"477 959 CURVE SMOOTH",
"177 959 OFFCURVE",
"31 723 OFFCURVE",
"31 462 CURVE SMOOTH",
"31 207 OFFCURVE",
"184 -3 OFFCURVE",
"427 -3 CURVE SMOOTH",
"601 -3 OFFCURVE",
"697 67 OFFCURVE",
"738 120 CURVE",
"738 84 OFFCURVE",
"740 27 OFFCURVE",
"744 3 CURVE"
);
},
{
closed = 1;
nodes = (
"438 359 OFFCURVE",
"385 409 OFFCURVE",
"385 499 CURVE SMOOTH",
"385 580 OFFCURVE",
"445 643 OFFCURVE",
"534 643 CURVE SMOOTH",
"599 643 OFFCURVE",
"689 613 OFFCURVE",
"731 572 CURVE",
"729 540 OFFCURVE",
"729 485 OFFCURVE",
"729 437 CURVE",
"678 376 OFFCURVE",
"601 359 OFFCURVE",
"533 359 CURVE SMOOTH"
);
}
);
width = 1195;
},
{
anchors = (
{
name = bottom;
position = "{598, 0}";
},
{
name = center;
position = "{882, 1220}";
},
{
name = top;
position = "{598, 1470}";
},
{
name = topright;
position = "{1175, 1063}";
}
);
layerId = "B5195C1E-69AB-4BC6-9855-DF55601A0735";
paths = (
{
closed = 1;
nodes = (
"930 2 OFFCURVE",
"988 1 OFFCURVE",
"1005 1 CURVE",
"1005 456 OFFCURVE",
"1006 927 OFFCURVE",
"1045 1401 CURVE",
"1027 1402 OFFCURVE",
"990 1404 OFFCURVE",
"961 1404 CURVE",
"952 1317 OFFCURVE",
"930 944 OFFCURVE",
"927 838 CURVE",
"882 872 OFFCURVE",
"748 959 OFFCURVE",
"537 959 CURVE SMOOTH",
"238 959 OFFCURVE",
"86 728 OFFCURVE",
"86 473 CURVE SMOOTH",
"86 183 OFFCURVE",
"239 8 OFFCURVE",
"524 8 CURVE SMOOTH",
"810 8 OFFCURVE",
"915 184 OFFCURVE",
"922 203 CURVE",
"922 174 OFFCURVE",
"922 43 OFFCURVE",
"922 3 CURVE"
);
},
{
closed = 1;
nodes = (
"302 85 OFFCURVE",
"172 214 OFFCURVE",
"172 469 CURVE SMOOTH",
"172 723 OFFCURVE",
"301 878 OFFCURVE",
"553 878 CURVE SMOOTH",
"736 878 OFFCURVE",
"876 790 OFFCURVE",
"925 749 CURVE",
"923 680 OFFCURVE",
"920 393 OFFCURVE",
"920 321 CURVE",
"904 283 OFFCURVE",
"794 85 OFFCURVE",
"537 85 CURVE SMOOTH"
);
}
);
width = 1195;
}
);
leftKerningGroup = o;
rightKerningGroup = l;
unicode = 0064;
},
{
glyphname = eth;
lastChange = "2020-06-18 20:06:06 +0000";
layers = (
{
layerId = "B5042207-EFBA-41B6-8DFD-104A953B46A6";
paths = (
{
closed = 1;
nodes = (
"887 -17 OFFCURVE",
"1123 197 OFFCURVE",
"1123 475 CURVE SMOOTH",
"1123 867 OFFCURVE",
"969 1055 OFFCURVE",
"675 1188 CURVE",
"699 1239 OFFCURVE",
"714 1271 OFFCURVE",
"730 1321 CURVE",
"459 1412 LINE",
"441 1366 OFFCURVE",
"427 1333 OFFCURVE",
"406 1292 CURVE",
"371 1304 OFFCURVE",
"285 1325 OFFCURVE",
"227 1330 CURVE",
"78 1075 LINE",
"142 1063 OFFCURVE",
"206 1048 OFFCURVE",
"253 1032 CURVE",
"236 1005 OFFCURVE",
"227 991 OFFCURVE",
"184 949 CURVE",
"236 926 OFFCURVE",
"346 877 OFFCURVE",
"427 836 CURVE",
"461 870 OFFCURVE",
"499 910 OFFCURVE",
"530 950 CURVE",
"560 938 OFFCURVE",
"649 874 OFFCURVE",
"689 826 CURVE",
"673 832 OFFCURVE",
"637 839 OFFCURVE",
"605 839 CURVE SMOOTH",
"320 839 OFFCURVE",
"90 660 OFFCURVE",
"90 387 CURVE SMOOTH",
"90 94 OFFCURVE",
"318 -17 OFFCURVE",
"598 -17 CURVE SMOOTH"
);
},
{
closed = 1;
nodes = (
"522 297 OFFCURVE",
"426 334 OFFCURVE",
"426 421 CURVE SMOOTH",
"426 527 OFFCURVE",
"518 583 OFFCURVE",
"624 583 CURVE SMOOTH",
"720 583 OFFCURVE",
"777 529 OFFCURVE",
"777 442 CURVE SMOOTH",
"777 327 OFFCURVE",
"673 297 OFFCURVE",
"600 297 CURVE SMOOTH"
);
}
);
width = 1200;
},
{
layerId = "B5195C1E-69AB-4BC6-9855-DF55601A0735";
paths = (
{
closed = 1;
nodes = (
"875 -17 OFFCURVE",
"1022 205 OFFCURVE",
"1022 490 CURVE SMOOTH",
"1022 808 OFFCURVE",
"870 1009 OFFCURVE",
"574 1128 CURVE",
"598 1179 OFFCURVE",
"636 1280 OFFCURVE",
"651 1330 CURVE",
"562 1366 LINE",
"553 1309 OFFCURVE",
"511 1195 OFFCURVE",
"490 1154 CURVE",
"454 1166 OFFCURVE",
"253 1229 OFFCURVE",
"195 1244 CURVE",
"150 1169 LINE",
"200 1161 OFFCURVE",
"377 1107 OFFCURVE",
"446 1084 CURVE",
"429 1046 OFFCURVE",
"358 938 OFFCURVE",
"343 923 CURVE",
"361 912 OFFCURVE",
"388 896 OFFCURVE",
"412 887 CURVE",
"444 923 OFFCURVE",
"507 1013 OFFCURVE",
"530 1056 CURVE",
"678 1008 OFFCURVE",
"870 874 OFFCURVE",
"901 730 CURVE",
"855 790 OFFCURVE",
"745 846 OFFCURVE",
"605 846 CURVE SMOOTH",
"302 846 OFFCURVE",
"157 600 OFFCURVE",
"157 342 CURVE SMOOTH",
"157 101 OFFCURVE",
"331 -17 OFFCURVE",
"581 -17 CURVE SMOOTH"
);
},
{
closed = 1;
nodes = (
"406 53 OFFCURVE",
"249 155 OFFCURVE",
"249 352 CURVE SMOOTH",
"249 564 OFFCURVE",
"367 774 OFFCURVE",
"613 774 CURVE SMOOTH",
"789 774 OFFCURVE",
"931 646 OFFCURVE",
"931 463 CURVE SMOOTH",
"931 253 OFFCURVE",
"832 53 OFFCURVE",
"576 53 CURVE SMOOTH"
);
}
);
width = 1200;
}
);
leftKerningGroup = h;
rightKerningGroup = b;
unicode = 00F0;
},
{
glyphname = dcroat;
lastChange = "2020-06-18 20:04:41 +0000";
layers = (
{
components = (
{
name = d;
}
);
layerId = "B5042207-EFBA-41B6-8DFD-104A953B46A6";
paths = (
{
closed = 1;
nodes = (
"1191 1133 OFFCURVE",
"1197 1188 OFFCURVE",
"1197 1245 CURVE",
"1046 1273 OFFCURVE",
"664 1300 OFFCURVE",
"529 1300 CURVE",
"526 1270 OFFCURVE",
"518 1184 OFFCURVE",
"518 1099 CURVE",
"634 1099 OFFCURVE",
"979 1089 OFFCURVE",
"1183 1073 CURVE"
);
}
);
width = 1195;
},
{
components = (
{
name = d;
}
);
layerId = "B5195C1E-69AB-4BC6-9855-DF55601A0735";
paths = (
{
closed = 1;
nodes = (
"1187 1152 OFFCURVE",
"1184 1179 OFFCURVE",
"1179 1188 CURVE",
"1112 1200 OFFCURVE",
"716 1229 OFFCURVE",
"574 1229 CURVE",
"572 1222 OFFCURVE",
"572 1194 OFFCURVE",
"572 1170 CURVE",
"740 1170 OFFCURVE",
"1017 1153 OFFCURVE",
"1187 1138 CURVE"
);
}
);
width = 1195;
}
);
leftKerningGroup = o;
rightKerningGroup = l;
unicode = 0111;
},
{
glyphname = e;
lastChange = "2020-07-16 19:45:10 +0000";
layers = (
{
anchors = (
{
name = bottom;
position = "{572, 10}";
},
{
name = ogonek;
position = "{776, 14}";
},
{
name = top;
position = "{617, 1063}";
}
);
layerId = "B5042207-EFBA-41B6-8DFD-104A953B46A6";
paths = (
{
closed = 1;
nodes = (
"1005 261 OFFCURVE",
"841 429 OFFCURVE",
"824 442 CURVE",
"745 368 OFFCURVE",
"677 349 OFFCURVE",
"602 349 CURVE SMOOTH",
"524 349 OFFCURVE",
"457 378 OFFCURVE",
"436 434 CURVE SMOOTH",
"431 448 OFFCURVE",
"429 466 OFFCURVE",
"429 482 CURVE",
"478 491 OFFCURVE",
"571 502 OFFCURVE",
"674 502 CURVE SMOOTH",
"719 502 OFFCURVE",
"1016 497 OFFCURVE",
"1059 495 CURVE",
"1069 543 OFFCURVE",
"1073 579 OFFCURVE",
"1073 632 CURVE SMOOTH",
"1073 906 OFFCURVE",
"892 1063 OFFCURVE",
"607 1063 CURVE SMOOTH",
"267 1063 OFFCURVE",
"50 832 OFFCURVE",
"50 485 CURVE SMOOTH",
"50 149 OFFCURVE",
"272 -16 OFFCURVE",
"577 -16 CURVE SMOOTH",
"818 -16 OFFCURVE",
"967 48 OFFCURVE",
"1053 150 CURVE"
);
},
{
closed = 1;
nodes = (
"451 748 OFFCURVE",
"494 831 OFFCURVE",
"593 831 CURVE SMOOTH",
"662 831 OFFCURVE",
"715 793 OFFCURVE",
"730 744 CURVE SMOOTH",
"733 734 OFFCURVE",
"735 724 OFFCURVE",
"735 714 CURVE",
"718 715 OFFCURVE",
"671 717 OFFCURVE",
"625 717 CURVE SMOOTH",
"543 717 OFFCURVE",
"483 710 OFFCURVE",
"446 704 CURVE"
);
}
);
width = 1123;
},
{
anchors = (
{
name = bottom;
position = "{556, 10}";
},
{
name = ogonek;
position = "{737, 53}";
},
{
name = top;
position = "{602, 1070}";
}
);
layerId = "B5195C1E-69AB-4BC6-9855-DF55601A0735";
paths = (
{
closed = 1;
nodes = (
"1023 284 OFFCURVE",
"982 319 OFFCURVE",
"965 333 CURVE",
"958 319 OFFCURVE",
"847 101 OFFCURVE",
"578 101 CURVE SMOOTH",
"402 101 OFFCURVE",
"236 204 OFFCURVE",
"194 367 CURVE SMOOTH",
"184 407 OFFCURVE",
"176 450 OFFCURVE",
"175 497 CURVE",
"321 518 OFFCURVE",
"507 537 OFFCURVE",
"661 537 CURVE SMOOTH",
"803 537 OFFCURVE",
"961 527 OFFCURVE",
"990 525 CURVE",
"990 564 OFFCURVE",
"988 602 OFFCURVE",
"984 638 CURVE SMOOTH",
"957 894 OFFCURVE",
"830 1070 OFFCURVE",
"592 1070 CURVE SMOOTH",
"308 1070 OFFCURVE",
"88 877 OFFCURVE",
"88 568 CURVE SMOOTH",
"88 228 OFFCURVE",
"273 27 OFFCURVE",
"572 27 CURVE SMOOTH",
"840 27 OFFCURVE",
"995 207 OFFCURVE",
"1031 266 CURVE"
);
},
{
closed = 1;
nodes = (
"175 849 OFFCURVE",
"365 984 OFFCURVE",
"584 984 CURVE SMOOTH",
"780 984 OFFCURVE",
"863 833 OFFCURVE",
"890 706 CURVE SMOOTH",
"897 672 OFFCURVE",
"900 639 OFFCURVE",
"900 612 CURVE",
"870 614 OFFCURVE",
"799 618 OFFCURVE",
"688 618 CURVE SMOOTH",
"471 618 OFFCURVE",
"300 599 OFFCURVE",
"169 578 CURVE"
);
}
);
width = 1092;
}
);
leftKerningGroup = o;
rightKerningGroup = e;
unicode = 0065;
},
{
glyphname = ecedillabreve;
lastChange = "2020-07-08 20:01:41 +0000";
layers = (
{
components = (
{
name = e;
},
{
name = brevecomb;
transform = "{1, 0, 0, 1, 147, 10}";
}
);
layerId = "B5195C1E-69AB-4BC6-9855-DF55601A0735";
paths = (
{
closed = 1;
nodes = (
"771 -452 OFFCURVE",
"884 -386 OFFCURVE",
"884 -245 CURVE SMOOTH",
"884 -134 OFFCURVE",
"809 -77 OFFCURVE",
"704 -77 CURVE SMOOTH",
"656 -77 OFFCURVE",
"593 -96 OFFCURVE",
"576 -109 CURVE",
"597 49 LINE",
"525 53 LINE",
"489 -202 LINE",
"530 -184 OFFCURVE",
"628 -149 OFFCURVE",
"686 -149 CURVE SMOOTH",
"768 -149 OFFCURVE",
"795 -188 OFFCURVE",
"795 -257 CURVE SMOOTH",
"795 -349 OFFCURVE",
"704 -382 OFFCURVE",
"556 -382 CURVE SMOOTH",
"505 -382 OFFCURVE",
"429 -364 OFFCURVE",
"390 -354 CURVE",
"372 -427 LINE",
"392 -434 OFFCURVE",
"457 -452 OFFCURVE",
"561 -452 CURVE SMOOTH"
);
}
);
width = 1092;
},
{
components = (
{
name = e;
},
{
name = brevecomb;
transform = "{1, 0, 0, 1, 159, 10}";
}
);
layerId = "B5042207-EFBA-41B6-8DFD-104A953B46A6";
paths = (
{
closed = 1;
nodes = (
"767 -527 OFFCURVE",
"985 -443 OFFCURVE",
"985 -258 CURVE SMOOTH",
"985 -125 OFFCURVE",
"910 -67 OFFCURVE",
"804 -67 CURVE SMOOTH",
"734 -67 OFFCURVE",
"678 -95 OFFCURVE",
"654 -129 CURVE",
"688 39 LINE",
"469 27 LINE",
"403 -247 LINE",
"438 -234 OFFCURVE",
"521 -219 OFFCURVE",
"598 -219 CURVE SMOOTH",
"665 -219 OFFCURVE",
"719 -230 OFFCURVE",
"719 -266 CURVE SMOOTH",
"719 -306 OFFCURVE",
"654 -327 OFFCURVE",
"536 -327 CURVE SMOOTH",
"503 -327 OFFCURVE",
"419 -315 OFFCURVE",
"390 -302 CURVE",
"326 -505 LINE",
"346 -510 OFFCURVE",
"428 -527 OFFCURVE",
"533 -527 CURVE SMOOTH"
);
}
);
width = 1123;
}
);
unicode = 1E1D;
},
{
glyphname = eogonek;
lastChange = "2020-07-03 19:54:48 +0000";
layers = (
{
components = (
{
name = e;
}
);
layerId = "B5042207-EFBA-41B6-8DFD-104A953B46A6";
paths = (
{
closed = 1;
nodes = (
"851 -268 OFFCURVE",
"806 -277 OFFCURVE",
"763 -277 CURVE SMOOTH",
"710 -277 OFFCURVE",
"656 -253 OFFCURVE",
"656 -181 CURVE SMOOTH",
"656 -101 OFFCURVE",
"731 -17 OFFCURVE",
"776 14 CURVE",
"640 72 LINE",
"575 53 OFFCURVE",
"393 -98 OFFCURVE",
"393 -270 CURVE SMOOTH",
"393 -437 OFFCURVE",
"537 -522 OFFCURVE",
"695 -522 CURVE SMOOTH",
"799 -522 OFFCURVE",
"861 -509 OFFCURVE",
"890 -497 CURVE",
"890 -240 LINE"
);
}
);
width = 1123;
},
{
components = (
{
name = e;
}
);
layerId = "B5195C1E-69AB-4BC6-9855-DF55601A0735";
paths = (
{
closed = 1;
nodes = (
"785 -350 OFFCURVE",
"736 -370 OFFCURVE",
"642 -370 CURVE SMOOTH",
"552 -370 OFFCURVE",
"495 -339 OFFCURVE",
"495 -237 CURVE SMOOTH",
"495 -124 OFFCURVE",
"625 10 OFFCURVE",
"737 53 CURVE",
"672 98 LINE",
"533 39 OFFCURVE",
"409 -101 OFFCURVE",
"409 -244 CURVE SMOOTH",
"409 -373 OFFCURVE",
"489 -450 OFFCURVE",
"626 -450 CURVE SMOOTH",
"730 -450 OFFCURVE",
"802 -428 OFFCURVE",
"858 -404 CURVE",
"858 -317 LINE"
);
}
);
width = 1092;
}
);
leftKerningGroup = o;
rightKerningGroup = e;
unicode = 0119;
},
{
glyphname = schwa;
lastChange = "2020-02-19 21:15:26 +0000";
layers = (
{
anchors = (
{
name = bottom;
position = "{516, 0}";
},
{
name = ogonek;
position = "{594, 53}";
},
{
name = top;
position = "{516, 1063}";
}
);
layerId = "B5195C1E-69AB-4BC6-9855-DF55601A0735";
paths = (
{
closed = 1;
nodes = (
"106 803 OFFCURVE",
"147 768 OFFCURVE",
"164 754 CURVE",
"171 768 OFFCURVE",
"282 986 OFFCURVE",
"551 986 CURVE SMOOTH",
"727 986 OFFCURVE",
"845 884 OFFCURVE",
"887 721 CURVE SMOOTH",
"897 681 OFFCURVE",
"903 637 OFFCURVE",
"904 590 CURVE",
"758 584 OFFCURVE",
"622 577 OFFCURVE",
"468 570 CURVE SMOOTH",
"326 564 OFFCURVE",
"158 559 OFFCURVE",
"139 559 CURVE",
"139 520 OFFCURVE",
"141 485 OFFCURVE",
"145 449 CURVE SMOOTH",
"172 193 OFFCURVE",
"299 17 OFFCURVE",
"537 17 CURVE SMOOTH",
"821 17 OFFCURVE",
"991 220 OFFCURVE",
"991 519 CURVE SMOOTH",
"991 839 OFFCURVE",
"856 1060 OFFCURVE",
"557 1060 CURVE SMOOTH",
"289 1060 OFFCURVE",
"134 880 OFFCURVE",
"98 821 CURVE"
);
},
{
closed = 1;
nodes = (
"904 238 OFFCURVE",
"764 103 OFFCURVE",
"545 103 CURVE SMOOTH",
"349 103 OFFCURVE",
"266 254 OFFCURVE",
"239 381 CURVE SMOOTH",
"232 415 OFFCURVE",
"229 448 OFFCURVE",
"229 475 CURVE",
"240 475 OFFCURVE",
"330 485 OFFCURVE",
"441 489 CURVE SMOOTH",
"643 497 OFFCURVE",
"789 503 OFFCURVE",
"910 509 CURVE"
);
}
);
width = 1032;
},
{
anchors = (
{
name = bottom;
position = "{516, 0}";
},
{
name = ogonek;
position = "{551, 20}";
},
{
name = top;
position = "{516, 1063}";
}
);
layerId = "B5042207-EFBA-41B6-8DFD-104A953B46A6";
paths = (
{
closed = 1;
nodes = (
"82 786 OFFCURVE",
"209 646 OFFCURVE",
"226 633 CURVE",
"315 707 OFFCURVE",
"435 721 OFFCURVE",
"485 721 CURVE SMOOTH",
"563 721 OFFCURVE",
"632 676 OFFCURVE",
"651 610 CURVE SMOOTH",
"655 596 OFFCURVE",
"658 581 OFFCURVE",
"658 565 CURVE",
"609 558 OFFCURVE",
"516 545 OFFCURVE",
"413 542 CURVE SMOOTH",
"322 539 OFFCURVE",
"81 532 OFFCURVE",
"48 532 CURVE",
"38 482 OFFCURVE",
"34 438 OFFCURVE",
"34 385 CURVE SMOOTH",
"34 111 OFFCURVE",
"195 -16 OFFCURVE",
"480 -16 CURVE SMOOTH",
"830 -16 OFFCURVE",
"997 225 OFFCURVE",
"997 582 CURVE SMOOTH",
"997 898 OFFCURVE",
"740 1063 OFFCURVE",
"510 1063 CURVE SMOOTH",
"332 1063 OFFCURVE",
"130 999 OFFCURVE",
"34 897 CURVE"
);
},
{
closed = 1;
nodes = (
"636 329 OFFCURVE",
"593 226 OFFCURVE",
"494 226 CURVE SMOOTH",
"425 226 OFFCURVE",
"372 264 OFFCURVE",
"357 313 CURVE SMOOTH",
"354 323 OFFCURVE",
"352 333 OFFCURVE",
"352 343 CURVE",
"367 343 OFFCURVE",
"416 347 OFFCURVE",
"462 351 CURVE SMOOTH",
"544 358 OFFCURVE",
"604 367 OFFCURVE",
"641 373 CURVE"
);
}
);
width = 1032;
}
);
leftKerningGroup = o;
rightKerningGroup = o;
unicode = 0259;
},
{
glyphname = f;
lastChange = "2020-07-16 19:17:15 +0000";
layers = (
{
anchors = (
{
name = bottom;
position = "{448, 0}";
},
{
name = top;
position = "{448, 1470}";
}
);
layerId = "B5042207-EFBA-41B6-8DFD-104A953B46A6";
paths = (
{
closed = 1;
nodes = (
"343 -15 OFFCURVE",
"543 -12 OFFCURVE",
"641 4 CURVE",
"631 55 OFFCURVE",
"569 400 OFFCURVE",
"557 475 CURVE",
"605 479 OFFCURVE",
"729 482 OFFCURVE",
"748 482 CURVE",
"748 576 OFFCURVE",
"745 709 OFFCURVE",
"735 796 CURVE",
"696 802 OFFCURVE",
"573 809 OFFCURVE",
"513 809 CURVE",
"505 832 OFFCURVE",
"504 849 OFFCURVE",
"504 868 CURVE SMOOTH",
"504 930 OFFCURVE",
"535 972 OFFCURVE",
"600 972 CURVE SMOOTH",
"636 972 OFFCURVE",
"685 945 OFFCURVE",
"720 898 CURVE",
"752 944 OFFCURVE",
"856 1115 OFFCURVE",
"909 1213 CURVE",
"873 1265 OFFCURVE",
"793 1357 OFFCURVE",
"562 1357 CURVE SMOOTH",
"269 1357 OFFCURVE",
"127 1133 OFFCURVE",
"127 898 CURVE SMOOTH",
"127 850 OFFCURVE",
"131 801 OFFCURVE",
"138 752 CURVE",
"113 747 OFFCURVE",
"41 730 OFFCURVE",
"17 721 CURVE",
"17 603 OFFCURVE",
"31 463 OFFCURVE",
"55 385 CURVE",
"96 400 OFFCURVE",
"145 414 OFFCURVE",
"162 417 CURVE",
"184 225 OFFCURVE",
"207 36 OFFCURVE",
"215 -15 CURVE"
);
}
);
width = 896;
},
{
anchors = (
{
name = bottom;
position = "{448, 0}";
},
{
name = top;
position = "{448, 1470}";
}
);
layerId = "B5195C1E-69AB-4BC6-9855-DF55601A0735";
paths = (
{
closed = 1;
nodes = (
"361 3 OFFCURVE",
"409 12 OFFCURVE",
"434 19 CURVE",
"421 50 OFFCURVE",
"350 398 OFFCURVE",
"323 583 CURVE",
"451 600 OFFCURVE",
"634 614 OFFCURVE",
"653 614 CURVE",
"653 639 OFFCURVE",
"650 672 OFFCURVE",
"646 691 CURVE",
"573 691 OFFCURVE",
"381 670 OFFCURVE",
"312 660 CURVE",
"304 728 OFFCURVE",
"294 840 OFFCURVE",
"294 912 CURVE SMOOTH",
"294 1108 OFFCURVE",
"341 1293 OFFCURVE",
"529 1293 CURVE SMOOTH",
"712 1293 OFFCURVE",
"794 1081 OFFCURVE",
"807 1046 CURVE",
"824 1058 OFFCURVE",
"863 1092 OFFCURVE",
"874 1106 CURVE",
"852 1167 OFFCURVE",
"736 1368 OFFCURVE",
"527 1368 CURVE SMOOTH",
"308 1368 OFFCURVE",
"211 1170 OFFCURVE",
"211 923 CURVE SMOOTH",
"211 839 OFFCURVE",
"220 737 OFFCURVE",
"231 646 CURVE",
"204 641 OFFCURVE",
"46 603 OFFCURVE",
"21 593 CURVE",
"24 573 OFFCURVE",
"31 542 OFFCURVE",
"39 520 CURVE",
"80 535 OFFCURVE",
"177 559 OFFCURVE",
"240 571 CURVE",
"269 368 OFFCURVE",
"340 21 OFFCURVE",
"344 2 CURVE"
);
}
);
width = 896;
}
);
leftKerningGroup = f;
rightKerningGroup = f;
unicode = 0066;
},
{
glyphname = g;
lastChange = "2020-07-08 20:47:17 +0000";
layers = (
{
anchors = (
{
name = bottom;
position = "{616, -530}";
},
{
name = top;
position = "{616, 1063}";
}
);
layerId = "B5042207-EFBA-41B6-8DFD-104A953B46A6";
paths = (
{
closed = 1;
nodes = (
"946 274 OFFCURVE",
"1128 407 OFFCURVE",
"1128 677 CURVE SMOOTH",
"1128 902 OFFCURVE",
"972 1056 OFFCURVE",
"634 1056 CURVE SMOOTH",
"315 1056 OFFCURVE",
"85 924 OFFCURVE",
"85 664 CURVE SMOOTH",
"85 468 OFFCURVE",
"227 274 OFFCURVE",
"663 274 CURVE SMOOTH"
);
},
{
closed = 1;
nodes = (
"926 -499 OFFCURVE",
"1178 -395 OFFCURVE",
"1178 -106 CURVE SMOOTH",
"1178 113 OFFCURVE",
"1031 207 OFFCURVE",
"819 207 CURVE SMOOTH",
"677 207 OFFCURVE",
"600 203 OFFCURVE",
"519 197 CURVE SMOOTH",
"220 175 OFFCURVE",
"36 30 OFFCURVE",
"36 -140 CURVE SMOOTH",
"36 -424 OFFCURVE",
"301 -499 OFFCURVE",
"621 -499 CURVE SMOOTH"
);
},
{
closed = 1;
nodes = (
"504 -264 OFFCURVE",
"431 -221 OFFCURVE",
"431 -159 CURVE SMOOTH",
"431 -91 OFFCURVE",
"468 -77 OFFCURVE",
"535 -77 CURVE SMOOTH",
"579 -77 OFFCURVE",
"645 -77 OFFCURVE",
"684 -77 CURVE SMOOTH",
"752 -77 OFFCURVE",
"810 -101 OFFCURVE",
"810 -162 CURVE SMOOTH",
"810 -228 OFFCURVE",
"737 -264 OFFCURVE",
"628 -264 CURVE SMOOTH"
);
},
{
closed = 1;
nodes = (
"519 197 LINE",
"452 197 OFFCURVE",
"419 225 OFFCURVE",
"419 255 CURVE SMOOTH",
"419 278 OFFCURVE",
"440 303 OFFCURVE",
"482 318 CURVE",
"231 436 LINE",
"189 422 OFFCURVE",
"111 368 OFFCURVE",
"111 269 CURVE SMOOTH",
"111 188 OFFCURVE",
"171 124 OFFCURVE",
"371 80 CURVE"
);
},
{
closed = 1;
nodes = (
"551 566 OFFCURVE",
"483 597 OFFCURVE",
"483 673 CURVE SMOOTH",
"483 751 OFFCURVE",
"569 774 OFFCURVE",
"643 774 CURVE SMOOTH",
"706 774 OFFCURVE",
"774 737 OFFCURVE",
"774 675 CURVE SMOOTH",
"774 593 OFFCURVE",
"716 566 OFFCURVE",
"632 566 CURVE SMOOTH"
);
},
{
closed = 1;
nodes = (
"1081 870 OFFCURVE",
"1156 924 OFFCURVE",
"1229 956 CURVE",
"1181 1017 OFFCURVE",
"1095 1143 OFFCURVE",
"1061 1193 CURVE",
"969 1156 OFFCURVE",
"859 1045 OFFCURVE",
"840 967 CURVE",
"1060 781 LINE"
);
}
);
width = 1231;
},
{
anchors = (
{
name = bottom;
position = "{616, -530}";
},
{
name = top;
position = "{616, 1063}";
}
);
layerId = "B5195C1E-69AB-4BC6-9855-DF55601A0735";
paths = (
{
closed = 1;
nodes = (
"864 205 OFFCURVE",
"1052 372 OFFCURVE",
"1052 643 CURVE SMOOTH",
"1052 903 OFFCURVE",
"885 1056 OFFCURVE",
"612 1056 CURVE SMOOTH",
"375 1056 OFFCURVE",
"180 896 OFFCURVE",
"180 635 CURVE SMOOTH",
"180 419 OFFCURVE",
"299 205 OFFCURVE",
"627 205 CURVE SMOOTH"
);
},
{
closed = 1;
nodes = (
"892 -499 OFFCURVE",
"1073 -401 OFFCURVE",
"1073 -175 CURVE SMOOTH",
"1073 -5 OFFCURVE",
"914 72 OFFCURVE",
"702 72 CURVE SMOOTH",
"624 72 OFFCURVE",
"509 72 OFFCURVE",
"424 72 CURVE SMOOTH",
"210 72 OFFCURVE",
"78 -52 OFFCURVE",
"78 -208 CURVE SMOOTH",
"78 -432 OFFCURVE",
"285 -499 OFFCURVE",
"571 -499 CURVE SMOOTH"
);
},
{
closed = 1;
nodes = (
"372 -429 OFFCURVE",
"168 -393 OFFCURVE",
"168 -208 CURVE SMOOTH",
"168 -41 OFFCURVE",
"315 5 OFFCURVE",
"410 5 CURVE SMOOTH",
"455 5 OFFCURVE",
"605 5 OFFCURVE",
"706 5 CURVE SMOOTH",
"822 5 OFFCURVE",
"985 -26 OFFCURVE",
"985 -187 CURVE SMOOTH",
"985 -378 OFFCURVE",
"799 -429 OFFCURVE",
"589 -429 CURVE SMOOTH"
);
},
{
closed = 1;
nodes = (
"424 71 LINE",
"325 71 OFFCURVE",
"255 135 OFFCURVE",
"255 196 CURVE SMOOTH",
"255 238 OFFCURVE",
"286 281 OFFCURVE",
"366 306 CURVE",
"326 350 LINE",
"236 336 OFFCURVE",
"174 262 OFFCURVE",
"174 190 CURVE SMOOTH",
"174 114 OFFCURVE",
"243 27 OFFCURVE",
"366 11 CURVE"
);
},
{
closed = 1;
nodes = (
"401 282 OFFCURVE",
"267 428 OFFCURVE",
"267 640 CURVE SMOOTH",
"267 877 OFFCURVE",
"413 974 OFFCURVE",
"631 974 CURVE SMOOTH",
"839 974 OFFCURVE",
"972 833 OFFCURVE",
"972 650 CURVE SMOOTH",
"972 447 OFFCURVE",
"872 282 OFFCURVE",
"611 282 CURVE SMOOTH"
);
},
{
closed = 1;
nodes = (
"950 909 OFFCURVE",
"1076 1034 OFFCURVE",
"1103 1057 CURVE",
"1091 1066 OFFCURVE",
"1049 1113 OFFCURVE",
"1039 1128 CURVE",
"991 1079 OFFCURVE",
"914 986 OFFCURVE",
"875 908 CURVE",
"921 872 LINE"
);
}
);
width = 1231;
}
);
leftKerningGroup = g.ss01;
rightKerningGroup = g.ss01;
unicode = 0067;
},
{
glyphname = g.ss01;
lastChange = "2020-07-08 20:49:32 +0000";
layers = (
{
anchors = (
{
name = bottom;
position = "{627, -530}";
},
{
name = top;
position = "{512, 1063}";
}
);
layerId = "B5042207-EFBA-41B6-8DFD-104A953B46A6";
paths = (
{
closed = 1;
nodes = (
"183 -399 OFFCURVE",
"469 -479 OFFCURVE",
"683 -479 CURVE SMOOTH",
"979 -479 OFFCURVE",
"1192 -347 OFFCURVE",
"1192 -48 CURVE SMOOTH",
"1192 45 OFFCURVE",
"1183 200 OFFCURVE",
"1172 375 CURVE SMOOTH",
"1158 608 OFFCURVE",
"1142 877 OFFCURVE",
"1142 1089 CURVE",
"1080 1103 OFFCURVE",
"975 1109 OFFCURVE",
"889 1109 CURVE SMOOTH",
"838 1109 OFFCURVE",
"793 1107 OFFCURVE",
"768 1103 CURVE",
"761 1056 OFFCURVE",
"759 997 OFFCURVE",
"759 969 CURVE",
"673 1013 OFFCURVE",
"581 1039 OFFCURVE",
"493 1039 CURVE SMOOTH",
"233 1039 OFFCURVE",
"0 906 OFFCURVE",
"0 561 CURVE SMOOTH",
"0 197 OFFCURVE",
"250 60 OFFCURVE",
"545 60 CURVE SMOOTH",
"609 60 OFFCURVE",
"696 62 OFFCURVE",
"812 99 CURVE",
"814 79 OFFCURVE",
"815 60 OFFCURVE",
"815 43 CURVE SMOOTH",
"815 -77 OFFCURVE",
"750 -119 OFFCURVE",
"663 -119 CURVE SMOOTH",
"543 -119 OFFCURVE",
"371 -54 OFFCURVE",
"256 19 CURVE",
"222 -19 OFFCURVE",
"44 -266 OFFCURVE",
"38 -286 CURVE"
);
},
{
closed = 1;
nodes = (
"467 408 OFFCURVE",
"362 439 OFFCURVE",
"362 550 CURVE SMOOTH",
"362 657 OFFCURVE",
"429 711 OFFCURVE",
"560 711 CURVE SMOOTH",
"630 711 OFFCURVE",
"704 686 OFFCURVE",
"756 661 CURVE",
"756 614 OFFCURVE",
"769 509 OFFCURVE",
"774 470 CURVE",
"720 441 OFFCURVE",
"636 408 OFFCURVE",
"554 408 CURVE SMOOTH"
);
}
);
width = 1253;
},
{
anchors = (
{
name = bottom;
position = "{627, -530}";
},
{
name = top;
position = "{557, 1063}";
}
);
layerId = "B5195C1E-69AB-4BC6-9855-DF55601A0735";
paths = (
{
closed = 1;
nodes = (
"204 -418 OFFCURVE",
"394 -471 OFFCURVE",
"575 -471 CURVE SMOOTH",
"919 -471 OFFCURVE",
"1060 -278 OFFCURVE",
"1060 93 CURVE SMOOTH",
"1060 248 OFFCURVE",
"1033 438 OFFCURVE",
"1016 556 CURVE SMOOTH",
"998 680 OFFCURVE",
"990 899 OFFCURVE",
"990 1088 CURVE",
"977 1091 OFFCURVE",
"964 1093 OFFCURVE",
"949 1093 CURVE SMOOTH",
"937 1093 OFFCURVE",
"916 1092 OFFCURVE",
"909 1091 CURVE",
"907 1065 OFFCURVE",
"902 999 OFFCURVE",
"902 961 CURVE",
"846 1019 OFFCURVE",
"728 1062 OFFCURVE",
"588 1062 CURVE SMOOTH",
"320 1062 OFFCURVE",
"108 877 OFFCURVE",
"108 562 CURVE SMOOTH",
"108 287 OFFCURVE",
"278 60 OFFCURVE",
"572 60 CURVE SMOOTH",
"794 60 OFFCURVE",
"942 156 OFFCURVE",
"971 193 CURVE",
"974 172 OFFCURVE",
"976 146 OFFCURVE",
"976 91 CURVE SMOOTH",
"976 -201 OFFCURVE",
"863 -397 OFFCURVE",
"572 -397 CURVE SMOOTH",
"396 -397 OFFCURVE",
"211 -324 OFFCURVE",
"145 -282 CURVE",
"135 -296 OFFCURVE",
"116 -352 OFFCURVE",
"115 -373 CURVE"
);
},
{
closed = 1;
nodes = (
"346 135 OFFCURVE",
"193 327 OFFCURVE",
"193 555 CURVE SMOOTH",
"193 877 OFFCURVE",
"420 980 OFFCURVE",
"578 980 CURVE SMOOTH",
"718 980 OFFCURVE",
"846 942 OFFCURVE",
"905 861 CURVE",
"905 742 OFFCURVE",
"934 466 OFFCURVE",
"961 273 CURVE",
"906 222 OFFCURVE",
"772 135 OFFCURVE",
"584 135 CURVE SMOOTH"
);
}
);
width = 1253;
}
);
leftKerningGroup = g;
rightKerningGroup = g;
},
{
glyphname = h;
lastChange = "2020-07-16 19:17:36 +0000";
layers = (
{
anchors = (
{
name = bottom;
position = "{572, 0}";
},
{
name = center;
position = "{338, 1189}";
},
{
name = top;
position = "{232, 1436}";
}
);
layerId = "B5042207-EFBA-41B6-8DFD-104A953B46A6";
paths = (
{
closed = 1;
nodes = (
"454 97 OFFCURVE",
"473 295 OFFCURVE",
"473 492 CURVE",
"513 540 OFFCURVE",
"569 580 OFFCURVE",
"632 580 CURVE SMOOTH",
"687 580 OFFCURVE",
"720 538 OFFCURVE",
"720 449 CURVE SMOOTH",
"720 362 OFFCURVE",
"692 124 OFFCURVE",
"673 9 CURVE",
"728 -2 OFFCURVE",
"793 -8 OFFCURVE",
"859 -8 CURVE SMOOTH",
"919 -8 OFFCURVE",
"980 -3 OFFCURVE",
"1037 7 CURVE",
"1062 139 OFFCURVE",
"1084 353 OFFCURVE",
"1084 519 CURVE SMOOTH",
"1084 779 OFFCURVE",
"1031 913 OFFCURVE",
"774 913 CURVE SMOOTH",
"665 913 OFFCURVE",
"543 870 OFFCURVE",
"475 802 CURVE",
"466 1072 OFFCURVE",
"441 1292 OFFCURVE",
"410 1443 CURVE",
"338 1443 OFFCURVE",
"68 1405 OFFCURVE",
"48 1398 CURVE",
"62 1174 OFFCURVE",
"80 861 OFFCURVE",
"80 583 CURVE SMOOTH",
"80 334 OFFCURVE",
"64 111 OFFCURVE",
"51 3 CURVE",
"86 -11 OFFCURVE",
"165 -16 OFFCURVE",
"252 -16 CURVE SMOOTH",
"325 -16 OFFCURVE",
"398 -12 OFFCURVE",
"436 -5 CURVE"
);
}
);
width = 1123;
},
{
anchors = (
{
name = bottom;
position = "{562, 0}";
},
{
name = center;
position = "{335, 1265}";
},
{
name = top;
position = "{192, 1403}";
}
);
layerId = "B5195C1E-69AB-4BC6-9855-DF55601A0735";
paths = (
{
closed = 1;
nodes = (
"267 60 OFFCURVE",
"280 349 OFFCURVE",
"280 585 CURVE",
"287 610 OFFCURVE",
"453 827 OFFCURVE",
"650 827 CURVE SMOOTH",
"827 827 OFFCURVE",
"857 684 OFFCURVE",
"857 485 CURVE SMOOTH",
"857 314 OFFCURVE",
"831 126 OFFCURVE",
"812 -11 CURVE",
"821 -12 OFFCURVE",
"842 -14 OFFCURVE",
"861 -14 CURVE SMOOTH",
"880 -14 OFFCURVE",
"899 -14 OFFCURVE",
"913 -14 CURVE",
"930 156 OFFCURVE",
"950 359 OFFCURVE",
"950 502 CURVE SMOOTH",
"950 737 OFFCURVE",
"868 909 OFFCURVE",
"671 909 CURVE SMOOTH",
"506 909 OFFCURVE",
"347 802 OFFCURVE",
"279 706 CURVE",
"279 978 OFFCURVE",
"268 1292 OFFCURVE",
"238 1443 CURVE",
"222 1441 OFFCURVE",
"185 1431 OFFCURVE",
"166 1424 CURVE",
"178 1234 OFFCURVE",
"187 981 OFFCURVE",
"187 733 CURVE SMOOTH",
"187 427 OFFCURVE",
"175 134 OFFCURVE",
"156 -26 CURVE",
"164 -27 OFFCURVE",
"187 -29 OFFCURVE",
"202 -29 CURVE SMOOTH",
"220 -29 OFFCURVE",
"239 -29 OFFCURVE",
"253 -29 CURVE"
);
}
);
width = 1123;
}
);
leftKerningGroup = h;
rightKerningGroup = n;
unicode = 0068;
},
{
glyphname = hbar;
lastChange = "2020-06-29 18:08:01 +0000";
layers = (
{
components = (
{
name = h;
}
);
layerId = "B5042207-EFBA-41B6-8DFD-104A953B46A6";
paths = (
{
closed = 1;
nodes = (
"652 1184 OFFCURVE",
"644 1270 OFFCURVE",
"641 1300 CURVE",
"506 1300 OFFCURVE",
"124 1273 OFFCURVE",
"-27 1245 CURVE",
"-27 1188 OFFCURVE",
"-21 1133 OFFCURVE",
"-13 1073 CURVE",
"191 1089 OFFCURVE",
"536 1099 OFFCURVE",
"652 1099 CURVE"
);
}
);
width = 1123;
},
{
components = (
{
name = h;
}
);
layerId = "B5195C1E-69AB-4BC6-9855-DF55601A0735";
paths = (
{
closed = 1;
nodes = (
"612 1194 OFFCURVE",
"612 1222 OFFCURVE",
"610 1229 CURVE",
"468 1229 OFFCURVE",
"72 1200 OFFCURVE",
"5 1188 CURVE",
"0 1179 OFFCURVE",
"-3 1152 OFFCURVE",
"-3 1138 CURVE",
"167 1153 OFFCURVE",
"444 1170 OFFCURVE",
"612 1170 CURVE"
);
}
);
width = 1123;
}
);
leftKerningGroup = h;
rightKerningGroup = n;
unicode = 0127;
},
{
glyphname = i;
lastChange = "2020-06-17 15:22:51 +0000";
layers = (
{
anchors = (
{
name = bottom;
position = "{301, 0}";
}
);
layerId = "B5042207-EFBA-41B6-8DFD-104A953B46A6";
paths = (
{
closed = 1;
nodes = (
"490 83 OFFCURVE",
"507 387 OFFCURVE",
"507 627 CURVE SMOOTH",
"507 754 OFFCURVE",
"501 865 OFFCURVE",
"492 911 CURVE",
"411 911 OFFCURVE",
"195 903 OFFCURVE",
"125 898 CURVE",
"125 690 OFFCURVE",
"85 92 OFFCURVE",
"70 5 CURVE",
"134 -3 OFFCURVE",
"200 -6 OFFCURVE",
"261 -6 CURVE SMOOTH",
"350 -6 OFFCURVE",
"441 1 OFFCURVE",
"465 3 CURVE"
);
},
{
closed = 1;
nodes = (
"441 1022 OFFCURVE",
"538 1116 OFFCURVE",
"538 1240 CURVE SMOOTH",
"538 1372 OFFCURVE",
"438 1463 OFFCURVE",
"307 1463 CURVE SMOOTH",
"184 1463 OFFCURVE",
"65 1379 OFFCURVE",
"65 1244 CURVE SMOOTH",
"65 1108 OFFCURVE",
"179 1022 OFFCURVE",
"319 1022 CURVE SMOOTH"
);
}
);
width = 610;
},
{
anchors = (
{
name = bottom;
position = "{276, 0}";
}
);
layerId = "B5195C1E-69AB-4BC6-9855-DF55601A0735";
paths = (
{
closed = 1;
nodes = (
"329 93 OFFCURVE",
"336 523 OFFCURVE",
"336 776 CURVE SMOOTH",
"336 848 OFFCURVE",
"335 907 OFFCURVE",
"334 938 CURVE",
"322 938 OFFCURVE",
"267 934 OFFCURVE",
"261 933 CURVE",
"261 730 OFFCURVE",
"238 85 OFFCURVE",
"223 -2 CURVE",
"234 -4 OFFCURVE",
"250 -6 OFFCURVE",
"273 -6 CURVE SMOOTH",
"286 -6 OFFCURVE",
"302 -5 OFFCURVE",
"320 -3 CURVE"
);
},
{
closed = 1;
nodes = (
"363 1121 OFFCURVE",
"387 1164 OFFCURVE",
"387 1210 CURVE SMOOTH",
"387 1267 OFFCURVE",
"361 1316 OFFCURVE",
"309 1316 CURVE SMOOTH",
"261 1316 OFFCURVE",
"225 1284 OFFCURVE",
"225 1219 CURVE SMOOTH",
"225 1168 OFFCURVE",
"249 1121 OFFCURVE",
"310 1121 CURVE SMOOTH"
);
}
);
width = 610;
}
);
leftKerningGroup = i;
rightKerningGroup = i;
unicode = 0069;
},
{
glyphname = idotless;
lastChange = "2020-07-08 20:50:37 +0000";
layers = (
{
anchors = (
{
name = bottom;
position = "{259, 0}";
},
{
name = ogonek;
position = "{432, -7}";
},
{
name = top;
position = "{283, 975}";
}
);
layerId = "B5042207-EFBA-41B6-8DFD-104A953B46A6";
paths = (
{
closed = 1;
nodes = (
"451 116 OFFCURVE",
"460 680 OFFCURVE",
"460 911 CURVE",
"403 911 OFFCURVE",
"163 909 OFFCURVE",
"104 904 CURVE",
"99 696 OFFCURVE",
"53 100 OFFCURVE",
"38 13 CURVE",
"177 4 OFFCURVE",
"367 -7 OFFCURVE",
"432 -7 CURVE"
);
}
);
width = 581;
},
{
anchors = (
{
name = bottom;
position = "{212, 0}";
},
{
name = ogonek;
position = "{268, 0}";
},
{
name = top;
position = "{252, 990}";
}
);
layerId = "B5195C1E-69AB-4BC6-9855-DF55601A0735";
paths = (
{
closed = 1;
nodes = (
"280 120 OFFCURVE",
"281 802 OFFCURVE",
"281 940 CURVE",
"262 940 OFFCURVE",
"222 940 OFFCURVE",
"205 933 CURVE",
"205 730 OFFCURVE",
"174 89 OFFCURVE",
"159 2 CURVE",
"169 -1 OFFCURVE",
"252 -3 OFFCURVE",
"268 -3 CURVE"
);
}
);
width = 581;
}
);
leftKerningGroup = idotless;
rightKerningGroup = idotless;
unicode = 0131;
},
{
glyphname = iogonek;
lastChange = "2020-07-16 20:03:57 +0000";
layers = (
{
components = (
{
name = idotless;
},
{
name = dotaccentcomb;
transform = "{1, 0, 0, 1, 57, -88}";
}
);
layerId = "B5042207-EFBA-41B6-8DFD-104A953B46A6";
paths = (
{
closed = 1;
nodes = (
"507 -289 OFFCURVE",
"462 -298 OFFCURVE",
"419 -298 CURVE SMOOTH",
"366 -298 OFFCURVE",
"312 -274 OFFCURVE",
"312 -202 CURVE SMOOTH",
"312 -122 OFFCURVE",
"387 -38 OFFCURVE",
"432 -7 CURVE",
"296 51 LINE",
"231 32 OFFCURVE",
"49 -119 OFFCURVE",
"49 -291 CURVE SMOOTH",
"49 -458 OFFCURVE",
"193 -543 OFFCURVE",
"351 -543 CURVE SMOOTH",
"455 -543 OFFCURVE",
"517 -530 OFFCURVE",
"546 -518 CURVE",
"546 -261 LINE"
);
}
);
width = 581;
},
{
components = (
{
name = idotless;
},
{
name = dotaccentcomb;
transform = "{1, 0, 0, 1, 46, -73}";
}
);
layerId = "B5195C1E-69AB-4BC6-9855-DF55601A0735";
paths = (
{
closed = 1;
nodes = (
"316 -403 OFFCURVE",
"267 -423 OFFCURVE",
"173 -423 CURVE SMOOTH",
"83 -423 OFFCURVE",
"26 -392 OFFCURVE",
"26 -290 CURVE SMOOTH",
"26 -177 OFFCURVE",
"156 -43 OFFCURVE",
"268 0 CURVE",
"203 45 LINE",
"64 -14 OFFCURVE",
"-60 -154 OFFCURVE",
"-60 -297 CURVE SMOOTH",
"-60 -426 OFFCURVE",
"20 -503 OFFCURVE",
"157 -503 CURVE SMOOTH",
"261 -503 OFFCURVE",
"333 -481 OFFCURVE",
"389 -457 CURVE",
"389 -370 LINE"
);
}
);
width = 581;
}
);
leftKerningGroup = idotless;
rightKerningGroup = idotless;
unicode = 012F;
},
{
glyphname = j;
lastChange = "2020-07-16 19:16:33 +0000";
layers = (
{
layerId = "B5042207-EFBA-41B6-8DFD-104A953B46A6";
paths = (
{
closed = 1;
nodes = (
"651 -278 OFFCURVE",
"651 253 CURVE SMOOTH",
"651 497 OFFCURVE",
"584 832 OFFCURVE",
"563 881 CURVE",
"144 862 LINE",
"190 703 OFFCURVE",
"235 395 OFFCURVE",
"235 192 CURVE SMOOTH",
"235 42 OFFCURVE",
"214 -189 OFFCURVE",
"120 -189 CURVE SMOOTH",
"59 -189 OFFCURVE",
"17 -137 OFFCURVE",
"-3 -66 CURVE",
"-99 -94 OFFCURVE",
"-286 -159 OFFCURVE",
"-390 -231 CURVE",
"-340 -410 OFFCURVE",
"-112 -534 OFFCURVE",
"119 -534 CURVE SMOOTH",
"487 -534 OFFCURVE"
);
},
{
closed = 1;
nodes = (
"136 1455 OFFCURVE",
"26 1342 OFFCURVE",
"26 1198 CURVE SMOOTH",
"26 1063 OFFCURVE",
"149 973 OFFCURVE",
"278 973 CURVE SMOOTH",
"413 973 OFFCURVE",
"543 1088 OFFCURVE",
"543 1221 CURVE SMOOTH",
"543 1347 OFFCURVE",
"428 1455 OFFCURVE",
"280 1455 CURVE SMOOTH"
);
}
);
width = 717;
},
{
layerId = "B5195C1E-69AB-4BC6-9855-DF55601A0735";
paths = (
{
closed = 1;
nodes = (
"430 -171 OFFCURVE",
"430 153 CURVE SMOOTH",
"430 408 OFFCURVE",
"402 730 OFFCURVE",
"348 999 CURVE",
"271 991 LINE",
"315 709 OFFCURVE",
"345 418 OFFCURVE",
"345 177 CURVE SMOOTH",
"345 -78 OFFCURVE",
"317 -378 OFFCURVE",
"126 -378 CURVE SMOOTH",
"-26 -378 OFFCURVE",
"-129 -220 OFFCURVE",
"-174 -103 CURVE",
"-197 -119 OFFCURVE",
"-234 -145 OFFCURVE",
"-251 -163 CURVE",
"-182 -338 OFFCURVE",
"-43 -454 OFFCURVE",
"132 -454 CURVE SMOOTH",
"388 -454 OFFCURVE"
);
},
{
closed = 1;
nodes = (
"238 1339 OFFCURVE",
"202 1306 OFFCURVE",
"202 1259 CURVE SMOOTH",
"202 1211 OFFCURVE",
"239 1184 OFFCURVE",
"282 1184 CURVE SMOOTH",
"330 1184 OFFCURVE",
"362 1210 OFFCURVE",
"362 1257 CURVE SMOOTH",
"362 1298 OFFCURVE",
"335 1339 OFFCURVE",
"288 1339 CURVE SMOOTH"
);
}
);
width = 610;
}
);
leftKerningGroup = j;
rightKerningGroup = j;
unicode = 006A;
},
{
glyphname = jdotless;
lastChange = "2020-07-08 20:51:01 +0000";
layers = (
{
anchors = (
{
name = bottom;
position = "{284, -530}";
},
{
name = top;
position = "{294, 987}";
}
);
layerId = "B5195C1E-69AB-4BC6-9855-DF55601A0735";
paths = (
{
closed = 1;
nodes = (
"388 -537 OFFCURVE",
"430 -254 OFFCURVE",
"430 70 CURVE SMOOTH",
"430 325 OFFCURVE",
"402 648 OFFCURVE",
"348 917 CURVE",
"336 917 OFFCURVE",
"323 916 OFFCURVE",
"310 914 CURVE SMOOTH",
"297 912 OFFCURVE",
"284 910 OFFCURVE",
"271 908 CURVE",
"315 626 OFFCURVE",
"345 335 OFFCURVE",
"345 94 CURVE SMOOTH",
"345 -161 OFFCURVE",
"317 -461 OFFCURVE",
"126 -461 CURVE SMOOTH",
"-26 -461 OFFCURVE",
"-129 -303 OFFCURVE",
"-174 -186 CURVE",
"-197 -202 OFFCURVE",
"-234 -228 OFFCURVE",
"-251 -246 CURVE",
"-182 -421 OFFCURVE",
"-43 -537 OFFCURVE",
"132 -537 CURVE SMOOTH"
);
}
);
width = 610;
},
{
anchors = (
{
name = bottom;
position = "{344, -530}";
},
{
name = top;
position = "{344, 955}";
}
);
layerId = "B5042207-EFBA-41B6-8DFD-104A953B46A6";
paths = (
{
closed = 1;
nodes = (
"518 -532 OFFCURVE",
"651 -293 OFFCURVE",
"651 225 CURVE SMOOTH",
"651 469 OFFCURVE",
"607 716 OFFCURVE",
"543 853 CURVE",
"499 858 OFFCURVE",
"451 861 OFFCURVE",
"402 861 CURVE SMOOTH",
"313 861 OFFCURVE",
"220 852 OFFCURVE",
"144 834 CURVE",
"190 595 OFFCURVE",
"235 317 OFFCURVE",
"235 114 CURVE SMOOTH",
"235 -36 OFFCURVE",
"214 -187 OFFCURVE",
"120 -187 CURVE SMOOTH",
"59 -187 OFFCURVE",
"17 -135 OFFCURVE",
"-3 -64 CURVE",
"-99 -92 OFFCURVE",
"-286 -157 OFFCURVE",
"-390 -229 CURVE",
"-346 -436 OFFCURVE",
"-149 -532 OFFCURVE",
"119 -532 CURVE SMOOTH"
);
}
);
width = 717;
}
);
leftKerningGroup = j;
leftMetricsKey = j;
rightKerningGroup = j;
rightMetricsKey = j;
unicode = 0237;
},
{
glyphname = k;
lastChange = "2020-06-17 15:25:13 +0000";
layers = (
{
anchors = (
{
name = bottom;
position = "{578, 0}";
},
{
name = top;
position = "{578, 1470}";
}
);
layerId = "B5042207-EFBA-41B6-8DFD-104A953B46A6";
paths = (
{
closed = 1;
nodes = (
"858 -41 OFFCURVE",
"1109 53 OFFCURVE",
"1159 84 CURVE",
"1042 279 OFFCURVE",
"887 439 OFFCURVE",
"791 499 CURVE",
"854 545 OFFCURVE",
"1029 667 OFFCURVE",
"1144 744 CURVE",
"1100 819 OFFCURVE",
"979 988 OFFCURVE",
"930 1034 CURVE",
"785 932 OFFCURVE",
"585 790 OFFCURVE",
"460 660 CURVE",
"472 778 OFFCURVE",
"492 1160 OFFCURVE",
"492 1428 CURVE",
"426 1448 OFFCURVE",
"351 1456 OFFCURVE",
"272 1456 CURVE SMOOTH",
"219 1456 OFFCURVE",
"164 1452 OFFCURVE",
"109 1447 CURVE",
"109 1275 OFFCURVE",
"47 91 OFFCURVE",
"41 -19 CURVE",
"92 -25 OFFCURVE",
"165 -31 OFFCURVE",
"247 -31 CURVE SMOOTH",
"305 -31 OFFCURVE",
"368 -28 OFFCURVE",
"431 -21 CURVE",
"436 36 OFFCURVE",
"442 131 OFFCURVE",
"444 246 CURVE",
"455 256 OFFCURVE",
"492 286 OFFCURVE",
"513 299 CURVE",
"602 263 OFFCURVE",
"756 26 OFFCURVE",
"790 -58 CURVE"
);
}
);
width = 1156;
},
{
anchors = (
{
name = bottom;
position = "{598, 0}";
},
{
name = top;
position = "{598, 1470}";
}
);
layerId = "B5195C1E-69AB-4BC6-9855-DF55601A0735";
paths = (
{
closed = 1;
nodes = (
"984 -27 OFFCURVE",
"1029 -5 OFFCURVE",
"1036 0 CURVE",
"896 224 OFFCURVE",
"592 597 OFFCURVE",
"534 651 CURVE",
"636 732 OFFCURVE",
"933 896 OFFCURVE",
"1011 932 CURVE",
"1006 942 OFFCURVE",
"988 968 OFFCURVE",
"967 995 CURVE",
"847 935 OFFCURVE",
"464 728 OFFCURVE",
"290 552 CURVE",
"295 668 OFFCURVE",
"309 1207 OFFCURVE",
"309 1446 CURVE",
"302 1447 OFFCURVE",
"287 1448 OFFCURVE",
"271 1448 CURVE SMOOTH",
"254 1448 OFFCURVE",
"237 1448 OFFCURVE",
"229 1448 CURVE",
"229 1233 OFFCURVE",
"186 79 OFFCURVE",
"177 -31 CURVE",
"193 -34 OFFCURVE",
"210 -36 OFFCURVE",
"224 -36 CURVE SMOOTH",
"241 -36 OFFCURVE",
"255 -34 OFFCURVE",
"264 -32 CURVE",
"268 24 OFFCURVE",
"284 330 OFFCURVE",
"287 446 CURVE",
"306 467 OFFCURVE",
"426 564 OFFCURVE",
"475 603 CURVE",
"576 501 OFFCURVE",
"873 116 OFFCURVE",
"967 -34 CURVE"
);
}
);
width = 1156;
}
);
leftKerningGroup = h;
rightKerningGroup = k;
unicode = 006B;
},
{
glyphname = kgreenlandic;
lastChange = "2020-02-20 16:12:45 +0000";
layers = (
{
anchors = (
{
name = bottom;
position = "{578, 0}";
},
{
name = top;
position = "{578, 1063}";
}
);
layerId = "B5195C1E-69AB-4BC6-9855-DF55601A0735";
paths = (
{
closed = 1;
nodes = (
"964 -27 OFFCURVE",
"1009 -5 OFFCURVE",
"1016 0 CURVE",
"876 224 OFFCURVE",
"572 597 OFFCURVE",
"514 651 CURVE",
"616 732 OFFCURVE",
"913 896 OFFCURVE",
"991 932 CURVE",
"986 942 OFFCURVE",
"968 968 OFFCURVE",
"947 995 CURVE",
"827 935 OFFCURVE",
"455 728 OFFCURVE",
"270 552 CURVE",
"275 738 OFFCURVE",
"286 928 OFFCURVE",
"289 1063 CURVE",
"283 1063 OFFCURVE",
"267 1064 OFFCURVE",
"251 1064 CURVE SMOOTH",
"234 1064 OFFCURVE",
"217 1065 OFFCURVE",
"209 1065 CURVE",
"200 929 OFFCURVE",
"166 79 OFFCURVE",
"157 -31 CURVE",
"173 -34 OFFCURVE",
"190 -36 OFFCURVE",
"204 -36 CURVE SMOOTH",
"221 -36 OFFCURVE",
"235 -34 OFFCURVE",
"244 -32 CURVE",
"248 24 OFFCURVE",
"264 330 OFFCURVE",
"267 446 CURVE",
"284 467 OFFCURVE",
"417 569 OFFCURVE",
"455 603 CURVE",
"556 501 OFFCURVE",
"853 116 OFFCURVE",
"947 -34 CURVE"
);
}
);
width = 1156;
},
{
anchors = (
{
name = bottom;
position = "{578, 0}";
},
{
name = top;
position = "{578, 1063}";
}
);
layerId = "B5042207-EFBA-41B6-8DFD-104A953B46A6";
paths = (
{
closed = 1;
nodes = (
"858 -41 OFFCURVE",
"1109 53 OFFCURVE",
"1159 84 CURVE",
"1042 279 OFFCURVE",
"887 439 OFFCURVE",
"791 499 CURVE",
"854 545 OFFCURVE",
"1029 667 OFFCURVE",
"1144 744 CURVE",
"1100 819 OFFCURVE",
"979 988 OFFCURVE",
"930 1034 CURVE",
"785 932 OFFCURVE",
"585 790 OFFCURVE",
"460 660 CURVE",
"472 778 OFFCURVE",
"492 975 OFFCURVE",
"492 1063 CURVE",
"426 1083 OFFCURVE",
"351 1091 OFFCURVE",
"272 1091 CURVE SMOOTH",
"219 1091 OFFCURVE",
"164 1087 OFFCURVE",
"109 1082 CURVE",
"109 910 OFFCURVE",
"46 91 OFFCURVE",
"41 -19 CURVE",
"92 -25 OFFCURVE",
"165 -31 OFFCURVE",
"247 -31 CURVE SMOOTH",
"305 -31 OFFCURVE",
"368 -28 OFFCURVE",
"431 -21 CURVE",
"436 36 OFFCURVE",
"442 131 OFFCURVE",
"444 246 CURVE",
"455 253 OFFCURVE",
"492 286 OFFCURVE",
"513 299 CURVE",
"602 263 OFFCURVE",
"756 26 OFFCURVE",
"790 -58 CURVE"
);
}
);
width = 1156;
}
);
leftKerningGroup = h;
rightKerningGroup = k;
unicode = 0138;
},
{
glyphname = l;
lastChange = "2020-06-17 15:26:13 +0000";
layers = (
{
anchors = (
{
name = bottom;
position = "{308, 0}";
},
{
name = center;
position = "{308, 735}";
},
{
name = top;
position = "{308, 1470}";
},
{
name = topright;
position = "{595, 1470}";
}
);
layerId = "B5042207-EFBA-41B6-8DFD-104A953B46A6";
paths = (
{
closed = 1;
nodes = (
"654 66 OFFCURVE",
"564 308 OFFCURVE",
"546 347 CURVE",
"528 320 OFFCURVE",
"502 303 OFFCURVE",
"461 303 CURVE SMOOTH",
"398 303 OFFCURVE",
"390 392 OFFCURVE",
"390 506 CURVE SMOOTH",
"390 637 OFFCURVE",
"417 1099 OFFCURVE",
"438 1426 CURVE",
"361 1432 OFFCURVE",
"302 1435 OFFCURVE",
"240 1435 CURVE SMOOTH",
"194 1435 OFFCURVE",
"136 1433 OFFCURVE",
"77 1429 CURVE",
"61 1162 OFFCURVE",
"42 822 OFFCURVE",
"42 412 CURVE SMOOTH",
"42 131 OFFCURVE",
"100 -43 OFFCURVE",
"356 -43 CURVE SMOOTH",
"491 -43 OFFCURVE",
"622 -1 OFFCURVE",
"665 35 CURVE"
);
}
);
width = 645;
},
{
anchors = (
{
name = bottom;
position = "{328, 0}";
},
{
name = center;
position = "{328, 735}";
},
{
name = top;
position = "{328, 1470}";
},
{
name = topright;
position = "{547, 1458}";
}
);
layerId = "B5195C1E-69AB-4BC6-9855-DF55601A0735";
paths = (
{
closed = 1;
nodes = (
"587 92 OFFCURVE",
"548 129 OFFCURVE",
"533 139 CURVE",
"510 88 OFFCURVE",
"484 51 OFFCURVE",
"423 51 CURVE SMOOTH",
"291 51 OFFCURVE",
"272 247 OFFCURVE",
"272 421 CURVE SMOOTH",
"272 705 OFFCURVE",
"296 1240 OFFCURVE",
"305 1426 CURVE",
"293 1429 OFFCURVE",
"275 1431 OFFCURVE",
"256 1431 CURVE SMOOTH",
"245 1431 OFFCURVE",
"229 1430 OFFCURVE",
"219 1429 CURVE",
"210 1213 OFFCURVE",
"190 670 OFFCURVE",
"190 451 CURVE SMOOTH",
"190 178 OFFCURVE",
"207 -32 OFFCURVE",
"421 -32 CURVE SMOOTH",
"516 -32 OFFCURVE",
"570 33 OFFCURVE",
"593 82 CURVE"
);
}
);
width = 645;
}
);
leftKerningGroup = l;
rightKerningGroup = l;
unicode = 006C;
},
{
glyphname = l.ss01;
lastChange = "2020-07-08 17:02:10 +0000";
layers = (
{
anchors = (
{
name = bottom;
position = "{282, 0}";
},
{
name = center;
position = "{282, 735}";
},
{
name = top;
position = "{282, 1470}";
},
{
name = topright;
position = "{544, 1470}";
}
);
layerId = "B5042207-EFBA-41B6-8DFD-104A953B46A6";
paths = (
{
closed = 1;
nodes = (
"344 1462 OFFCURVE",
"316 1462 OFFCURVE",
"264 1462 CURVE SMOOTH",
"164 1462 OFFCURVE",
"65 1440 OFFCURVE",
"51 1436 CURVE",
"70 1274 OFFCURVE",
"85 852 OFFCURVE",
"85 478 CURVE SMOOTH",
"85 286 OFFCURVE",
"81 106 OFFCURVE",
"75 -19 CURVE",
"102 -21 OFFCURVE",
"138 -22 OFFCURVE",
"177 -22 CURVE SMOOTH",
"287 -22 OFFCURVE",
"429 -14 OFFCURVE",
"508 10 CURVE",
"508 229 OFFCURVE",
"498 510 OFFCURVE",
"482 769 CURVE SMOOTH",
"463 1083 OFFCURVE",
"436 1364 OFFCURVE",
"410 1458 CURVE"
);
}
);
width = 564;
},
{
anchors = (
{
name = bottom;
position = "{282, 0}";
},
{
name = center;
position = "{282, 735}";
},
{
name = top;
position = "{282, 1470}";
},
{
name = topright;
position = "{544, 1470}";
}
);
layerId = "B5195C1E-69AB-4BC6-9855-DF55601A0735";
paths = (
{
closed = 1;
nodes = (
"225 1459 OFFCURVE",
"215 1459 OFFCURVE",
"206 1459 CURVE SMOOTH",
"192 1459 OFFCURVE",
"180 1458 OFFCURVE",
"168 1456 CURVE",
"193 1265 OFFCURVE",
"225 682 OFFCURVE",
"225 263 CURVE SMOOTH",
"225 148 OFFCURVE",
"223 45 OFFCURVE",
"217 -34 CURVE",
"222 -35 OFFCURVE",
"230 -35 OFFCURVE",
"239 -35 CURVE SMOOTH",
"270 -35 OFFCURVE",
"313 -31 OFFCURVE",
"320 -29 CURVE",
"320 203 OFFCURVE",
"313 496 OFFCURVE",
"300 763 CURVE SMOOTH",
"285 1082 OFFCURVE",
"263 1364 OFFCURVE",
"236 1458 CURVE"
);
}
);
width = 564;
}
);
leftKerningGroup = h;
rightKerningGroup = l.ss01;
},
{
glyphname = ldot;
lastChange = "2020-07-08 17:02:51 +0000";
layers = (
{
components = (
{
name = l;
}
);
layerId = "B5195C1E-69AB-4BC6-9855-DF55601A0735";
paths = (
{
closed = 1;
nodes = (
"584 756 OFFCURVE",
"626 793 OFFCURVE",
"626 843 CURVE SMOOTH",
"626 888 OFFCURVE",
"596 928 OFFCURVE",
"545 928 CURVE SMOOTH",
"493 928 OFFCURVE",
"449 894 OFFCURVE",
"449 843 CURVE SMOOTH",
"449 793 OFFCURVE",
"473 756 OFFCURVE",
"536 756 CURVE SMOOTH"
);
}
);
width = 596;
},
{
components = (
{
name = l;
}
);
layerId = "B5042207-EFBA-41B6-8DFD-104A953B46A6";
paths = (
{
closed = 1;
nodes = (
"674 687 OFFCURVE",
"751 758 OFFCURVE",
"751 843 CURVE SMOOTH",
"751 923 OFFCURVE",
"694 997 OFFCURVE",
"600 997 CURVE SMOOTH",
"509 997 OFFCURVE",
"432 929 OFFCURVE",
"432 843 CURVE SMOOTH",
"432 758 OFFCURVE",
"477 687 OFFCURVE",
"589 687 CURVE SMOOTH"
);
}
);
width = 741;
}
);
leftKerningGroup = l;
leftMetricsKey = l;
rightKerningGroup = l;
unicode = 0140;
},
{
glyphname = ldot.ss01;
lastChange = "2020-06-17 20:31:47 +0000";
layers = (
{
components = (
{
name = l.ss01;
transform = "{1, 0, 0, 1, 22, 0}";
}
);
layerId = "B5195C1E-69AB-4BC6-9855-DF55601A0735";
paths = (
{
closed = 1;
nodes = (
"595 756 OFFCURVE",
"637 793 OFFCURVE",
"637 843 CURVE SMOOTH",
"637 888 OFFCURVE",
"607 928 OFFCURVE",
"556 928 CURVE SMOOTH",
"504 928 OFFCURVE",
"460 894 OFFCURVE",
"460 843 CURVE SMOOTH",
"460 793 OFFCURVE",
"484 756 OFFCURVE",
"547 756 CURVE SMOOTH"
);
}
);
width = 586;
},
{
components = (
{
name = l.ss01;
transform = "{1, 0, 0, 1, -9, 0}";
}
);
layerId = "B5042207-EFBA-41B6-8DFD-104A953B46A6";
paths = (
{
closed = 1;
nodes = (
"755 687 OFFCURVE",
"832 758 OFFCURVE",
"832 843 CURVE SMOOTH",
"832 923 OFFCURVE",
"775 997 OFFCURVE",
"682 997 CURVE SMOOTH",
"592 997 OFFCURVE",
"515 929 OFFCURVE",
"515 843 CURVE SMOOTH",
"515 758 OFFCURVE",
"559 687 OFFCURVE",
"671 687 CURVE SMOOTH"
);
}
);
width = 812;
}
);
leftMetricsKey = l;
},
{
glyphname = lslash;
lastChange = "2020-07-03 20:06:00 +0000";
layers = (
{
components = (
{
name = l;
}
);
layerId = "B5042207-EFBA-41B6-8DFD-104A953B46A6";
paths = (
{
closed = 1;
nodes = (
"511 1103 CURVE",
"371 923 OFFCURVE",
"-2 554 OFFCURVE",
"-188 398 CURVE",
"-178 386 OFFCURVE",
"-41 270 OFFCURVE",
"-22 256 CURVE",
"181 412 OFFCURVE",
"533 747 OFFCURVE",
"685 952 CURVE",
"675 974 OFFCURVE",
"538 1087 OFFCURVE"
);
}
);
width = 564;
},
{
components = (
{
name = l;
}
);
layerId = "B5195C1E-69AB-4BC6-9855-DF55601A0735";
paths = (
{
closed = 1;
nodes = (
"388 944 CURVE",
"282 742 OFFCURVE",
"104 453 OFFCURVE",
"-53 267 CURVE",
"-39 256 OFFCURVE",
"-15 239 OFFCURVE",
"5 229 CURVE",
"179 419 OFFCURVE",
"342 670 OFFCURVE",
"456 899 CURVE",
"443 920 OFFCURVE",
"417 933 OFFCURVE"
);
}
);
width = 564;
}
);
leftKerningGroup = h;
rightKerningGroup = l;
unicode = 0142;
},
{
glyphname = m;
lastChange = "2020-06-17 15:27:21 +0000";
layers = (
{
anchors = (
{
name = bottom;
position = "{929, 0}";
},
{
name = top;
position = "{929, 1063}";
}
);
layerId = "B5042207-EFBA-41B6-8DFD-104A953B46A6";
paths = (
{
closed = 1;
nodes = (
"103 -7 CURVE",
"150 -12 OFFCURVE",
"270 -17 OFFCURVE",
"377 -17 CURVE SMOOTH",
"419 -17 OFFCURVE",
"490 -15 OFFCURVE",
"506 -14 CURVE",
"504 9 OFFCURVE",
"489 274 OFFCURVE",
"477 593 CURVE",
"505 668 OFFCURVE",
"580 717 OFFCURVE",
"656 717 CURVE SMOOTH",
"777 717 OFFCURVE",
"788 543 OFFCURVE",
"788 242 CURVE SMOOTH",
"788 157 OFFCURVE",
"788 83 OFFCURVE",
"791 -7 CURVE",
"821 -11 OFFCURVE",
"901 -13 OFFCURVE",
"980 -13 CURVE SMOOTH",
"1046 -13 OFFCURVE",
"1111 -11 OFFCURVE",
"1142 -9 CURVE",
"1142 81 OFFCURVE",
"1146 166 OFFCURVE",
"1150 244 CURVE SMOOTH",
"1163 517 OFFCURVE",
"1197 706 OFFCURVE",
"1338 706 CURVE SMOOTH",
"1414 706 OFFCURVE",
"1441 627 OFFCURVE",
"1441 486 CURVE SMOOTH",
"1441 363 OFFCURVE",
"1420 194 OFFCURVE",
"1393 -5 CURVE",
"1459 -11 OFFCURVE",
"1525 -13 OFFCURVE",
"1592 -13 CURVE SMOOTH",
"1654 -13 OFFCURVE",
"1721 -11 OFFCURVE",
"1781 -8 CURVE",
"1787 130 OFFCURVE",
"1792 253 OFFCURVE",
"1792 363 CURVE SMOOTH",
"1792 820 OFFCURVE",
"1714 1044 OFFCURVE",
"1373 1044 CURVE SMOOTH",
"1198 1044 OFFCURVE",
"1055 925 OFFCURVE",
"1003 812 CURVE",
"997 835 OFFCURVE",
"990 860 OFFCURVE",
"979 883 CURVE SMOOTH",
"940 965 OFFCURVE",
"871 1039 OFFCURVE",
"745 1039 CURVE SMOOTH",
"574 1039 OFFCURVE",
"474 931 OFFCURVE",
"460 885 CURVE",
"460 913 OFFCURVE",
"460 981 OFFCURVE",
"458 1027 CURVE",
"376 1027 OFFCURVE",
"161 1003 OFFCURVE",
"82 983 CURVE",
"82 815 OFFCURVE",
"89 191 OFFCURVE"
);
}
);
width = 1858;
},
{
anchors = (
{
name = bottom;
position = "{929, 0}";
},
{
name = top;
position = "{929, 1063}";
}
);
layerId = "B5195C1E-69AB-4BC6-9855-DF55601A0735";
paths = (
{
closed = 1;
nodes = (
"227 -10 CURVE",
"242 -14 OFFCURVE",
"258 -16 OFFCURVE",
"276 -16 CURVE SMOOTH",
"288 -16 OFFCURVE",
"307 -14 OFFCURVE",
"316 -13 CURVE",
"308 45 OFFCURVE",
"279 258 OFFCURVE",
"267 578 CURVE",
"267 690 OFFCURVE",
"428 945 OFFCURVE",
"623 945 CURVE SMOOTH",
"870 945 OFFCURVE",
"902 563 OFFCURVE",
"902 249 CURVE SMOOTH",
"902 167 OFFCURVE",
"900 81 OFFCURVE",
"897 -7 CURVE",
"911 -11 OFFCURVE",
"933 -13 OFFCURVE",
"948 -13 CURVE SMOOTH",
"961 -13 OFFCURVE",
"979 -11 OFFCURVE",
"993 -9 CURVE",
"993 56 OFFCURVE",
"993 128 OFFCURVE",
"993 194 CURVE SMOOTH",
"993 561 OFFCURVE",
"1031 963 OFFCURVE",
"1343 963 CURVE SMOOTH",
"1517 963 OFFCURVE",
"1589 797 OFFCURVE",
"1589 480 CURVE SMOOTH",
"1589 341 OFFCURVE",
"1575 172 OFFCURVE",
"1550 -24 CURVE",
"1567 -26 OFFCURVE",
"1585 -27 OFFCURVE",
"1597 -27 CURVE SMOOTH",
"1613 -27 OFFCURVE",
"1627 -25 OFFCURVE",
"1641 -21 CURVE",
"1656 89 OFFCURVE",
"1674 305 OFFCURVE",
"1674 472 CURVE SMOOTH",
"1674 776 OFFCURVE",
"1612 1047 OFFCURVE",
"1352 1047 CURVE SMOOTH",
"1078 1047 OFFCURVE",
"968 819 OFFCURVE",
"945 581 CURVE",
"945 638 OFFCURVE",
"940 699 OFFCURVE",
"926 759 CURVE SMOOTH",
"893 902 OFFCURVE",
"810 1030 OFFCURVE",
"642 1030 CURVE SMOOTH",
"386 1030 OFFCURVE",
"284 838 OFFCURVE",
"260 774 CURVE",
"260 802 OFFCURVE",
"252 988 OFFCURVE",
"250 1027 CURVE",
"232 1026 OFFCURVE",
"193 1017 OFFCURVE",
"176 1009 CURVE",
"176 699 OFFCURVE",
"197 256 OFFCURVE"
);
}
);
width = 1858;
}
);
leftKerningGroup = n;
rightKerningGroup = n;
unicode = 006D;
},
{
glyphname = n;
lastChange = "2020-06-17 15:28:55 +0000";
layers = (
{
anchors = (
{
name = bottom;
position = "{685, 0}";
},
{
name = top;
position = "{685, 1063}";
}
);
layerId = "B5042207-EFBA-41B6-8DFD-104A953B46A6";
paths = (
{
closed = 1;
nodes = (
"474 99 OFFCURVE",
"494 303 OFFCURVE",
"494 605 CURVE",
"553 659 OFFCURVE",
"642 708 OFFCURVE",
"720 708 CURVE SMOOTH",
"845 708 OFFCURVE",
"871 617 OFFCURVE",
"871 478 CURVE SMOOTH",
"871 293 OFFCURVE",
"831 69 OFFCURVE",
"813 -3 CURVE",
"846 -6 OFFCURVE",
"931 -8 OFFCURVE",
"1016 -8 CURVE SMOOTH",
"1094 -8 OFFCURVE",
"1172 -6 OFFCURVE",
"1206 -3 CURVE",
"1227 159 OFFCURVE",
"1237 373 OFFCURVE",
"1237 494 CURVE SMOOTH",
"1237 875 OFFCURVE",
"1161 1060 OFFCURVE",
"856 1060 CURVE SMOOTH",
"694 1060 OFFCURVE",
"538 957 OFFCURVE",
"502 885 CURVE",
"504 935 OFFCURVE",
"504 1017 OFFCURVE",
"504 1034 CURVE",
"460 1041 OFFCURVE",
"400 1044 OFFCURVE",
"338 1044 CURVE SMOOTH",
"252 1044 OFFCURVE",
"160 1039 OFFCURVE",
"97 1031 CURVE",
"97 599 OFFCURVE",
"91 219 OFFCURVE",
"68 -3 CURVE",
"96 -6 OFFCURVE",
"193 -10 OFFCURVE",
"252 -12 CURVE SMOOTH",
"329 -14 OFFCURVE",
"408 -14 OFFCURVE",
"459 -14 CURVE"
);
}
);
width = 1330;
},
{
anchors = (
{
name = bottom;
position = "{675, 0}";
},
{
name = top;
position = "{675, 1063}";
}
);
layerId = "B5195C1E-69AB-4BC6-9855-DF55601A0735";
paths = (
{
closed = 1;
nodes = (
"263 103 OFFCURVE",
"290 403 OFFCURVE",
"302 761 CURVE",
"377 830 OFFCURVE",
"546 979 OFFCURVE",
"792 979 CURVE SMOOTH",
"998 979 OFFCURVE",
"1038 812 OFFCURVE",
"1038 562 CURVE SMOOTH",
"1038 414 OFFCURVE",
"1024 226 OFFCURVE",
"993 -3 CURVE",
"1010 -7 OFFCURVE",
"1027 -8 OFFCURVE",
"1043 -8 CURVE SMOOTH",
"1064 -8 OFFCURVE",
"1084 -6 OFFCURVE",
"1094 -3 CURVE",
"1117 216 OFFCURVE",
"1130 401 OFFCURVE",
"1130 549 CURVE SMOOTH",
"1130 877 OFFCURVE",
"1074 1060 OFFCURVE",
"771 1060 CURVE SMOOTH",
"596 1060 OFFCURVE",
"400 954 OFFCURVE",
"302 868 CURVE",
"302 924 OFFCURVE",
"302 1019 OFFCURVE",
"299 1043 CURVE",
"290 1045 OFFCURVE",
"275 1045 OFFCURVE",
"264 1045 CURVE SMOOTH",
"240 1045 OFFCURVE",
"221 1042 OFFCURVE",
"207 1039 CURVE",
"207 439 OFFCURVE",
"186 214 OFFCURVE",
"159 -10 CURVE",
"175 -13 OFFCURVE",
"196 -14 OFFCURVE",
"215 -14 CURVE SMOOTH",
"227 -14 OFFCURVE",
"240 -13 OFFCURVE",
"251 -12 CURVE"
);
}
);
width = 1330;
}
);
leftKerningGroup = n;
rightKerningGroup = n;
unicode = 006E;
},
{
glyphname = eng;
lastChange = "2020-06-18 19:26:01 +0000";
layers = (
{
components = (
{
alignment = -1;
name = n;
}
);
layerId = "B5042207-EFBA-41B6-8DFD-104A953B46A6";
paths = (
{
closed = 1;
nodes = (
"552 -419 OFFCURVE",
"777 -419 CURVE SMOOTH",
"1030 -419 OFFCURVE",
"1178 -238 OFFCURVE",
"1208 12 CURVE",
"819 19 LINE",
"799 -61 OFFCURVE",
"774 -99 OFFCURVE",
"729 -99 CURVE SMOOTH",
"688 -99 OFFCURVE",
"661 -75 OFFCURVE",
"641 -30 CURVE",
"580 -79 OFFCURVE",
"414 -220 OFFCURVE",
"399 -240 CURVE",
"459 -321 OFFCURVE"
);
}
);
width = 1330;
},
{
components = (
{
alignment = -1;
name = n;
}
);
layerId = "B5195C1E-69AB-4BC6-9855-DF55601A0735";
paths = (
{
closed = 1;
nodes = (
"656 -349 OFFCURVE",
"766 -349 CURVE SMOOTH",
"988 -349 OFFCURVE",
"1082 -157 OFFCURVE",
"1095 10 CURVE",
"995 10 LINE",
"970 -146 OFFCURVE",
"910 -267 OFFCURVE",
"780 -267 CURVE SMOOTH",
"652 -267 OFFCURVE",
"602 -220 OFFCURVE",
"567 -157 CURVE",
"550 -168 OFFCURVE",
"506 -207 OFFCURVE",
"492 -220 CURVE",
"541 -309 OFFCURVE"
);
}
);
width = 1330;
}
);
leftKerningGroup = n;
rightKerningGroup = j;
unicode = 014B;
},
{
glyphname = o;
lastChange = "2020-06-18 18:50:21 +0000";
layers = (
{
anchors = (
{
name = bottom;
position = "{585, 0}";
},
{
name = center;
position = "{585, 532}";
},
{
name = ogonek;
position = "{738, 0}";
},
{
name = top;
position = "{585, 1063}";
},
{
name = topright;
position = "{879, 941}";
}
);
layerId = "B5042207-EFBA-41B6-8DFD-104A953B46A6";
paths = (
{
closed = 1;
nodes = (
"932 -17 OFFCURVE",
"1113 178 OFFCURVE",
"1113 478 CURVE SMOOTH",
"1113 817 OFFCURVE",
"943 1058 OFFCURVE",
"616 1058 CURVE SMOOTH",
"284 1058 OFFCURVE",
"52 885 OFFCURVE",
"52 522 CURVE SMOOTH",
"52 170 OFFCURVE",
"244 -17 OFFCURVE",
"600 -17 CURVE SMOOTH"
);
},
{
closed = 1;
nodes = (
"481 342 OFFCURVE",
"426 435 OFFCURVE",
"426 557 CURVE SMOOTH",
"426 653 OFFCURVE",
"469 773 OFFCURVE",
"596 773 CURVE SMOOTH",
"699 773 OFFCURVE",
"766 681 OFFCURVE",
"766 545 CURVE SMOOTH",
"766 408 OFFCURVE",
"686 342 OFFCURVE",
"587 342 CURVE SMOOTH"
);
}
);
width = 1170;
},
{
anchors = (
{
name = bottom;
position = "{605, 0}";
},
{
name = center;
position = "{605, 532}";
},
{
name = ogonek;
position = "{786, 0}";
},
{
name = top;
position = "{605, 1063}";
},
{
name = topright;
position = "{899, 941}";
}
);
layerId = "B5195C1E-69AB-4BC6-9855-DF55601A0735";
paths = (
{
closed = 1;
nodes = (
"886 -39 OFFCURVE",
"1061 160 OFFCURVE",
"1061 468 CURVE SMOOTH",
"1061 833 OFFCURVE",
"921 1077 OFFCURVE",
"595 1077 CURVE SMOOTH",
"302 1077 OFFCURVE",
"111 878 OFFCURVE",
"111 542 CURVE SMOOTH",
"111 169 OFFCURVE",
"255 -39 OFFCURVE",
"601 -39 CURVE SMOOTH"
);
},
{
closed = 1;
nodes = (
"337 32 OFFCURVE",
"199 230 OFFCURVE",
"199 522 CURVE SMOOTH",
"199 818 OFFCURVE",
"339 1002 OFFCURVE",
"591 1002 CURVE SMOOTH",
"860 1002 OFFCURVE",
"975 778 OFFCURVE",
"975 474 CURVE SMOOTH",
"975 274 OFFCURVE",
"885 32 OFFCURVE",
"596 32 CURVE SMOOTH"
);
}
);
width = 1172;
}
);
leftKerningGroup = o;
rightKerningGroup = o;
unicode = 006F;
},
{
glyphname = ohorn;
lastChange = "2020-06-29 16:07:58 +0000";
layers = (
{
anchors = (
{
name = bottom;
position = "{600, 0}";
},
{
name = top;
position = "{600, 1063}";
}
);
layerId = "B5195C1E-69AB-4BC6-9855-DF55601A0735";
paths = (
{
closed = 1;
nodes = (
"886 -39 OFFCURVE",
"1061 160 OFFCURVE",
"1061 468 CURVE SMOOTH",
"1061 833 OFFCURVE",
"921 1077 OFFCURVE",
"595 1077 CURVE SMOOTH",
"302 1077 OFFCURVE",
"111 878 OFFCURVE",
"111 542 CURVE SMOOTH",
"111 169 OFFCURVE",
"255 -39 OFFCURVE",
"601 -39 CURVE SMOOTH"
);
},
{
closed = 1;
nodes = (
"337 32 OFFCURVE",
"199 230 OFFCURVE",
"199 522 CURVE SMOOTH",
"199 818 OFFCURVE",
"339 1002 OFFCURVE",
"591 1002 CURVE SMOOTH",
"860 1002 OFFCURVE",
"975 778 OFFCURVE",
"975 474 CURVE SMOOTH",
"975 274 OFFCURVE",
"885 32 OFFCURVE",
"596 32 CURVE SMOOTH"
);
},
{
closed = 1;
nodes = (
"1020 909 OFFCURVE",
"1200 1003 OFFCURVE",
"1200 1205 CURVE",
"1183 1214 OFFCURVE",
"1137 1221 OFFCURVE",
"1106 1221 CURVE",
"1106 1098 OFFCURVE",
"1034 981 OFFCURVE",
"845 981 CURVE",
"868 909 LINE"
);
}
);
width = 1271;
},
{
anchors = (
{
name = bottom;
position = "{580, 0}";
},
{
name = top;
position = "{580, 1063}";
}
);
layerId = "B5042207-EFBA-41B6-8DFD-104A953B46A6";
paths = (
{
closed = 1;
nodes = (
"932 -17 OFFCURVE",
"1113 178 OFFCURVE",
"1113 478 CURVE SMOOTH",
"1113 817 OFFCURVE",
"943 1058 OFFCURVE",
"616 1058 CURVE SMOOTH",
"284 1058 OFFCURVE",
"52 885 OFFCURVE",
"52 522 CURVE SMOOTH",
"52 170 OFFCURVE",
"244 -17 OFFCURVE",
"600 -17 CURVE SMOOTH"
);
},
{
closed = 1;
nodes = (
"481 342 OFFCURVE",
"426 435 OFFCURVE",
"426 557 CURVE SMOOTH",
"426 653 OFFCURVE",
"469 773 OFFCURVE",
"596 773 CURVE SMOOTH",
"699 773 OFFCURVE",
"766 681 OFFCURVE",
"766 545 CURVE SMOOTH",
"766 408 OFFCURVE",
"686 342 OFFCURVE",
"587 342 CURVE SMOOTH"
);
},
{
closed = 1;
nodes = (
"1035 817 OFFCURVE",
"1254 910 OFFCURVE",
"1254 1180 CURVE",
"1229 1208 OFFCURVE",
"1102 1238 OFFCURVE",
"983 1238 CURVE",
"983 1100 OFFCURVE",
"948 1011 OFFCURVE",
"807 1011 CURVE",
"853 817 LINE"
);
}
);
width = 1271;
}
);
leftKerningGroup = o;
leftMetricsKey = o;
rightKerningGroup = o;
rightMetricsKey = "=o-40";
unicode = 01A1;
},
{
glyphname = oogonek;
lastChange = "2020-07-08 16:45:06 +0000";
layers = (
{
components = (
{
name = o;
}
);
layerId = "B5195C1E-69AB-4BC6-9855-DF55601A0735";
paths = (
{
closed = 1;
nodes = (
"926 -358 OFFCURVE",
"877 -378 OFFCURVE",
"783 -378 CURVE SMOOTH",
"693 -378 OFFCURVE",
"636 -347 OFFCURVE",
"636 -245 CURVE SMOOTH",
"636 -132 OFFCURVE",
"776 -8 OFFCURVE",
"878 45 CURVE",
"813 90 LINE",
"684 21 OFFCURVE",
"550 -109 OFFCURVE",
"550 -252 CURVE SMOOTH",
"550 -381 OFFCURVE",
"630 -458 OFFCURVE",
"767 -458 CURVE SMOOTH",
"871 -458 OFFCURVE",
"943 -436 OFFCURVE",
"999 -412 CURVE",
"999 -325 LINE"
);
}
);
width = 1172;
},
{
components = (
{
name = o;
}
);
layerId = "B5042207-EFBA-41B6-8DFD-104A953B46A6";
paths = (
{
closed = 1;
nodes = (
"1002 -207 OFFCURVE",
"957 -216 OFFCURVE",
"914 -216 CURVE SMOOTH",
"861 -216 OFFCURVE",
"807 -192 OFFCURVE",
"807 -120 CURVE SMOOTH",
"807 -40 OFFCURVE",
"882 44 OFFCURVE",
"927 75 CURVE",
"791 133 LINE",
"726 114 OFFCURVE",
"544 -37 OFFCURVE",
"544 -209 CURVE SMOOTH",
"544 -376 OFFCURVE",
"688 -461 OFFCURVE",
"846 -461 CURVE SMOOTH",
"950 -461 OFFCURVE",
"1012 -448 OFFCURVE",
"1041 -436 CURVE",
"1041 -179 LINE"
);
}
);
width = 1170;
}
);
leftKerningGroup = o;
rightKerningGroup = o;
unicode = 01EB;
},
{
glyphname = oslash;
lastChange = "2020-06-29 18:02:08 +0000";
layers = (
{
anchors = (
{
name = top;
position = "{595, 1063}";
}
);
components = (
{
name = o;
}
);
layerId = "B5042207-EFBA-41B6-8DFD-104A953B46A6";
paths = (
{
closed = 1;
nodes = (
"1042 1085 OFFCURVE",
"980 1117 OFFCURVE",
"926 1144 CURVE",
"765 862 OFFCURVE",
"262 259 OFFCURVE",
"47 17 CURVE",
"79 -26 OFFCURVE",
"137 -70 OFFCURVE",
"172 -90 CURVE",
"373 95 OFFCURVE",
"860 637 OFFCURVE",
"1072 1063 CURVE"
);
}
);
width = 1190;
},
{
anchors = (
{
name = top;
position = "{595, 1063}";
}
);
components = (
{
name = o;
}
);
layerId = "B5195C1E-69AB-4BC6-9855-DF55601A0735";
paths = (
{
closed = 1;
nodes = (
"982 1075 OFFCURVE",
"945 1086 OFFCURVE",
"914 1092 CURVE",
"705 663 OFFCURVE",
"406 226 OFFCURVE",
"149 -86 CURVE",
"164 -92 OFFCURVE",
"204 -105 OFFCURVE",
"224 -109 CURVE",
"426 131 OFFCURVE",
"731 571 OFFCURVE",
"999 1063 CURVE"
);
}
);
width = 1190;
}
);
leftKerningGroup = o;
rightKerningGroup = o;
unicode = 00F8;
},
{
glyphname = oe;
lastChange = "2020-06-18 14:37:28 +0000";
layers = (
{
anchors = (
{
name = bottom;
position = "{954, 0}";
},
{
name = top;
position = "{954, 1063}";
}
);
layerId = "B5042207-EFBA-41B6-8DFD-104A953B46A6";
paths = (
{
closed = 1;
nodes = (
"932 -17 OFFCURVE",
"1113 178 OFFCURVE",
"1113 478 CURVE SMOOTH",
"1113 817 OFFCURVE",
"943 1058 OFFCURVE",
"616 1058 CURVE SMOOTH",
"284 1058 OFFCURVE",
"52 885 OFFCURVE",
"52 522 CURVE SMOOTH",
"52 170 OFFCURVE",
"244 -17 OFFCURVE",
"600 -17 CURVE SMOOTH"
);
},
{
closed = 1;
nodes = (
"481 342 OFFCURVE",
"426 435 OFFCURVE",
"426 557 CURVE SMOOTH",
"426 653 OFFCURVE",
"469 773 OFFCURVE",
"596 773 CURVE SMOOTH",
"699 773 OFFCURVE",
"766 681 OFFCURVE",
"766 545 CURVE SMOOTH",
"766 408 OFFCURVE",
"686 342 OFFCURVE",
"587 342 CURVE SMOOTH"
);
},
{
closed = 1;
nodes = (
"1701 261 OFFCURVE",
"1537 429 OFFCURVE",
"1520 442 CURVE",
"1431 368 OFFCURVE",
"1348 349 OFFCURVE",
"1298 349 CURVE SMOOTH",
"1220 349 OFFCURVE",
"1153 378 OFFCURVE",
"1132 444 CURVE SMOOTH",
"1127 458 OFFCURVE",
"1125 476 OFFCURVE",
"1125 492 CURVE",
"1174 501 OFFCURVE",
"1267 505 OFFCURVE",
"1370 505 CURVE SMOOTH",
"1415 505 OFFCURVE",
"1692 497 OFFCURVE",
"1735 495 CURVE",
"1745 543 OFFCURVE",
"1749 579 OFFCURVE",
"1749 632 CURVE SMOOTH",
"1749 906 OFFCURVE",
"1588 1063 OFFCURVE",
"1303 1063 CURVE SMOOTH",
"963 1063 OFFCURVE",
"766 832 OFFCURVE",
"766 485 CURVE SMOOTH",
"766 149 OFFCURVE",
"1043 -16 OFFCURVE",
"1273 -16 CURVE SMOOTH",
"1451 -16 OFFCURVE",
"1653 48 OFFCURVE",
"1749 150 CURVE"
);
},
{
closed = 1;
nodes = (
"1147 748 OFFCURVE",
"1190 831 OFFCURVE",
"1289 831 CURVE SMOOTH",
"1358 831 OFFCURVE",
"1411 793 OFFCURVE",
"1426 744 CURVE SMOOTH",
"1429 734 OFFCURVE",
"1431 724 OFFCURVE",
"1431 714 CURVE",
"1414 715 OFFCURVE",
"1367 717 OFFCURVE",
"1321 717 CURVE SMOOTH",
"1239 717 OFFCURVE",
"1179 710 OFFCURVE",
"1142 704 CURVE"
);
}
);
width = 1799;
},
{
anchors = (
{
name = bottom;
position = "{1017, 0}";
},
{
name = top;
position = "{1017, 1063}";
}
);
layerId = "B5195C1E-69AB-4BC6-9855-DF55601A0735";
paths = (
{
closed = 1;
nodes = (
"886 -39 OFFCURVE",
"1061 160 OFFCURVE",
"1061 468 CURVE SMOOTH",
"1061 833 OFFCURVE",
"921 1077 OFFCURVE",
"595 1077 CURVE SMOOTH",
"302 1077 OFFCURVE",
"111 878 OFFCURVE",
"111 542 CURVE SMOOTH",
"111 169 OFFCURVE",
"255 -39 OFFCURVE",
"601 -39 CURVE SMOOTH"
);
},
{
closed = 1;
nodes = (
"337 32 OFFCURVE",
"199 230 OFFCURVE",
"199 522 CURVE SMOOTH",
"199 818 OFFCURVE",
"339 1002 OFFCURVE",
"591 1002 CURVE SMOOTH",
"860 1002 OFFCURVE",
"975 778 OFFCURVE",
"975 474 CURVE SMOOTH",
"975 274 OFFCURVE",
"885 32 OFFCURVE",
"596 32 CURVE SMOOTH"
);
},
{
closed = 1;
nodes = (
"1862 284 OFFCURVE",
"1821 319 OFFCURVE",
"1804 333 CURVE",
"1797 319 OFFCURVE",
"1686 101 OFFCURVE",
"1417 101 CURVE SMOOTH",
"1241 101 OFFCURVE",
"1123 203 OFFCURVE",
"1081 366 CURVE SMOOTH",
"1071 406 OFFCURVE",
"1065 450 OFFCURVE",
"1064 497 CURVE",
"1210 518 OFFCURVE",
"1346 537 OFFCURVE",
"1500 537 CURVE SMOOTH",
"1642 537 OFFCURVE",
"1800 527 OFFCURVE",
"1829 525 CURVE",
"1829 564 OFFCURVE",
"1827 602 OFFCURVE",
"1823 638 CURVE SMOOTH",
"1796 894 OFFCURVE",
"1669 1070 OFFCURVE",
"1431 1070 CURVE SMOOTH",
"1147 1070 OFFCURVE",
"977 867 OFFCURVE",
"977 568 CURVE SMOOTH",
"977 248 OFFCURVE",
"1112 27 OFFCURVE",
"1411 27 CURVE SMOOTH",
"1679 27 OFFCURVE",
"1834 207 OFFCURVE",
"1870 266 CURVE"
);
},
{
closed = 1;
nodes = (
"1064 849 OFFCURVE",
"1204 984 OFFCURVE",
"1423 984 CURVE SMOOTH",
"1619 984 OFFCURVE",
"1702 833 OFFCURVE",
"1729 706 CURVE SMOOTH",
"1736 672 OFFCURVE",
"1739 639 OFFCURVE",
"1739 612 CURVE",
"1709 614 OFFCURVE",
"1638 618 OFFCURVE",
"1527 618 CURVE SMOOTH",
"1310 618 OFFCURVE",
"1189 599 OFFCURVE",
"1058 578 CURVE"
);
}
);
width = 1931;
}
);
leftKerningGroup = o;
leftMetricsKey = o;
rightKerningGroup = e;
rightMetricsKey = e;
unicode = 0153;
},
{
glyphname = p;
lastChange = "2020-06-18 14:36:31 +0000";
layers = (
{
anchors = (
{
name = bottom;
position = "{600, 0}";
},
{
name = top;
position = "{600, 1063}";
}
);
layerId = "B5042207-EFBA-41B6-8DFD-104A953B46A6";
paths = (
{
closed = 1;
nodes = (
"116 -455 OFFCURVE",
"283 -448 OFFCURVE",
"415 -422 CURVE",
"425 -306 OFFCURVE",
"437 57 OFFCURVE",
"437 144 CURVE",
"469 99 OFFCURVE",
"595 53 OFFCURVE",
"709 53 CURVE SMOOTH",
"971 53 OFFCURVE",
"1189 247 OFFCURVE",
"1189 574 CURVE SMOOTH",
"1189 884 OFFCURVE",
"1071 1068 OFFCURVE",
"795 1068 CURVE SMOOTH",
"608 1068 OFFCURVE",
"489 960 OFFCURVE",
"458 912 CURVE",
"458 960 OFFCURVE",
"453 1018 OFFCURVE",
"448 1068 CURVE",
"323 1068 OFFCURVE",
"182 1055 OFFCURVE",
"79 1022 CURVE",
"79 880 OFFCURVE",
"70 118 OFFCURVE",
"38 -455 CURVE"
);
},
{
closed = 1;
nodes = (
"535 439 OFFCURVE",
"489 485 OFFCURVE",
"458 519 CURVE",
"460 545 OFFCURVE",
"462 625 OFFCURVE",
"462 659 CURVE",
"497 704 OFFCURVE",
"562 750 OFFCURVE",
"667 750 CURVE SMOOTH",
"778 750 OFFCURVE",
"816 697 OFFCURVE",
"816 601 CURVE SMOOTH",
"816 498 OFFCURVE",
"745 439 OFFCURVE",
"647 439 CURVE SMOOTH"
);
}
);
width = 1229;
},
{
anchors = (
{
name = bottom;
position = "{600, 0}";
},
{
name = top;
position = "{600, 1063}";
}
);
layerId = "B5195C1E-69AB-4BC6-9855-DF55601A0735";
paths = (
{
closed = 1;
nodes = (
"117 -429 OFFCURVE",
"168 -427 OFFCURVE",
"199 -420 CURVE",
"221 -293 OFFCURVE",
"256 166 OFFCURVE",
"260 232 CURVE",
"309 183 OFFCURVE",
"507 104 OFFCURVE",
"647 104 CURVE SMOOTH",
"940 104 OFFCURVE",
"1075 313 OFFCURVE",
"1075 621 CURVE SMOOTH",
"1075 911 OFFCURVE",
"919 1085 OFFCURVE",
"666 1085 CURVE SMOOTH",
"490 1085 OFFCURVE",
"347 993 OFFCURVE",
"288 935 CURVE",
"288 983 OFFCURVE",
"290 1063 OFFCURVE",
"291 1088 CURVE",
"263 1088 OFFCURVE",
"222 1084 OFFCURVE",
"199 1079 CURVE",
"199 707 OFFCURVE",
"167 32 OFFCURVE",
"100 -429 CURVE"
);
},
{
closed = 1;
nodes = (
"455 188 OFFCURVE",
"314 286 OFFCURVE",
"268 323 CURVE",
"268 432 OFFCURVE",
"281 773 OFFCURVE",
"283 823 CURVE",
"317 868 OFFCURVE",
"477 1007 OFFCURVE",
"660 1007 CURVE SMOOTH",
"862 1007 OFFCURVE",
"981 871 OFFCURVE",
"981 636 CURVE SMOOTH",
"981 357 OFFCURVE",
"903 188 OFFCURVE",
"641 188 CURVE SMOOTH"
);
}
);
width = 1199;
}
);
leftKerningGroup = p;
rightKerningGroup = o;
unicode = 0070;
},
{
glyphname = thorn;
lastChange = "2020-06-17 20:38:04 +0000";
layers = (
{
anchors = (
{
name = bottom;
position = "{600, 0}";
},
{
name = top;
position = "{198, 1356}";
}
);
layerId = "B5042207-EFBA-41B6-8DFD-104A953B46A6";
paths = (
{
closed = 1;
nodes = (
"467 -258 OFFCURVE",
"467 28 OFFCURVE",
"467 96 CURVE",
"514 65 OFFCURVE",
"607 43 OFFCURVE",
"706 43 CURVE SMOOTH",
"959 43 OFFCURVE",
"1143 227 OFFCURVE",
"1143 505 CURVE SMOOTH",
"1143 777 OFFCURVE",
"975 1008 OFFCURVE",
"710 1008 CURVE SMOOTH",
"615 1008 OFFCURVE",
"532 989 OFFCURVE",
"426 917 CURVE",
"422 1090 OFFCURVE",
"413 1302 OFFCURVE",
"405 1397 CURVE",
"31 1330 LINE",
"31 976 OFFCURVE",
"60 -214 OFFCURVE",
"68 -379 CURVE",
"463 -395 LINE"
);
},
{
closed = 1;
nodes = (
"567 409 OFFCURVE",
"493 433 OFFCURVE",
"450 449 CURVE",
"450 490 OFFCURVE",
"450 541 OFFCURVE",
"446 586 CURVE",
"474 619 OFFCURVE",
"558 665 OFFCURVE",
"649 665 CURVE SMOOTH",
"747 665 OFFCURVE",
"793 629 OFFCURVE",
"793 544 CURVE SMOOTH",
"793 469 OFFCURVE",
"728 409 OFFCURVE",
"632 409 CURVE SMOOTH"
);
}
);
width = 1200;
},
{
anchors = (
{
name = bottom;
position = "{600, 0}";
},
{
name = top;
position = "{191, 1392}";
}
);
layerId = "B5195C1E-69AB-4BC6-9855-DF55601A0735";
paths = (
{
closed = 1;
nodes = (
"284 -340 OFFCURVE",
"268 56 OFFCURVE",
"267 96 CURVE",
"321 40 OFFCURVE",
"494 1 OFFCURVE",
"614 1 CURVE SMOOTH",
"871 1 OFFCURVE",
"1049 232 OFFCURVE",
"1049 504 CURVE SMOOTH",
"1049 774 OFFCURVE",
"899 998 OFFCURVE",
"650 998 CURVE SMOOTH",
"442 998 OFFCURVE",
"267 857 OFFCURVE",
"248 832 CURVE",
"241 1040 OFFCURVE",
"232 1359 OFFCURVE",
"232 1376 CURVE",
"154 1369 LINE",
"154 1085 OFFCURVE",
"191 -229 OFFCURVE",
"203 -391 CURVE",
"287 -395 LINE"
);
},
{
closed = 1;
nodes = (
"417 84 OFFCURVE",
"321 145 OFFCURVE",
"264 205 CURVE",
"263 244 OFFCURVE",
"249 687 OFFCURVE",
"246 730 CURVE",
"290 786 OFFCURVE",
"452 921 OFFCURVE",
"621 921 CURVE SMOOTH",
"833 921 OFFCURVE",
"964 746 OFFCURVE",
"964 504 CURVE SMOOTH",
"964 268 OFFCURVE",
"835 84 OFFCURVE",
"602 84 CURVE SMOOTH"
);
}
);
width = 1200;
}
);
leftKerningGroup = h;
rightKerningGroup = o;
unicode = 00FE;
},
{
glyphname = q;
lastChange = "2020-06-17 15:29:54 +0000";
layers = (
{
anchors = (
{
name = bottom;
position = "{604, 0}";
},
{
name = top;
position = "{604, 1063}";
}
);
layerId = "B5042207-EFBA-41B6-8DFD-104A953B46A6";
paths = (
{
closed = 1;
nodes = (
"1109 -342 OFFCURVE",
"1084 -97 OFFCURVE",
"1084 136 CURVE SMOOTH",
"1084 426 OFFCURVE",
"1102 782 OFFCURVE",
"1138 1043 CURVE",
"1010 1075 OFFCURVE",
"922 1089 OFFCURVE",
"787 1089 CURVE",
"783 1066 OFFCURVE",
"770 987 OFFCURVE",
"770 942 CURVE",
"676 1042 OFFCURVE",
"561 1084 OFFCURVE",
"411 1084 CURVE SMOOTH",
"137 1084 OFFCURVE",
"44 809 OFFCURVE",
"44 521 CURVE SMOOTH",
"44 209 OFFCURVE",
"201 -3 OFFCURVE",
"498 -3 CURVE SMOOTH",
"621 -3 OFFCURVE",
"717 42 OFFCURVE",
"738 79 CURVE",
"738 -111 OFFCURVE",
"744 -270 OFFCURVE",
"764 -445 CURVE",
"846 -453 OFFCURVE",
"965 -462 OFFCURVE",
"1123 -462 CURVE"
);
},
{
closed = 1;
nodes = (
"466 390 OFFCURVE",
"407 460 OFFCURVE",
"407 568 CURVE SMOOTH",
"407 666 OFFCURVE",
"460 722 OFFCURVE",
"544 722 CURVE SMOOTH",
"631 722 OFFCURVE",
"716 661 OFFCURVE",
"747 638 CURVE",
"744 567 OFFCURVE",
"741 499 OFFCURVE",
"738 431 CURVE",
"704 413 OFFCURVE",
"636 390 OFFCURVE",
"567 390 CURVE SMOOTH"
);
}
);
width = 1207;
},
{
anchors = (
{
name = bottom;
position = "{604, 0}";
},
{
name = top;
position = "{604, 1063}";
}
);
layerId = "B5195C1E-69AB-4BC6-9855-DF55601A0735";
paths = (
{
closed = 1;
nodes = (
"953 -344 OFFCURVE",
"931 -127 OFFCURVE",
"931 99 CURVE SMOOTH",
"931 396 OFFCURVE",
"963 773 OFFCURVE",
"1004 1072 CURVE",
"993 1077 OFFCURVE",
"945 1089 OFFCURVE",
"926 1091 CURVE",
"921 1074 OFFCURVE",
"911 999 OFFCURVE",
"909 976 CURVE",
"858 1017 OFFCURVE",
"723 1086 OFFCURVE",
"559 1086 CURVE SMOOTH",
"245 1086 OFFCURVE",
"111 882 OFFCURVE",
"111 555 CURVE SMOOTH",
"111 260 OFFCURVE",
"239 49 OFFCURVE",
"515 49 CURVE SMOOTH",
"694 49 OFFCURVE",
"812 137 OFFCURVE",
"846 188 CURVE",
"846 -24 OFFCURVE",
"855 -299 OFFCURVE",
"872 -446 CURVE",
"904 -450 OFFCURVE",
"949 -453 OFFCURVE",
"966 -453 CURVE"
);
},
{
closed = 1;
nodes = (
"293 126 OFFCURVE",
"196 330 OFFCURVE",
"196 559 CURVE SMOOTH",
"196 815 OFFCURVE",
"286 1010 OFFCURVE",
"556 1010 CURVE SMOOTH",
"729 1010 OFFCURVE",
"873 919 OFFCURVE",
"896 901 CURVE",
"882 798 OFFCURVE",
"851 383 OFFCURVE",
"846 286 CURVE",
"811 233 OFFCURVE",
"680 126 OFFCURVE",
"509 126 CURVE SMOOTH"
);
}
);
width = 1207;
}
);
leftKerningGroup = o;
rightKerningGroup = q;
unicode = 0071;
},
{
glyphname = r;
lastChange = "2020-07-16 19:18:19 +0000";
layers = (
{
anchors = (
{
name = bottom;
position = "{427, 0}";
},
{
name = top;
position = "{427, 1063}";
}
);
layerId = "B5042207-EFBA-41B6-8DFD-104A953B46A6";
paths = (
{
closed = 1;
nodes = (
"412 952 OFFCURVE",
"386 1041 OFFCURVE",
"370 1074 CURVE",
"340 1072 OFFCURVE",
"157 1043 OFFCURVE",
"34 1009 CURVE",
"74 832 OFFCURVE",
"116 252 OFFCURVE",
"116 -8 CURVE",
"258 -8 OFFCURVE",
"417 -4 OFFCURVE",
"536 12 CURVE",
"536 96 OFFCURVE",
"490 441 OFFCURVE",
"468 578 CURVE",
"519 641 OFFCURVE",
"579 677 OFFCURVE",
"656 677 CURVE SMOOTH",
"707 677 OFFCURVE",
"753 659 OFFCURVE",
"781 648 CURVE",
"858 1044 LINE",
"834 1062 OFFCURVE",
"767 1078 OFFCURVE",
"707 1078 CURVE SMOOTH",
"559 1078 OFFCURVE",
"447 985 OFFCURVE",
"412 902 CURVE"
);
}
);
width = 853;
},
{
anchors = (
{
name = bottom;
position = "{427, 0}";
},
{
name = top;
position = "{427, 1063}";
}
);
layerId = "B5195C1E-69AB-4BC6-9855-DF55601A0735";
paths = (
{
closed = 1;
nodes = (
"193 918 OFFCURVE",
"171 1003 OFFCURVE",
"154 1054 CURVE",
"137 1053 OFFCURVE",
"90 1040 OFFCURVE",
"79 1034 CURVE",
"173 658 OFFCURVE",
"203 343 OFFCURVE",
"203 2 CURVE",
"228 -1 OFFCURVE",
"280 -2 OFFCURVE",
"300 -2 CURVE",
"300 134 OFFCURVE",
"264 565 OFFCURVE",
"219 783 CURVE",
"290 899 OFFCURVE",
"453 987 OFFCURVE",
"597 987 CURVE SMOOTH",
"683 987 OFFCURVE",
"734 967 OFFCURVE",
"768 952 CURVE",
"786 1036 LINE",
"743 1057 OFFCURVE",
"669 1067 OFFCURVE",
"605 1067 CURVE SMOOTH",
"458 1067 OFFCURVE",
"275 987 OFFCURVE",
"200 877 CURVE"
);
}
);
width = 853;
}
);
leftKerningGroup = n;
rightKerningGroup = r;
unicode = 0072;
},
{
glyphname = s;
lastChange = "2020-06-17 21:34:13 +0000";
layers = (
{
anchors = (
{
name = bottom;
position = "{504, -70}";
},
{
name = top;
position = "{504, 1124}";
}
);
layerId = "B5042207-EFBA-41B6-8DFD-104A953B46A6";
paths = (
{
closed = 1;
nodes = (
"728 -77 OFFCURVE",
"940 44 OFFCURVE",
"940 305 CURVE SMOOTH",
"940 516 OFFCURVE",
"727 627 OFFCURVE",
"607 680 CURVE SMOOTH",
"494 730 OFFCURVE",
"440 755 OFFCURVE",
"440 796 CURVE SMOOTH",
"440 834 OFFCURVE",
"493 844 OFFCURVE",
"535 844 CURVE SMOOTH",
"613 844 OFFCURVE",
"697 788 OFFCURVE",
"745 738 CURVE",
"824 831 OFFCURVE",
"896 967 OFFCURVE",
"909 1010 CURVE",
"806 1091 OFFCURVE",
"641 1127 OFFCURVE",
"514 1127 CURVE SMOOTH",
"292 1127 OFFCURVE",
"80 1016 OFFCURVE",
"80 810 CURVE SMOOTH",
"80 609 OFFCURVE",
"221 512 OFFCURVE",
"367 446 CURVE SMOOTH",
"459 404 OFFCURVE",
"572 336 OFFCURVE",
"572 296 CURVE SMOOTH",
"572 259 OFFCURVE",
"541 250 OFFCURVE",
"495 250 CURVE SMOOTH",
"414 250 OFFCURVE",
"294 330 OFFCURVE",
"193 405 CURVE",
"134 345 OFFCURVE",
"24 126 OFFCURVE",
"10 70 CURVE",
"48 34 OFFCURVE",
"220 -77 OFFCURVE",
"489 -77 CURVE SMOOTH"
);
}
);
width = 988;
},
{
anchors = (
{
name = bottom;
position = "{498, -60}";
},
{
name = top;
position = "{518, 1093}";
}
);
layerId = "B5195C1E-69AB-4BC6-9855-DF55601A0735";
paths = (
{
closed = 1;
nodes = (
"752 -84 OFFCURVE",
"937 32 OFFCURVE",
"937 242 CURVE SMOOTH",
"937 427 OFFCURVE",
"801 527 OFFCURVE",
"524 614 CURVE SMOOTH",
"374 661 OFFCURVE",
"242 729 OFFCURVE",
"242 846 CURVE SMOOTH",
"242 982 OFFCURVE",
"386 1029 OFFCURVE",
"533 1029 CURVE SMOOTH",
"659 1029 OFFCURVE",
"762 986 OFFCURVE",
"835 949 CURVE",
"844 964 OFFCURVE",
"859 998 OFFCURVE",
"868 1027 CURVE",
"817 1061 OFFCURVE",
"695 1114 OFFCURVE",
"524 1114 CURVE SMOOTH",
"324 1114 OFFCURVE",
"156 1022 OFFCURVE",
"156 841 CURVE SMOOTH",
"156 659 OFFCURVE",
"312 599 OFFCURVE",
"523 529 CURVE SMOOTH",
"716 465 OFFCURVE",
"851 399 OFFCURVE",
"851 232 CURVE SMOOTH",
"851 87 OFFCURVE",
"701 -5 OFFCURVE",
"519 -5 CURVE SMOOTH",
"347 -5 OFFCURVE",
"184 99 OFFCURVE",
"108 210 CURVE",
"87 195 OFFCURVE",
"55 162 OFFCURVE",
"35 135 CURVE",
"156 -12 OFFCURVE",
"369 -84 OFFCURVE",
"505 -84 CURVE SMOOTH"
);
}
);
width = 995;
}
);
leftKerningGroup = s;
rightKerningGroup = s;
unicode = 0073;
},
{
glyphname = scedilla;
lastChange = "2020-07-03 19:54:28 +0000";
layers = (
{
components = (
{
name = s;
}
);
layerId = "B5042207-EFBA-41B6-8DFD-104A953B46A6";
paths = (
{
closed = 1;
nodes = (
"699 -567 OFFCURVE",
"917 -483 OFFCURVE",
"917 -298 CURVE SMOOTH",
"917 -165 OFFCURVE",
"842 -107 OFFCURVE",
"736 -107 CURVE SMOOTH",
"666 -107 OFFCURVE",
"610 -135 OFFCURVE",
"586 -169 CURVE",
"610 -51 LINE",
"391 -63 LINE",
"335 -287 LINE",
"370 -274 OFFCURVE",
"453 -259 OFFCURVE",
"530 -259 CURVE SMOOTH",
"597 -259 OFFCURVE",
"651 -270 OFFCURVE",
"651 -306 CURVE SMOOTH",
"651 -346 OFFCURVE",
"586 -367 OFFCURVE",
"468 -367 CURVE SMOOTH",
"435 -367 OFFCURVE",
"351 -355 OFFCURVE",
"322 -342 CURVE",
"258 -545 LINE",
"278 -550 OFFCURVE",
"360 -567 OFFCURVE",
"465 -567 CURVE SMOOTH"
);
}
);
width = 988;
},
{
components = (
{
name = s;
}
);
layerId = "B5195C1E-69AB-4BC6-9855-DF55601A0735";
paths = (
{
closed = 1;
nodes = (
"713 -522 OFFCURVE",
"826 -456 OFFCURVE",
"826 -315 CURVE SMOOTH",
"826 -204 OFFCURVE",
"751 -147 OFFCURVE",
"646 -147 CURVE SMOOTH",
"598 -147 OFFCURVE",
"535 -166 OFFCURVE",
"518 -179 CURVE",
"539 -21 LINE",
"467 -17 LINE",
"431 -272 LINE",
"472 -254 OFFCURVE",
"570 -219 OFFCURVE",
"628 -219 CURVE SMOOTH",
"710 -219 OFFCURVE",
"737 -258 OFFCURVE",
"737 -327 CURVE SMOOTH",
"737 -419 OFFCURVE",
"646 -452 OFFCURVE",
"498 -452 CURVE SMOOTH",
"447 -452 OFFCURVE",
"371 -434 OFFCURVE",
"332 -424 CURVE",
"314 -497 LINE",
"334 -504 OFFCURVE",
"399 -522 OFFCURVE",
"503 -522 CURVE SMOOTH"
);
}
);
width = 995;
}
);
leftKerningGroup = s;
rightKerningGroup = s;
unicode = 015F;
},
{
glyphname = germandbls;
lastChange = "2020-06-17 20:39:58 +0000";
layers = (
{
anchors = (
{
name = bottom;
position = "{572, 0}";
},
{
name = top;
position = "{513, 1372}";
}
);
layerId = "B5042207-EFBA-41B6-8DFD-104A953B46A6";
paths = (
{
closed = 1;
nodes = (
"489 53 LINE",
"475 141 OFFCURVE",
"386 785 OFFCURVE",
"386 1021 CURVE SMOOTH",
"386 1114 OFFCURVE",
"472 1114 OFFCURVE",
"509 1114 CURVE SMOOTH",
"580 1114 OFFCURVE",
"641 1054 OFFCURVE",
"641 998 CURVE SMOOTH",
"641 945 OFFCURVE",
"602 901 OFFCURVE",
"564 859 CURVE SMOOTH",
"526 818 OFFCURVE",
"489 778 OFFCURVE",
"489 726 CURVE SMOOTH",
"489 645 OFFCURVE",
"535 604 OFFCURVE",
"572 584 CURVE SMOOTH",
"701 514 OFFCURVE",
"811 440 OFFCURVE",
"811 354 CURVE SMOOTH",
"811 325 OFFCURVE",
"799 295 OFFCURVE",
"763 295 CURVE SMOOTH",
"723 295 OFFCURVE",
"680 326 OFFCURVE",
"642 354 CURVE",
"530 65 LINE",
"563 34 OFFCURVE",
"641 -10 OFFCURVE",
"779 -10 CURVE SMOOTH",
"989 -10 OFFCURVE",
"1115 153 OFFCURVE",
"1115 355 CURVE SMOOTH",
"1115 506 OFFCURVE",
"1026 616 OFFCURVE",
"936 669 CURVE SMOOTH",
"889 697 OFFCURVE",
"832 731 OFFCURVE",
"832 773 CURVE SMOOTH",
"832 793 OFFCURVE",
"852 817 OFFCURVE",
"877 847 CURVE SMOOTH",
"915 894 OFFCURVE",
"965 957 OFFCURVE",
"965 1043 CURVE SMOOTH",
"965 1252 OFFCURVE",
"760 1415 OFFCURVE",
"518 1415 CURVE SMOOTH",
"268 1415 OFFCURVE",
"30 1291 OFFCURVE",
"30 988 CURVE SMOOTH",
"30 726 OFFCURVE",
"117 104 OFFCURVE",
"146 -5 CURVE"
);
}
);
width = 1144;
},
{
anchors = (
{
name = bottom;
position = "{572, 0}";
},
{
name = top;
position = "{474, 1359}";
}
);
layerId = "B5195C1E-69AB-4BC6-9855-DF55601A0735";
paths = (
{
closed = 1;
nodes = (
"335 5 LINE",
"320 103 OFFCURVE",
"214 823 OFFCURVE",
"214 993 CURVE SMOOTH",
"214 1196 OFFCURVE",
"276 1323 OFFCURVE",
"473 1323 CURVE SMOOTH",
"619 1323 OFFCURVE",
"768 1233 OFFCURVE",
"768 1098 CURVE SMOOTH",
"768 1016 OFFCURVE",
"720 961 OFFCURVE",
"674 910 CURVE SMOOTH",
"631 863 OFFCURVE",
"589 817 OFFCURVE",
"589 748 CURVE SMOOTH",
"589 708 OFFCURVE",
"620 650 OFFCURVE",
"663 616 CURVE SMOOTH",
"766 535 OFFCURVE",
"899 424 OFFCURVE",
"899 281 CURVE SMOOTH",
"899 176 OFFCURVE",
"841 86 OFFCURVE",
"703 86 CURVE SMOOTH",
"607 86 OFFCURVE",
"537 122 OFFCURVE",
"480 171 CURVE",
"421 97 LINE",
"485 46 OFFCURVE",
"595 2 OFFCURVE",
"696 2 CURVE SMOOTH",
"868 2 OFFCURVE",
"988 106 OFFCURVE",
"988 291 CURVE SMOOTH",
"988 446 OFFCURVE",
"837 576 OFFCURVE",
"779 621 CURVE SMOOTH",
"691 689 OFFCURVE",
"674 726 OFFCURVE",
"674 749 CURVE SMOOTH",
"674 778 OFFCURVE",
"702 813 OFFCURVE",
"735 854 CURVE SMOOTH",
"783 915 OFFCURVE",
"843 992 OFFCURVE",
"843 1080 CURVE SMOOTH",
"843 1271 OFFCURVE",
"671 1395 OFFCURVE",
"474 1395 CURVE SMOOTH",
"227 1395 OFFCURVE",
"135 1250 OFFCURVE",
"135 988 CURVE SMOOTH",
"135 756 OFFCURVE",
"218 229 OFFCURVE",
"255 -5 CURVE"
);
}
);
width = 1144;
}
);
leftKerningGroup = h;
rightKerningGroup = s;
unicode = 00DF;
},
{
glyphname = t;
lastChange = "2020-06-17 20:47:00 +0000";
layers = (
{
anchors = (
{
name = bottom;
position = "{616, -53}";
},
{
name = center;
position = "{472, 532}";
},
{
name = top;
position = "{404, 1421}";
},
{
name = topright;
position = "{934, 1063}";
}
);
layerId = "B5042207-EFBA-41B6-8DFD-104A953B46A6";
paths = (
{
closed = 1;
nodes = (
"924 126 OFFCURVE",
"801 290 OFFCURVE",
"758 353 CURVE",
"734 323 OFFCURVE",
"702 289 OFFCURVE",
"654 289 CURVE SMOOTH",
"578 289 OFFCURVE",
"569 372 OFFCURVE",
"569 508 CURVE SMOOTH",
"569 625 OFFCURVE",
"574 773 OFFCURVE",
"578 832 CURVE",
"605 835 OFFCURVE",
"672 840 OFFCURVE",
"717 843 CURVE SMOOTH",
"783 847 OFFCURVE",
"870 852 OFFCURVE",
"883 852 CURVE",
"883 947 OFFCURVE",
"881 1080 OFFCURVE",
"870 1162 CURVE",
"855 1162 OFFCURVE",
"812 1162 OFFCURVE",
"734 1157 CURVE SMOOTH",
"700 1155 OFFCURVE",
"631 1151 OFFCURVE",
"585 1149 CURVE",
"582 1208 OFFCURVE",
"581 1260 OFFCURVE",
"581 1302 CURVE SMOOTH",
"581 1369 OFFCURVE",
"582 1421 OFFCURVE",
"583 1434 CURVE",
"216 1397 LINE",
"219 1372 OFFCURVE",
"223 1318 OFFCURVE",
"225 1273 CURVE SMOOTH",
"227 1227 OFFCURVE",
"231 1151 OFFCURVE",
"234 1132 CURVE",
"137 1128 OFFCURVE",
"60 1122 OFFCURVE",
"-19 1113 CURVE",
"-19 1091 OFFCURVE",
"-14 923 OFFCURVE",
"12 779 CURVE",
"50 787 OFFCURVE",
"148 800 OFFCURVE",
"235 809 CURVE",
"230 737 OFFCURVE",
"217 531 OFFCURVE",
"217 334 CURVE SMOOTH",
"217 120 OFFCURVE",
"342 -53 OFFCURVE",
"597 -53 CURVE SMOOTH",
"787 -53 OFFCURVE",
"905 35 OFFCURVE",
"949 94 CURVE"
);
}
);
width = 964;
},
{
anchors = (
{
name = bottom;
position = "{574, 0}";
},
{
name = center;
position = "{452, 532}";
},
{
name = top;
position = "{392, 1431}";
},
{
name = topright;
position = "{914, 1063}";
}
);
layerId = "B5195C1E-69AB-4BC6-9855-DF55601A0735";
paths = (
{
closed = 1;
nodes = (
"802 243 OFFCURVE",
"738 261 OFFCURVE",
"728 265 CURVE",
"718 198 OFFCURVE",
"687 41 OFFCURVE",
"582 41 CURVE SMOOTH",
"429 41 OFFCURVE",
"418 191 OFFCURVE",
"418 310 CURVE SMOOTH",
"418 428 OFFCURVE",
"434 866 OFFCURVE",
"439 969 CURVE",
"496 973 OFFCURVE",
"573 976 OFFCURVE",
"633 976 CURVE SMOOTH",
"716 976 OFFCURVE",
"814 971 OFFCURVE",
"828 969 CURVE",
"828 979 OFFCURVE",
"826 1021 OFFCURVE",
"824 1031 CURVE",
"808 1033 OFFCURVE",
"685 1037 OFFCURVE",
"582 1037 CURVE SMOOTH",
"545 1037 OFFCURVE",
"476 1034 OFFCURVE",
"439 1032 CURVE",
"441 1066 OFFCURVE",
"442 1137 OFFCURVE",
"442 1177 CURVE SMOOTH",
"442 1307 OFFCURVE",
"434 1406 OFFCURVE",
"430 1431 CURVE",
"348 1436 LINE",
"352 1392 OFFCURVE",
"357 1332 OFFCURVE",
"357 1268 CURVE SMOOTH",
"357 1187 OFFCURVE",
"354 1097 OFFCURVE",
"351 1024 CURVE",
"254 1017 OFFCURVE",
"130 998 OFFCURVE",
"58 986 CURVE",
"58 968 OFFCURVE",
"61 928 OFFCURVE",
"64 914 CURVE",
"84 920 OFFCURVE",
"192 942 OFFCURVE",
"349 957 CURVE",
"345 869 OFFCURVE",
"332 445 OFFCURVE",
"332 298 CURVE SMOOTH",
"332 128 OFFCURVE",
"375 -33 OFFCURVE",
"582 -33 CURVE SMOOTH",
"747 -33 OFFCURVE",
"787 123 OFFCURVE",
"810 241 CURVE"
);
}
);
width = 964;
}
);
leftKerningGroup = t;
rightKerningGroup = t;
unicode = 0074;
},
{
glyphname = t.ss01;
lastChange = "2020-07-16 19:57:33 +0000";
layers = (
{
anchors = (
{
name = bottom;
position = "{482, 0}";
},
{
name = center;
position = "{482, 532}";
},
{
name = top;
position = "{452, 1436}";
},
{
name = topright;
position = "{872, 1195}";
}
);
layerId = "B5042207-EFBA-41B6-8DFD-104A953B46A6";
paths = (
{
closed = 1;
nodes = (
"934 926 OFFCURVE",
"939 967 OFFCURVE",
"939 1040 CURVE SMOOTH",
"939 1098 OFFCURVE",
"932 1152 OFFCURVE",
"923 1195 CURVE",
"902 1195 OFFCURVE",
"837 1193 OFFCURVE",
"655 1186 CURVE",
"650 1335 OFFCURVE",
"643 1383 OFFCURVE",
"633 1422 CURVE",
"611 1426 OFFCURVE",
"548 1436 OFFCURVE",
"452 1436 CURVE SMOOTH",
"405 1436 OFFCURVE",
"347 1432 OFFCURVE",
"282 1426 CURVE",
"287 1337 OFFCURVE",
"291 1248 OFFCURVE",
"294 1168 CURVE",
"197 1161 OFFCURVE",
"152 1157 OFFCURVE",
"38 1145 CURVE",
"38 1123 OFFCURVE",
"40 959 OFFCURVE",
"65 817 CURVE",
"106 829 OFFCURVE",
"216 843 OFFCURVE",
"306 853 CURVE",
"300 619 OFFCURVE",
"297 320 OFFCURVE",
"297 0 CURVE",
"343 -4 OFFCURVE",
"396 -5 OFFCURVE",
"445 -5 CURVE SMOOTH",
"518 -5 OFFCURVE",
"590 -4 OFFCURVE",
"670 -2 CURVE",
"672 92 OFFCURVE",
"674 296 OFFCURVE",
"674 479 CURVE SMOOTH",
"674 629 OFFCURVE",
"670 763 OFFCURVE",
"665 879 CURVE",
"759 889 OFFCURVE",
"905 896 OFFCURVE",
"926 896 CURVE"
);
}
);
width = 964;
},
{
anchors = (
{
name = bottom;
position = "{482, 0}";
},
{
name = center;
position = "{482, 532}";
},
{
name = top;
position = "{436, 1388}";
},
{
name = topright;
position = "{785, 1063}";
}
);
layerId = "B5195C1E-69AB-4BC6-9855-DF55601A0735";
paths = (
{
closed = 1;
nodes = (
"891 999 OFFCURVE",
"893 1018 OFFCURVE",
"893 1038 CURVE SMOOTH",
"893 1047 OFFCURVE",
"893 1056 OFFCURVE",
"892 1065 CURVE",
"872 1065 OFFCURVE",
"665 1058 OFFCURVE",
"503 1051 CURVE",
"503 1152 OFFCURVE",
"484 1347 OFFCURVE",
"479 1386 CURVE",
"470 1387 OFFCURVE",
"458 1388 OFFCURVE",
"446 1388 CURVE SMOOTH",
"425 1388 OFFCURVE",
"401 1386 OFFCURVE",
"388 1383 CURVE",
"400 1273 OFFCURVE",
"418 1101 OFFCURVE",
"418 1044 CURVE",
"320 1038 OFFCURVE",
"115 1010 OFFCURVE",
"55 998 CURVE",
"55 976 OFFCURVE",
"57 950 OFFCURVE",
"67 916 CURVE",
"98 923 OFFCURVE",
"239 947 OFFCURVE",
"417 962 CURVE",
"430 591 OFFCURVE",
"431 296 OFFCURVE",
"431 0 CURVE",
"442 -1 OFFCURVE",
"456 -2 OFFCURVE",
"469 -2 CURVE SMOOTH",
"483 -2 OFFCURVE",
"495 -2 OFFCURVE",
"503 -2 CURVE",
"508 118 OFFCURVE",
"512 277 OFFCURVE",
"512 437 CURVE SMOOTH",
"512 571 OFFCURVE",
"508 853 OFFCURVE",
"504 968 CURVE",
"653 978 OFFCURVE",
"867 985 OFFCURVE",
"887 985 CURVE"
);
}
);
width = 964;
}
);
leftKerningGroup = t;
rightKerningGroup = t;
},
{
glyphname = tbar;
lastChange = "2020-06-17 20:42:58 +0000";
layers = (
{
components = (
{
name = t;
}
);
layerId = "B5042207-EFBA-41B6-8DFD-104A953B46A6";
paths = (
{
closed = 1;
nodes = (
"882 568 OFFCURVE",
"873 688 OFFCURVE",
"869 727 CURVE",
"726 727 OFFCURVE",
"167 718 OFFCURVE",
"43 667 CURVE",
"43 593 OFFCURVE",
"49 523 OFFCURVE",
"58 436 CURVE",
"283 453 OFFCURVE",
"758 460 OFFCURVE",
"882 460 CURVE"
);
}
);
width = 964;
},
{
components = (
{
name = t;
}
);
layerId = "B5195C1E-69AB-4BC6-9855-DF55601A0735";
paths = (
{
closed = 1;
nodes = (
"778 619 OFFCURVE",
"776 652 OFFCURVE",
"774 661 CURVE",
"645 654 OFFCURVE",
"161 613 OFFCURVE",
"100 601 CURVE",
"96 590 OFFCURVE",
"94 557 OFFCURVE",
"94 541 CURVE",
"250 555 OFFCURVE",
"625 582 OFFCURVE",
"779 590 CURVE"
);
}
);
width = 964;
}
);
leftKerningGroup = t;
rightKerningGroup = t;
unicode = 0167;
},
{
glyphname = tbar.ss01;
lastChange = "2020-06-29 18:02:34 +0000";
layers = (
{
components = (
{
name = t.ss01;
transform = "{1, 0, 0, 1, 3, 0}";
}
);
layerId = "B5195C1E-69AB-4BC6-9855-DF55601A0735";
paths = (
{
closed = 1;
nodes = (
"818 619 OFFCURVE",
"816 652 OFFCURVE",
"814 661 CURVE",
"685 654 OFFCURVE",
"201 613 OFFCURVE",
"140 601 CURVE",
"136 590 OFFCURVE",
"134 557 OFFCURVE",
"134 541 CURVE",
"290 555 OFFCURVE",
"665 582 OFFCURVE",
"819 590 CURVE"
);
}
);
width = 1032;
},
{
components = (
{
name = t.ss01;
transform = "{1, 0, 0, 1, -57, 0}";
}
);
layerId = "B5042207-EFBA-41B6-8DFD-104A953B46A6";
paths = (
{
closed = 1;
nodes = (
"787 568 OFFCURVE",
"779 688 OFFCURVE",
"775 727 CURVE",
"650 727 OFFCURVE",
"159 718 OFFCURVE",
"50 667 CURVE",
"50 593 OFFCURVE",
"55 523 OFFCURVE",
"63 436 CURVE",
"261 453 OFFCURVE",
"678 460 OFFCURVE",
"787 460 CURVE"
);
}
);
width = 897;
}
);
leftKerningGroup = t;
leftMetricsKey = t;
rightKerningGroup = t;
rightMetricsKey = t;
},
